<svg width="1589" height="1667" viewBox="0 0 1589 1667" fill="none" xmlns="http://www.w3.org/2000/svg">
<path d="M168.493 1360.04L168.353 1367.12C124.897 1366.11 84.0407 1383.84 53.3148 1417.03C22.4109 1450.41 5.97829 1494.86 7.12637 1542L0.576388 1542.18C-0.484451 1493.03 16.4994 1446.79 48.684 1412.02C80.6837 1377.45 123.232 1358.99 168.493 1360.04Z" fill="#D3D3D3"/>
<path d="M173.8 1407.71L173.661 1414.78C139.836 1414 108.039 1427.8 84.1282 1453.63C60.0744 1479.61 47.2816 1514.18 48.1819 1550.89L41.6319 1551.07C40.7281 1512.4 54.1631 1475.98 79.4975 1448.62C104.682 1421.41 138.175 1406.88 173.8 1407.71Z" fill="#D3D3D3"/>
<path d="M167.872 1452.02L167.732 1459.09C146.54 1458.6 126.611 1467.24 111.626 1483.43C96.5546 1499.71 88.518 1521.36 89.1008 1544.37L82.5508 1544.55C81.968 1519.51 90.6432 1496.08 106.996 1478.42C123.254 1460.86 144.875 1451.48 167.872 1452.02Z" fill="#D3D3D3"/>
<path d="M182.421 1533.93C182.421 1540.36 180.16 1546.78 175.631 1551.67C166.575 1561.44 151.849 1561.44 142.797 1551.67C133.745 1541.89 133.745 1525.98 142.797 1516.2C151.849 1506.43 166.579 1506.43 175.631 1516.2C180.16 1521.09 182.421 1527.51 182.421 1533.93ZM142.556 1533.93C142.556 1538.54 144.183 1543.15 147.431 1546.66C153.929 1553.68 164.502 1553.68 171.003 1546.66C177.501 1539.64 177.501 1528.22 171.003 1521.2C164.506 1514.18 153.932 1514.18 147.431 1521.2C144.183 1524.71 142.556 1529.32 142.556 1533.93Z" fill="#D3D3D3"/>
<g clip-path="url(#clip0)">
<path d="M1303.11 176.221C1292.21 169.291 1277.84 173.251 1266.94 180.676C1256.04 187.606 1247.12 197.506 1234.74 202.456C1211.94 211.366 1182.71 200.971 1164.87 217.306C1153.48 227.701 1152.49 245.521 1144.06 257.896C1129.69 279.676 1095.01 287.596 1092.53 313.336C1091.05 328.186 1102.94 342.541 1117.31 346.996C1131.68 351.451 1148.03 346.996 1160.41 338.581C1175.28 328.681 1186.67 313.831 1203.52 308.386C1220.86 302.941 1241.67 307.396 1255.55 295.516C1268.92 283.636 1266.94 261.361 1276.85 246.511C1281.81 238.591 1290.23 232.651 1297.66 226.216C1305.09 219.781 1312.03 212.356 1313.02 202.456C1313.52 192.556 1310.05 176.221 1303.11 176.221Z" fill="#F5F5F5"/>
<path d="M1024.16 1227.6C1024.65 1227.11 1026.64 1229.09 1028.62 1232.06C1030.6 1235.03 1031.59 1237.5 1031.1 1238C1030.6 1238.49 1028.62 1236.51 1026.64 1233.54C1024.65 1230.57 1023.66 1228.1 1024.16 1227.6Z" fill="#FC6767"/>
<path d="M1002.85 1183.05C1003.35 1183.05 1006.32 1187.51 1008.8 1193.94C1011.28 1200.38 1012.76 1205.83 1012.27 1205.83C1011.77 1206.32 1008.8 1201.37 1006.32 1194.93C1003.84 1188.5 1002.36 1183.05 1002.85 1183.05Z" fill="#FC6767"/>
<path d="M991.457 1135.04C991.952 1135.04 993.934 1140.48 994.925 1146.92C996.412 1153.85 996.412 1159.29 995.916 1159.29C995.421 1159.29 993.439 1154.34 992.448 1147.41C990.961 1140.48 990.466 1135.04 991.457 1135.04Z" fill="#FC6767"/>
<path d="M989.475 1085.54C989.971 1085.54 990.466 1090.98 990.466 1097.91C990.466 1104.84 989.475 1110.29 988.98 1110.29C988.484 1110.29 987.989 1104.84 987.989 1097.91C988.484 1090.98 988.98 1085.54 989.475 1085.54Z" fill="#FC6767"/>
<path d="M997.403 1036.53C997.898 1036.53 997.403 1042.47 995.916 1048.91C994.43 1055.34 992.943 1060.79 991.952 1060.79C991.457 1060.79 991.952 1055.34 993.439 1048.41C995.421 1041.98 996.907 1036.53 997.403 1036.53Z" fill="#FC6767"/>
<path d="M1015.24 990.499C1015.74 990.994 1014.25 995.944 1011.28 1002.38C1008.3 1008.81 1005.83 1013.27 1004.84 1013.27C1004.34 1012.77 1005.83 1007.82 1008.8 1001.39C1011.77 994.954 1014.74 990.004 1015.24 990.499Z" fill="#FC6767"/>
<path d="M1042.49 949.414C1042.99 949.909 1040.01 954.859 1036.05 960.304C1032.09 965.749 1028.12 969.709 1027.63 969.709C1027.13 969.214 1029.61 964.264 1034.07 958.819C1038.53 952.879 1042 948.919 1042.49 949.414Z" fill="#FC6767"/>
<path d="M1076.18 912.784C1076.68 913.279 1073.21 917.734 1068.75 922.684C1063.8 927.634 1059.83 931.099 1059.34 930.604C1058.84 930.109 1062.31 925.654 1066.77 920.704C1071.23 915.754 1075.69 912.289 1076.18 912.784Z" fill="#FC6767"/>
<path d="M1110.87 877.639C1111.36 878.134 1107.89 882.589 1102.94 887.539C1097.98 892.489 1094.02 895.954 1093.52 895.459C1093.03 894.964 1096.5 890.509 1101.45 885.559C1105.91 880.609 1110.37 877.144 1110.87 877.639Z" fill="#FC6767"/>
<path d="M1143.57 840.018C1144.06 840.513 1141.09 844.968 1136.63 850.413C1132.17 855.858 1128.21 859.819 1127.71 859.324C1127.22 858.829 1130.19 854.373 1134.65 848.928C1139.11 843.483 1143.07 839.523 1143.57 840.018Z" fill="#FC6767"/>
<path d="M1168.84 797.449C1169.33 797.944 1167.85 802.894 1164.87 809.329C1161.9 815.269 1158.43 819.724 1157.44 819.724C1156.95 819.229 1159.42 814.279 1162.4 808.339C1165.37 802.399 1168.34 797.449 1168.84 797.449Z" fill="#FC6767"/>
<path d="M1180.73 749.928C1181.22 749.928 1181.72 755.373 1180.23 762.303C1179.24 769.233 1177.26 774.183 1176.27 774.183C1175.77 774.183 1176.27 768.738 1177.76 761.808C1179.24 755.373 1180.23 749.928 1180.73 749.928Z" fill="#FC6767"/>
<path d="M1177.26 700.428C1177.76 700.428 1179.74 705.378 1180.73 712.308C1181.72 719.238 1181.72 724.683 1180.73 724.683C1180.23 724.683 1179.24 719.238 1178.25 712.803C1177.26 706.368 1176.27 700.923 1177.26 700.428Z" fill="#FC6767"/>
<path d="M1157.94 655.382C1158.43 654.887 1162.4 659.342 1165.37 665.282C1168.84 671.222 1170.32 676.667 1169.83 677.162C1169.33 677.657 1166.36 672.707 1163.39 666.767C1159.92 660.332 1156.95 655.877 1157.94 655.382Z" fill="#FC6767"/>
<path d="M1123.25 620.237C1123.75 619.742 1128.7 622.217 1134.15 626.672C1139.6 631.127 1143.07 635.582 1142.58 636.077C1142.08 636.572 1137.62 633.107 1132.67 628.652C1127.22 624.197 1122.76 620.732 1123.25 620.237Z" fill="#FC6767"/>
<path d="M1078.17 599.942C1078.17 599.447 1084.11 599.942 1090.55 602.417C1096.99 604.892 1101.95 607.367 1101.45 608.357C1100.96 608.852 1096 607.367 1089.56 604.892C1083.12 602.417 1078.17 600.932 1078.17 599.942Z" fill="#FC6767"/>
<path d="M1028.62 597.962C1028.62 597.467 1034.07 595.982 1041 595.487C1047.94 594.992 1053.39 595.982 1053.39 596.972C1053.39 597.467 1047.94 597.962 1041 598.457C1034.56 597.962 1029.11 598.457 1028.62 597.962Z" fill="#FC6767"/>
<path d="M983.034 615.782C982.538 615.287 986.998 611.327 992.943 608.357C998.889 604.892 1004.34 603.407 1004.83 604.397C1005.33 604.892 1000.38 607.367 994.43 610.832C988.484 613.802 983.529 616.772 983.034 615.782Z" fill="#FC6767"/>
<path d="M949.341 651.422C948.846 650.927 951.323 645.977 955.287 640.532C959.746 635.087 963.71 631.622 964.205 632.117C964.701 632.612 961.233 637.067 957.269 642.512C953.305 647.462 949.837 651.917 949.341 651.422Z" fill="#FC6767"/>
<path d="M932.496 697.953C932 697.953 932 692.013 933.487 685.578C934.973 678.648 937.45 673.698 938.441 674.193C938.937 674.688 937.45 679.638 935.964 686.568C934.477 692.508 932.991 697.953 932.496 697.953Z" fill="#FC6767"/>
<path d="M938.441 746.463C937.946 746.958 935.468 741.513 933.487 735.078C932 728.148 932 722.703 932.496 722.703C932.991 722.703 934.477 728.148 935.964 734.583C937.45 741.018 938.937 746.463 938.441 746.463Z" fill="#FC6767"/>
<path d="M963.215 789.033C962.72 789.528 958.756 785.568 954.792 780.123C950.828 774.678 948.351 769.233 948.847 769.233C949.342 768.738 952.81 773.193 956.774 778.638C960.738 784.083 964.206 788.538 963.215 789.033Z" fill="#FC6767"/>
<path d="M999.88 822.198C999.384 822.693 994.43 820.218 988.979 815.763C983.529 811.308 980.061 807.348 980.556 806.853C981.052 806.358 985.511 809.823 990.961 813.783C996.411 818.238 1000.38 821.703 999.88 822.198Z" fill="#FC6767"/>
<path d="M1042.99 846.948C1042.49 847.443 1037.54 845.463 1031.59 842.493C1025.64 839.523 1020.69 836.553 1021.19 835.563C1021.68 835.068 1026.64 837.048 1032.58 840.018C1038.53 843.483 1042.99 846.453 1042.99 846.948Z" fill="#FC6767"/>
<path d="M1090.06 861.799C1090.06 862.294 1084.11 862.294 1077.67 860.314C1071.23 858.829 1065.78 856.353 1066.27 855.858C1066.27 855.363 1071.72 856.354 1078.66 857.839C1084.61 859.819 1090.06 861.304 1090.06 861.799Z" fill="#FC6767"/>
<path d="M1139.6 864.274C1139.6 864.769 1134.15 866.254 1127.22 866.254C1120.28 866.254 1114.83 865.264 1114.83 864.769C1114.83 864.274 1120.28 863.779 1127.22 863.779C1133.66 863.779 1139.11 863.779 1139.6 864.274Z" fill="#FC6767"/>
<path d="M1187.17 851.898C1187.67 852.393 1182.71 855.363 1176.27 857.838C1169.83 860.313 1164.38 860.808 1163.88 860.313C1163.88 859.818 1168.84 857.838 1175.28 855.363C1181.72 852.888 1186.67 850.908 1187.17 851.898Z" fill="#FC6767"/>
<path d="M1228.29 824.673C1228.79 825.168 1224.83 829.623 1219.38 833.583C1213.93 838.038 1208.97 840.513 1208.48 839.523C1207.98 839.028 1212.44 835.563 1217.89 831.108C1223.34 827.643 1227.8 824.178 1228.29 824.673Z" fill="#FC6767"/>
<path d="M1260.5 787.053C1261 787.548 1258.52 792.498 1254.55 797.943C1250.59 803.388 1246.13 807.348 1245.64 806.853C1245.14 806.358 1248.11 801.903 1252.57 796.458C1256.54 791.013 1260.01 787.053 1260.5 787.053Z" fill="#FC6767"/>
<path d="M1282.3 742.998C1282.8 742.998 1281.81 748.938 1279.33 754.878C1276.85 761.313 1273.88 766.263 1272.89 765.768C1272.39 765.273 1274.37 760.323 1276.85 753.888C1279.33 747.453 1281.31 742.503 1282.3 742.998Z" fill="#FC6767"/>
<path d="M1291.71 694.488C1292.21 694.488 1292.71 699.933 1291.71 706.863C1290.72 713.793 1289.24 719.238 1288.25 718.743C1287.75 718.743 1288.25 713.298 1289.24 706.368C1290.23 699.933 1291.22 693.993 1291.71 694.488Z" fill="#FC6767"/>
<path d="M1290.23 644.988C1290.72 644.988 1291.72 650.433 1292.71 657.363C1293.2 664.293 1293.2 669.738 1292.21 669.738C1291.72 669.738 1290.72 664.293 1289.73 657.363C1289.73 650.433 1289.73 644.988 1290.23 644.988Z" fill="#FC6767"/>
<path d="M1279.82 596.477C1280.32 596.477 1282.3 601.427 1284.28 607.862C1286.26 614.297 1286.76 620.237 1286.26 620.237C1285.77 620.237 1283.79 615.287 1281.81 608.852C1279.82 602.417 1278.83 596.972 1279.82 596.477Z" fill="#FC6767"/>
<path d="M1260.5 550.938C1261 550.442 1263.97 555.393 1266.94 561.333C1269.91 567.768 1271.4 572.718 1270.9 573.213C1270.41 573.708 1267.44 568.758 1264.96 562.323C1261.99 556.383 1260 550.938 1260.5 550.938Z" fill="#FC6767"/>
<path d="M1236.22 507.872C1236.72 507.377 1240.19 511.832 1243.65 517.772C1247.12 523.712 1249.6 528.662 1248.61 529.157C1248.11 529.652 1244.64 525.197 1241.18 519.257C1238.2 513.317 1235.73 507.872 1236.22 507.872Z" fill="#FC6767"/>
<path d="M1211.94 464.807C1212.44 464.312 1215.91 469.262 1218.88 475.202C1222.35 481.142 1224.33 486.092 1223.83 486.587C1223.34 487.082 1219.87 482.132 1216.9 476.192C1213.43 470.252 1210.95 464.807 1211.94 464.807Z" fill="#FC6767"/>
<path d="M1192.62 419.266C1193.11 419.266 1195.59 424.216 1198.07 430.651C1200.55 437.086 1202.03 442.532 1201.04 442.532C1200.55 443.027 1198.07 438.076 1195.59 431.146C1193.11 424.711 1191.63 419.266 1192.62 419.266Z" fill="#FC6767"/>
<path d="M1183.7 370.262C1184.2 370.262 1185.19 375.707 1185.68 382.637C1186.18 389.567 1186.67 395.012 1186.18 395.012C1185.68 395.012 1183.7 389.567 1183.21 383.132C1182.71 376.202 1183.21 370.262 1183.7 370.262Z" fill="#FC6767"/>
<path d="M1188.16 321.256C1188.66 321.256 1188.16 326.701 1187.17 333.631C1186.18 340.561 1185.19 346.006 1184.69 345.511C1184.2 345.511 1183.7 340.066 1184.69 333.136C1185.68 326.206 1187.17 321.256 1188.16 321.256Z" fill="#FC6767"/>
<path d="M1204.02 274.726C1204.51 275.221 1202.53 280.171 1200.05 286.606C1197.57 293.041 1195.1 297.991 1194.6 297.496C1194.11 297.496 1195.1 291.556 1197.57 285.616C1200.55 278.686 1203.52 274.231 1204.02 274.726Z" fill="#FC6767"/>
<path d="M1231.76 233.641C1232.26 234.136 1228.79 238.591 1224.83 244.036C1220.86 249.481 1216.9 253.441 1216.4 253.441C1215.91 252.946 1218.38 247.996 1222.84 242.551C1227.3 236.611 1231.27 233.146 1231.76 233.641Z" fill="#FC6767"/>
<path d="M1268.92 200.971C1269.42 201.466 1264.96 204.931 1259.51 209.386C1254.06 213.346 1249.6 216.811 1249.1 216.316C1248.61 215.821 1252.57 211.861 1258.02 207.406C1263.47 202.951 1268.43 200.476 1268.92 200.971Z" fill="#FC6767"/>
<path d="M1313.02 178.696C1313.02 179.191 1308.07 181.666 1302.12 184.636C1295.68 187.111 1290.72 189.586 1290.23 188.596C1289.73 188.101 1294.69 184.636 1301.13 182.161C1307.57 179.191 1313.02 177.706 1313.02 178.696Z" fill="#FC6767"/>
<path d="M1349.19 169.291C1349.19 169.786 1346.71 171.271 1343.24 171.766C1339.78 172.261 1337.3 172.261 1336.8 171.766C1336.8 171.271 1339.28 169.786 1342.75 169.291C1346.22 168.796 1348.7 168.796 1349.19 169.291Z" fill="#FC6767"/>
<path d="M1450.27 23.7602C1450.27 23.7602 1508.24 -17.82 1589 8.9101C1589 8.9101 1595.44 75.7354 1531.03 128.701" fill="#F57081"/>
<path d="M1266.45 147.016C1268.92 150.481 1331.85 251.956 1331.85 251.956L1521.61 135.136C1554.81 114.841 1563.23 70.2905 1539.95 39.1054C1518.64 10.3953 1479 3.96027 1449.77 23.7604L1266.45 147.016Z" fill="#FC6767"/>
<path d="M1332.34 251.956L1327.88 323.236C1327.88 323.236 1450.76 263.836 1420.04 197.505L1332.34 251.956Z" fill="#D2F0FF"/>
<path d="M1354.64 87.615C1354.64 87.615 1271.4 50.9849 1202.53 104.94L1266.45 146.52L1354.64 87.615Z" fill="#D2F0FF"/>
<path d="M1354.14 147.016L1235.73 221.266C1235.73 221.266 1239.69 234.136 1243.16 233.146C1245.64 232.156 1334.82 179.686 1364.05 162.856C1369.01 159.886 1370 153.946 1366.53 149.491C1362.57 145.036 1357.61 144.541 1354.14 147.016Z" fill="#D2F0FF"/>
<path d="M1500.24 99.4072C1505.06 78.9167 1492.35 58.3981 1471.84 53.5775C1451.33 48.757 1430.79 61.46 1425.97 81.9505C1421.14 102.441 1433.86 122.96 1454.37 127.78C1474.88 132.601 1495.41 119.898 1500.24 99.4072Z" fill="#FAFAFA"/>
<path d="M1501.3 90.586C1500.81 90.586 1501.3 87.1209 1499.81 81.6759C1498.33 76.2309 1494.36 67.8159 1485.94 61.3808C1481.48 58.4108 1476.53 55.4408 1470.09 54.4508C1464.14 53.4608 1457.2 53.4608 1450.76 55.9358C1444.32 58.4108 1437.88 62.8659 1433.92 68.8059C1429.46 74.7459 1426.98 82.6659 1426.98 90.586C1426.98 98.506 1429.46 106.426 1433.92 112.366C1438.38 118.306 1444.32 122.761 1450.76 125.236C1457.2 127.711 1464.14 127.711 1470.09 126.721C1476.03 125.731 1481.48 123.256 1485.94 119.791C1494.36 113.356 1498.33 104.941 1499.81 99.496C1500.8 94.051 1500.81 90.586 1501.3 90.586C1501.3 90.586 1501.3 91.576 1501.3 93.061C1501.3 94.546 1501.3 97.021 1500.31 99.991C1498.82 105.931 1495.35 114.841 1486.44 121.276C1481.98 124.741 1476.53 127.711 1470.09 128.701C1463.64 129.691 1456.71 129.691 1449.77 127.216C1442.83 124.741 1436.39 120.286 1431.44 113.851C1426.48 107.416 1424.01 99.001 1424.01 90.586C1424.01 82.1709 1426.98 73.7559 1431.44 67.3209C1436.39 60.8858 1442.83 55.9358 1449.77 53.9558C1456.71 51.4808 1464.14 50.9858 1470.09 52.4708C1476.53 53.4608 1481.98 56.4308 1486.44 59.8958C1495.35 66.8259 1498.82 75.7359 1500.31 81.1809C1500.8 84.1509 1501.3 86.6259 1501.3 88.111C1501.3 89.596 1501.3 90.586 1501.3 90.586Z" fill="#999999"/>
<path d="M1547.38 115.83C1546.88 115.83 1546.39 108.405 1543.42 97.0201C1541.93 91.0801 1539.95 84.6451 1536.97 77.2201C1534 69.795 1530.04 62.37 1525.08 54.45C1520.13 47.025 1514.68 40.0949 1509.23 34.1549C1503.78 28.7099 1498.82 23.7599 1493.87 19.7998C1484.45 12.3748 1478.01 8.9098 1478.51 8.41479C1478.51 8.41479 1480.49 8.9098 1483.46 10.8898C1484.95 11.8798 1486.93 12.8698 1488.91 13.8598C1490.9 15.3448 1493.37 16.3348 1495.85 18.3148C1500.81 21.7798 1506.26 26.7299 1511.71 32.1749C1517.16 38.1149 1522.61 44.5499 1528.06 52.47C1533.01 60.39 1536.97 68.31 1539.95 75.7351C1542.92 83.1601 1544.9 90.0901 1545.89 96.0301C1546.39 99.0002 1546.88 101.475 1547.38 103.95C1547.88 106.425 1547.88 108.405 1547.88 109.89C1547.38 113.85 1547.38 115.83 1547.38 115.83Z" fill="#D3D3D3"/>
<path d="M1536.97 121.275C1536.48 121.275 1535.98 113.85 1533.01 101.97C1531.52 96.0303 1529.54 89.1003 1526.07 81.6753C1523.1 74.2502 1519.14 66.3302 1514.18 58.9052C1509.23 50.9852 1503.78 44.5501 1498.33 38.6101C1492.88 32.6701 1487.43 27.7201 1482.97 24.255C1473.55 16.83 1467.11 12.87 1467.11 12.375C1467.11 12.375 1469.09 12.87 1472.07 14.85C1473.55 15.84 1475.54 16.83 1477.52 17.82C1479.5 19.305 1481.98 20.79 1484.45 22.77C1489.41 26.2351 1494.86 31.1851 1500.81 37.1251C1506.26 43.0651 1512.2 49.9952 1517.16 57.9152C1522.11 65.8352 1526.07 73.7552 1529.05 81.1803C1532.02 88.6053 1534 95.5353 1535.49 101.97C1536.48 104.94 1536.48 107.91 1536.97 109.89C1537.47 112.365 1537.47 114.345 1537.47 116.325C1537.47 119.295 1537.47 121.275 1536.97 121.275Z" fill="#D3D3D3"/>
<g clip-path="url(#clip1)">
<path d="M1411.69 744.124C1411.69 744.124 1413.79 744.124 1416.94 745.882C1420.1 747.288 1424.65 750.451 1427.46 756.426C1428.86 759.238 1429.56 762.753 1429.56 766.62C1429.56 770.486 1428.51 774.352 1426.05 778.219C1425 779.976 1423.6 781.734 1421.85 783.14C1420.1 784.546 1418.34 785.952 1416.24 786.655C1412.04 788.764 1406.78 789.115 1402.22 788.061C1397.32 787.006 1393.11 784.194 1389.96 780.679C1388.56 778.922 1387.16 776.813 1386.45 775.055C1385.4 772.947 1385.05 770.838 1384.7 768.729C1384 764.511 1385.05 760.293 1386.45 756.778C1387.86 753.263 1390.31 750.451 1392.76 748.342C1397.67 744.124 1403.28 743.07 1406.78 743.07C1409.93 743.421 1411.69 744.124 1411.69 744.124C1411.69 744.124 1409.58 743.773 1406.08 743.773C1402.58 743.773 1397.32 745.179 1392.76 749.045C1390.31 751.154 1388.21 753.615 1386.81 757.129C1385.4 760.644 1384.7 764.511 1385.4 768.377C1385.75 770.486 1386.1 772.595 1387.16 774.352C1387.86 776.461 1389.26 778.219 1390.66 779.976C1393.46 783.491 1397.67 785.952 1402.22 787.006C1406.78 788.061 1411.69 787.358 1415.54 785.6C1417.64 784.897 1419.4 783.491 1421.15 782.085C1422.9 780.679 1424.3 779.273 1425.35 777.516C1427.46 774.001 1428.51 770.135 1428.86 766.62C1429.21 763.105 1428.16 759.59 1427.11 756.778C1424.65 751.154 1420.45 747.639 1417.29 746.233C1413.79 744.827 1411.69 744.476 1411.69 744.124Z" fill="#E0E0E0"/>
<path d="M1429.56 720.575C1429.56 720.575 1429.56 720.223 1429.56 719.872C1429.56 719.169 1429.56 718.466 1429.56 717.411C1429.56 715.302 1429.56 712.139 1429.56 707.921V708.272C1424.3 707.218 1417.64 705.812 1409.23 703.703L1409.58 703.351C1407.83 706.866 1406.08 710.733 1404.33 714.599V714.951H1403.98C1399.77 715.302 1395.22 716.005 1390.66 717.411H1390.31L1389.96 717.06C1387.16 714.248 1384.35 711.436 1381.2 708.272H1381.9C1376.29 711.787 1370.68 715.654 1364.38 719.52L1364.73 718.817C1366.13 722.332 1367.53 726.55 1368.93 730.768V731.119V731.471C1366.13 734.634 1363.33 738.149 1361.22 742.367V742.718H1360.87C1357.02 742.718 1352.81 742.718 1348.26 742.718L1348.96 742.367C1347.21 748.694 1345.8 755.724 1344.4 762.753L1344.05 762.05C1347.56 763.808 1351.41 765.565 1355.27 767.323H1355.62V767.674C1355.62 771.892 1356.67 776.462 1358.07 780.679V781.031L1357.72 781.382C1354.92 784.194 1352.11 787.358 1348.96 790.17V789.467C1352.46 795.091 1356.32 801.066 1360.17 807.041L1359.47 806.69C1363.33 805.284 1367.18 803.878 1371.39 802.472H1371.74L1372.09 802.823C1375.24 805.635 1378.75 808.447 1382.95 810.556C1382.95 810.908 1382.6 809.853 1383.3 811.259V811.611V811.962V812.665V814.071V817.234C1383.3 819.343 1383.3 821.452 1383.3 823.561L1382.95 822.858C1389.61 824.264 1396.62 826.022 1403.28 827.428L1402.58 827.779C1404.33 823.913 1406.08 820.046 1407.83 816.531V816.18H1408.18C1412.74 816.18 1416.94 815.126 1421.15 814.071H1421.5L1421.85 814.423C1425 817.586 1427.81 820.398 1430.61 823.21H1429.91C1435.87 819.343 1441.82 815.829 1447.43 811.962L1447.08 812.665C1445.68 808.799 1444.28 804.581 1442.88 800.714V800.363L1443.23 800.011C1446.38 796.497 1448.83 792.982 1450.94 789.115V788.764H1451.29C1455.49 788.764 1459.7 788.764 1463.9 788.764L1463.55 789.115C1465.3 782.085 1466.71 775.407 1468.11 768.729L1468.46 769.432C1464.6 767.674 1460.75 765.917 1457.24 764.159H1456.89V763.808C1456.54 758.887 1455.84 754.669 1454.79 750.451V750.1L1455.14 749.748C1458.3 746.585 1461.1 743.773 1463.9 740.961V741.312C1459.7 734.634 1455.84 728.659 1453.04 723.738H1453.39C1448.83 725.495 1444.63 726.901 1441.47 727.956C1438.32 724.792 1435.17 723.035 1433.41 721.629C1432.36 720.926 1431.66 720.575 1431.31 720.223C1429.91 720.575 1429.56 720.575 1429.56 720.575C1429.56 720.575 1429.91 720.575 1430.26 720.926C1430.61 721.278 1431.66 721.629 1432.36 721.98C1434.47 723.035 1437.27 725.144 1440.42 727.956H1440.07C1443.23 726.901 1447.08 725.495 1451.99 723.738H1452.34V724.089C1455.49 729.01 1459 734.634 1463.55 741.664V742.015L1463.2 742.367C1460.4 745.179 1457.59 747.991 1454.44 751.154V750.803C1455.84 755.021 1456.54 759.239 1456.89 764.159L1456.54 763.808C1460.05 765.565 1463.9 767.323 1467.76 769.08H1468.11V769.432C1466.71 775.759 1465.3 782.437 1463.55 789.818V790.17H1463.2C1459 790.17 1455.14 790.17 1450.59 790.17L1450.94 789.818C1448.83 793.685 1446.38 797.551 1443.23 801.066V800.363C1444.63 804.229 1446.03 808.096 1447.43 812.314V812.665L1447.08 813.017C1441.47 816.531 1435.52 820.398 1429.56 824.264L1429.21 824.616L1428.86 824.264C1426.05 821.452 1422.9 818.289 1420.1 815.477H1420.8C1416.59 816.883 1412.04 817.586 1407.48 817.937L1408.18 817.586C1406.43 821.452 1404.68 824.967 1402.93 828.834L1402.58 829.185H1402.22C1395.57 827.779 1388.91 826.022 1381.9 824.616H1381.55V824.264C1381.55 822.155 1381.55 820.046 1381.55 817.937V814.774V813.368V812.665V812.314V811.962C1382.25 813.017 1381.9 812.314 1381.9 812.665C1378.04 809.502 1374.19 806.69 1371.04 803.878H1371.74C1367.53 805.284 1363.68 806.69 1359.82 808.096H1359.47L1359.12 807.744C1355.27 801.769 1351.41 795.794 1347.91 790.17L1347.56 789.818L1347.91 789.467C1351.06 786.303 1353.86 783.491 1356.67 780.679V781.382C1355.27 776.813 1354.56 772.244 1354.21 768.026L1354.56 768.377C1350.71 766.62 1346.85 764.511 1343.35 763.105L1343 762.753V762.402C1344.75 755.372 1346.15 748.342 1347.56 742.015V741.664H1347.91C1352.11 741.664 1356.67 741.664 1360.52 741.664L1360.17 742.015C1362.27 737.798 1365.08 733.931 1367.88 730.768V731.471C1366.48 727.253 1365.08 723.035 1363.68 719.52V719.169L1364.03 718.817C1370.33 714.951 1375.94 711.084 1381.55 707.921L1381.9 707.569L1382.25 707.921C1385.4 711.084 1388.21 713.896 1391.01 716.708H1390.66C1395.22 715.302 1399.77 714.599 1403.98 714.248L1403.63 714.599C1405.73 710.381 1407.48 706.866 1408.88 703.351V703H1409.23C1417.29 704.757 1424.3 706.515 1429.56 707.569C1429.56 711.436 1429.56 714.599 1429.56 716.708C1429.56 717.763 1429.56 718.466 1429.56 719.169C1429.56 720.223 1429.56 720.575 1429.56 720.575Z" fill="#E0E0E0"/>
</g>
<g clip-path="url(#clip2)">
<path d="M1113.28 1096.4H1095V1155H1113.28V1096.4Z" fill="#E8505B"/>
<path d="M1146.71 1072.18H1128.43V1155H1146.71V1072.18Z" fill="#E8505B"/>
<path d="M1182.48 1060.98H1164.2V1155H1182.48V1060.98Z" fill="#E8505B"/>
<path d="M1218 1049H1199.72V1155H1218V1049Z" fill="#E8505B"/>
</g>
</g>
<g clip-path="url(#clip3)">
<path d="M941.737 1163.99C957.322 1159.9 968.825 1143.93 968.082 1127.95C967.711 1120.52 964.743 1113.46 965.114 1106.41C965.485 1095.26 972.906 1085.6 978.843 1075.94C984.409 1066.28 988.12 1053.28 981.812 1043.99C977.73 1038.05 969.938 1035.45 964.743 1030.25C959.548 1025.05 957.322 1017.99 954.724 1011.3C952.127 1004.62 948.416 997.928 942.108 994.213C935.8 990.498 926.153 992.356 923.926 999.043" fill="#263238"/>
<path d="M874.205 980.839C885.336 973.781 887.934 957.435 881.997 945.547C876.06 933.659 863.073 926.6 850.086 924.743C831.162 921.771 811.124 928.458 797.766 942.203C790.716 949.633 784.779 959.292 775.132 962.636C766.597 965.608 756.95 963.007 748.044 964.122C736.17 965.608 725.781 974.152 719.473 984.554C713.165 994.956 710.938 1007.22 709.454 1019.1C707.97 1030.25 707.228 1042.51 699.435 1050.31C692.014 1058.11 680.14 1059.97 670.864 1065.54C653.424 1075.94 647.858 1102.32 659.361 1119.04C663.071 1124.24 668.266 1129.44 668.637 1135.75C669.008 1141.7 665.298 1146.9 663.442 1152.84C658.99 1167.33 670.864 1184.79 686.077 1185.54C693.869 1185.91 702.033 1182.94 709.083 1186.28C716.133 1189.62 718.359 1198.17 722.812 1204.48C731.346 1216.74 749.528 1221.57 763.258 1214.88C768.824 1211.91 774.389 1207.45 780.698 1207.83C787.006 1208.2 791.829 1213.77 798.137 1214.88C806.301 1216.37 814.093 1210.43 818.917 1203.74C823.74 1197.05 827.08 1189.25 833.388 1183.68C841.551 1176.62 852.683 1174.76 863.073 1171.05C885.708 1163.25 904.632 1145.41 913.537 1123.12C922.442 1100.83 921.329 1074.83 910.569 1053.65" fill="#263238"/>
<path d="M898.694 995.327C907.971 996.442 914.65 1004.24 914.65 1013.53L903.889 1253.89C903.518 1282.13 861.96 1298.1 831.533 1297.36C800.735 1296.61 799.992 1281.75 799.621 1254.63C798.879 1209.68 798.879 1192.59 798.879 1192.97C798.879 1192.97 760.289 1186.28 752.126 1135.75C748.044 1110.49 749.528 1069.26 751.755 1035.82C753.61 1005.36 774.018 968.208 804.074 971.551L898.694 995.327Z" fill="#FFBE9D"/>
<path d="M763.258 1068.51C763.258 1071.86 765.855 1074.83 769.566 1075.2C773.277 1075.57 776.245 1072.97 776.245 1069.26C776.245 1065.91 773.648 1062.94 769.937 1062.57C766.226 1062.2 763.258 1064.8 763.258 1068.51Z" fill="#263238"/>
<path d="M761.032 1057C761.774 1057.74 766.597 1054.4 773.648 1054.4C780.698 1054.4 785.893 1058.11 786.635 1057C787.006 1056.62 786.264 1055.14 784.037 1053.28C781.811 1051.8 778.1 1049.94 773.648 1049.94C769.195 1049.94 765.484 1051.42 763.629 1053.28C761.403 1055.14 760.66 1056.62 761.032 1057Z" fill="#263238"/>
<path d="M832.645 1068.51C832.645 1071.86 835.242 1074.83 838.953 1075.2C842.664 1075.57 845.632 1072.97 845.632 1069.26C845.632 1065.91 843.035 1062.94 839.324 1062.57C835.985 1062.2 832.645 1064.8 832.645 1068.51Z" fill="#263238"/>
<path d="M829.306 1058.48C830.048 1059.23 834.872 1055.88 841.922 1055.88C848.972 1055.88 854.167 1059.6 854.909 1058.48C855.28 1058.11 854.538 1056.62 852.312 1054.77C850.085 1053.28 846.375 1051.42 841.922 1051.42C837.469 1051.42 833.759 1052.91 831.903 1054.77C829.677 1056.62 828.935 1058.11 829.306 1058.48Z" fill="#263238"/>
<path d="M804.075 1110.12C804.075 1109.75 799.622 1109.01 792.572 1107.89C790.716 1107.52 789.232 1107.52 788.861 1106.03C788.49 1104.92 789.232 1102.69 789.974 1100.83C791.83 1096.38 793.314 1091.92 795.169 1087.09C802.59 1067.77 807.785 1051.8 807.043 1051.8C806.301 1051.42 799.622 1067.03 792.201 1086.35C790.345 1091.17 788.861 1095.63 787.006 1100.09C786.264 1101.95 785.151 1104.55 785.893 1107.15C786.264 1108.64 787.748 1109.38 788.861 1109.75C789.974 1110.12 791.088 1110.12 791.83 1110.12C799.622 1110.49 804.075 1110.49 804.075 1110.12Z" fill="#263238"/>
<path d="M799.251 1192.97C799.251 1192.97 833.389 1195.19 866.784 1175.13C866.784 1175.13 849.715 1210.8 799.251 1205.97V1192.97Z" fill="#EB996E"/>
<path d="M807.043 1127.21C809.64 1123.87 814.093 1122.01 818.175 1122.38C821.143 1122.75 824.112 1124.24 825.967 1126.47C827.822 1129.07 828.193 1132.41 826.338 1134.64C824.483 1137.24 820.401 1137.98 817.061 1136.87C813.722 1135.75 810.753 1133.9 808.156 1131.67C807.414 1130.92 806.672 1130.55 806.301 1129.44C806.301 1129.07 805.93 1127.95 807.043 1127.21Z" fill="#E8505B"/>
<path d="M824.482 1115.32C823.369 1115.32 823.369 1122.75 816.69 1128.32C810.382 1133.53 802.219 1132.78 802.219 1133.9C802.219 1134.27 804.074 1135.38 807.414 1135.38C810.753 1135.38 815.577 1134.27 819.659 1131.3C823.74 1127.95 825.224 1123.49 825.596 1120.52C825.967 1116.81 825.224 1114.95 824.482 1115.32Z" fill="#263238"/>
<path d="M826.337 1046.22C827.08 1048.08 834.13 1047.34 842.293 1048.08C850.456 1048.82 857.135 1051.42 858.249 1049.57C858.62 1048.82 857.507 1046.97 854.909 1045.11C852.312 1043.25 848.23 1041.39 843.035 1041.02C838.211 1040.65 833.759 1041.39 830.79 1042.51C827.451 1043.99 825.966 1045.48 826.337 1046.22Z" fill="#263238"/>
<path d="M763.628 1036.94C764.741 1038.42 769.565 1036.94 775.502 1036.94C781.439 1036.56 786.263 1038.05 787.376 1036.19C787.747 1035.45 787.005 1033.96 785.15 1032.48C782.923 1030.99 779.584 1029.88 775.502 1029.88C771.42 1029.88 768.081 1031.36 766.226 1033.22C763.628 1034.33 762.886 1036.19 763.628 1036.94Z" fill="#263238"/>
<path d="M865.299 978.982C876.802 971.18 892.015 967.465 905.373 971.552C918.731 975.267 929.863 987.526 930.605 1001.27C930.976 1010.19 926.895 1019.85 930.977 1027.65C934.687 1035.45 943.964 1038.42 950.643 1043.99C961.032 1052.54 964.001 1068.51 957.693 1080.4C952.127 1090.43 940.624 1097.86 939.511 1109.38C938.769 1120.15 947.674 1129.07 949.901 1139.84C952.498 1151.36 945.819 1163.62 936.542 1171.42C927.266 1179.22 915.763 1183.31 904.26 1187.39C895.355 1190.74 885.707 1193.71 876.431 1191.85C865.299 1189.25 857.136 1179.22 855.651 1168.08C854.167 1156.93 858.62 1145.79 866.041 1137.61C872.349 1130.55 881.625 1124.24 883.11 1114.95C885.707 1100.09 867.896 1088.2 869.009 1073.34C869.381 1065.54 874.946 1059.23 879.399 1052.91C883.852 1046.59 887.934 1038.79 884.965 1031.36C881.254 1022.08 869.009 1019.48 861.588 1012.79C855.28 1007.22 853.054 997.928 855.28 989.755C857.878 981.954 865.299 975.638 873.462 974.152" fill="#263238"/>
<path d="M870.865 967.465C870.865 977.496 866.413 987.526 858.62 994.213C850.828 1000.53 840.067 1003.5 830.049 1001.64C822.256 1000.16 813.722 996.442 807.043 1000.53C799.993 1004.99 799.622 1015.39 793.314 1020.96C784.408 1028.76 770.308 1021.33 758.805 1024.68C749.9 1027.28 744.705 1035.45 738.768 1042.51C732.831 1049.57 724.297 1056.25 715.391 1053.65C715.762 1045.85 716.504 1037.68 718.731 1030.25C720.957 1022.82 725.41 1015.39 732.089 1011.3C735.799 1009.07 739.881 1007.59 743.221 1004.62C750.642 998.671 752.126 988.641 756.579 980.468C762.516 970.066 773.648 962.636 785.521 961.15C795.54 960.035 805.559 963.007 815.206 960.778C822.256 958.921 828.564 954.463 835.986 952.977C850.086 950.376 863.073 960.407 873.463 970.437" fill="#263238"/>
<path d="M963.26 1088.57C962.889 1088.57 964.744 1086.72 964.373 1082.63C964.002 1078.92 961.033 1073.34 954.354 1071.11C951.015 1069.63 947.304 1068.88 943.222 1068.14C939.141 1067.03 934.688 1065.91 930.606 1062.94C926.525 1059.97 924.298 1054.77 923.927 1049.57C923.556 1044.37 924.298 1039.16 924.669 1033.59C924.669 1030.99 924.669 1028.39 924.298 1025.79C923.927 1023.19 922.814 1020.96 921.33 1019.1C918.361 1015.39 913.538 1013.53 909.085 1012.05C904.632 1010.56 900.179 1009.07 896.84 1006.84C893.129 1004.62 890.161 1002.01 887.563 999.414C882.74 994.213 880.142 988.641 878.658 984.926C877.916 983.068 877.545 981.582 877.545 980.468C877.174 979.353 877.174 978.982 877.174 978.982C877.174 978.982 877.916 981.211 879.4 984.554C880.884 988.269 883.853 993.099 888.677 998.3C893.5 1003.5 900.551 1007.96 909.827 1010.19C914.28 1011.67 919.475 1013.53 922.814 1017.62C924.298 1019.85 925.783 1022.45 926.154 1025.05C926.525 1027.65 926.525 1030.62 926.525 1033.22C926.154 1038.79 925.412 1043.99 925.783 1048.82C926.154 1053.65 928.009 1058.48 931.349 1061.08C935.059 1063.68 939.141 1065.17 943.222 1066.28C947.304 1067.4 951.015 1068.14 954.354 1069.63C957.694 1071.11 960.662 1072.97 962.146 1075.57C964.002 1077.8 964.744 1080.4 964.744 1082.63C964.744 1084.86 964.373 1086.35 964.002 1087.09C963.631 1088.2 963.26 1088.57 963.26 1088.57Z" fill="#455A64"/>
<path d="M665.668 1120.15C665.668 1120.15 665.297 1120.15 664.926 1119.78C664.555 1119.41 663.813 1119.04 663.071 1117.92C661.958 1115.69 661.587 1111.98 664.184 1107.89C665.297 1106.03 667.152 1103.81 669.75 1102.69C672.347 1101.2 674.945 1100.46 677.913 1099.35C680.882 1098.23 683.85 1096.75 686.448 1094.52C689.045 1092.29 690.529 1088.57 691.271 1084.86C692.013 1081.14 692.385 1077.06 693.127 1072.6C693.869 1068.14 694.982 1063.68 698.322 1059.97C704.258 1052.17 713.906 1048.08 720.956 1040.65C724.667 1036.94 727.264 1032.48 728.748 1027.28C730.604 1022.08 731.346 1016.87 732.459 1010.93C733.943 999.785 735.428 987.526 743.22 977.124C746.93 971.923 752.496 968.208 758.433 967.093C764.37 965.979 770.307 966.722 775.873 967.465C781.439 968.208 787.005 968.951 792.2 968.579C797.395 967.836 802.218 965.236 805.558 961.521C812.608 954.091 816.319 944.06 824.853 938.859C833.016 933.658 842.664 933.287 850.456 935.516C858.248 937.745 864.185 942.946 867.154 948.518C870.493 954.091 871.607 959.663 871.607 964.121C871.607 968.579 870.865 971.923 870.122 974.152C869.38 976.381 868.638 977.495 868.638 977.495C868.638 977.495 869.009 976.381 869.751 974.152C870.493 971.923 871.236 968.579 870.865 964.121C870.493 959.663 869.38 954.462 866.412 948.89C863.443 943.689 857.877 938.488 850.085 936.63C842.664 934.773 833.387 935.144 825.966 940.345C822.256 942.946 818.916 946.289 816.319 950.376C813.35 954.462 810.753 958.92 807.042 962.635C805.187 964.493 802.96 966.35 800.734 967.836C798.137 968.951 795.539 970.065 792.571 970.437C787.005 971.18 781.068 970.437 775.502 969.694C769.936 968.951 763.999 968.208 758.433 969.322C752.867 970.437 747.673 973.78 744.333 978.61C740.993 983.439 738.767 989.012 737.283 994.584C735.799 1000.16 735.056 1006.1 734.314 1011.67C733.572 1017.25 732.459 1022.82 730.604 1028.02C728.748 1033.22 726.151 1038.05 722.069 1042.14C714.277 1049.57 705.001 1053.65 699.435 1061.08C696.466 1064.8 695.353 1068.88 694.611 1072.97C693.869 1077.06 693.498 1081.52 692.756 1085.23C692.013 1089.32 690.158 1093.03 687.561 1095.26C684.963 1097.86 681.624 1098.98 678.655 1100.09C675.687 1101.2 673.089 1101.95 670.492 1103.43C668.266 1104.55 666.41 1106.41 665.297 1108.26C663.071 1111.98 663.071 1115.69 663.813 1117.55C664.555 1119.41 665.668 1119.78 665.668 1120.15Z" fill="#455A64"/>
<path d="M541.735 1468.25L631.531 1460.08C631.531 1460.08 686.819 1314.82 754.723 1279.53L798.88 1356.43L704.63 1533.63H520.213L541.735 1468.25Z" fill="#E8505B"/>
<path d="M576.986 1509.48C576.615 1509.11 579.954 1502.8 584.407 1495C588.86 1487.19 593.312 1481.25 593.683 1481.62C594.054 1481.99 590.715 1488.31 586.262 1496.11C581.809 1503.54 577.357 1509.48 576.986 1509.48Z" fill="#FAFAFA"/>
<path d="M640.436 1507.63C640.065 1508 635.241 1502.43 629.304 1495.37C623.738 1488.31 619.286 1482.36 620.028 1481.99C620.399 1481.62 625.223 1487.19 631.16 1494.25C636.726 1501.31 640.807 1507.26 640.436 1507.63Z" fill="#FAFAFA"/>
<path d="M651.569 1474.19C651.198 1474.19 650.456 1468.99 650.456 1462.3C650.456 1455.99 650.827 1450.42 651.569 1450.42C651.94 1450.42 652.682 1455.62 652.682 1462.3C652.682 1468.99 651.94 1474.19 651.569 1474.19Z" fill="#FAFAFA"/>
<path d="M620.028 1526.2C619.657 1526.57 615.947 1524.72 611.494 1521.74C607.041 1518.77 603.702 1516.17 604.073 1515.8C604.444 1515.43 608.154 1517.29 612.607 1520.26C617.06 1523.23 620.399 1525.83 620.028 1526.2Z" fill="#FAFAFA"/>
<path d="M671.607 1392.46C671.978 1392.83 669.38 1399.89 665.299 1408.81C661.217 1417.72 657.877 1424.41 657.506 1424.04C657.135 1423.67 659.733 1416.61 663.814 1407.69C667.525 1399.15 670.864 1392.46 671.607 1392.46Z" fill="#FAFAFA"/>
<path d="M707.969 1333.76C708.34 1334.14 705.001 1337.11 700.919 1340.45C696.466 1343.8 692.756 1346.02 692.756 1345.65C692.385 1345.28 695.724 1342.31 699.806 1338.97C703.888 1335.62 707.598 1333.39 707.969 1333.76Z" fill="#FAFAFA"/>
<path d="M856.842 1494.36L903.225 1307.5C911.388 1274.81 943.299 1254.38 975.953 1260.32C1009.72 1266.26 1032.72 1298.58 1027.53 1332.76L999.329 1515.54C992.279 1553.8 961.852 1583.52 923.633 1589.47L886.898 1595.04L856.842 1494.36Z" fill="#FC6767"/>
<path d="M987.379 1275.81C987.008 1276.18 982.184 1270.24 971.052 1267.64C965.486 1266.52 958.436 1266.15 951.015 1267.64C943.594 1269.5 936.173 1273.21 929.493 1278.78C915.764 1290.3 908.714 1304.79 903.519 1315.19C900.922 1320.39 899.067 1324.85 897.953 1327.82C896.469 1330.79 895.727 1332.28 895.727 1332.28C895.727 1332.28 896.098 1330.42 897.211 1327.45C898.324 1324.48 900.18 1320.02 902.406 1314.45C904.632 1309.25 907.601 1302.93 912.054 1296.24C916.135 1289.56 921.701 1282.87 928.38 1276.93C935.43 1270.98 943.223 1267.27 951.015 1265.41C958.807 1263.55 965.857 1264.29 971.794 1265.78C977.36 1267.27 981.813 1269.87 984.41 1271.72C985.524 1272.84 986.637 1273.58 987.379 1274.32C987.379 1275.44 987.379 1275.81 987.379 1275.81Z" fill="#263238"/>
<path d="M725.781 1318.16C725.781 1318.16 725.41 1318.9 724.668 1320.02C723.555 1321.13 722.442 1322.99 720.586 1324.85C717.247 1328.94 712.423 1334.88 706.857 1342.68C695.725 1358.28 681.996 1381.32 675.317 1409.92C669.009 1438.53 668.638 1465.28 667.525 1484.22C667.154 1493.88 666.783 1501.68 666.04 1506.88C665.669 1509.48 665.669 1511.34 665.669 1513.2C665.669 1514.69 665.298 1515.43 665.298 1515.43C665.298 1515.43 665.298 1514.69 665.298 1513.2C665.298 1511.71 665.298 1509.48 665.298 1506.88C665.298 1501.31 665.669 1493.51 666.04 1484.22C666.783 1465.28 666.783 1438.16 673.462 1409.55C680.141 1380.57 694.241 1357.54 705.744 1341.94C711.31 1334.14 716.505 1328.19 720.215 1324.48C722.071 1322.62 723.555 1321.13 724.297 1320.02C725.039 1318.53 725.781 1318.16 725.781 1318.16Z" fill="#263238"/>
<path d="M1021.89 1317.79C1016.69 1284.36 998.51 1276.18 979.215 1265.78C972.907 1262.44 942.851 1254.64 919.103 1248.69C916.877 1234.2 912.795 1208.2 911.682 1203C910.569 1195.2 789.974 1214.51 788.49 1217.49C787.377 1219.34 784.779 1249.43 782.924 1269.5L753.981 1279.53L716.504 1327.45L696.838 1355.31C685.335 1371.29 676.801 1389.49 672.719 1408.81C667.895 1429.98 667.153 1450.79 667.153 1473.45L661.216 1596.04H932.461V1542.92L997.397 1454.5C1003.33 1418.47 1028.19 1358.66 1021.89 1317.79Z" fill="#FC6767"/>
<path d="M807.043 1273.21C806.672 1273.21 806.301 1269.87 805.188 1264.67C804.446 1259.46 803.333 1252.03 802.591 1243.86C802.22 1239.78 801.849 1236.06 801.477 1232.35C801.106 1229 800.735 1225.66 800.735 1223.06C800.735 1220.46 801.477 1218.23 802.591 1216.74C803.704 1215.63 804.446 1215.26 804.446 1215.26C804.446 1215.26 804.075 1216 803.333 1217.11C802.591 1218.23 802.22 1220.46 802.22 1223.06C802.22 1225.66 802.962 1228.63 803.333 1232.35C803.704 1236.06 804.075 1239.78 804.817 1243.86C805.93 1252.03 806.672 1259.46 807.043 1264.67C807.043 1269.87 807.414 1273.21 807.043 1273.21Z" fill="#263238"/>
<path d="M839.325 1265.41C838.954 1265.41 837.841 1262.44 836.728 1257.61C835.244 1252.78 834.13 1245.72 833.388 1237.92C832.646 1230.12 832.646 1223.06 833.017 1217.86C833.388 1212.66 834.13 1209.68 834.13 1209.68C834.873 1209.68 833.759 1222.31 835.244 1237.55C836.357 1253.15 839.696 1265.41 839.325 1265.41Z" fill="#263238"/>
<path d="M898.694 1256.86C897.952 1256.86 900.549 1244.23 897.952 1229C895.354 1213.77 888.675 1203 889.418 1202.62C889.789 1202.62 891.644 1204.85 893.87 1209.68C896.097 1214.14 898.694 1220.83 900.178 1228.63C901.662 1236.43 901.291 1243.49 900.92 1248.69C900.178 1253.89 899.065 1256.86 898.694 1256.86Z" fill="#263238"/>
<path d="M728.007 1366.09C727.636 1365.71 731.717 1358.66 738.025 1350.48C743.962 1342.31 749.899 1336.37 750.27 1336.74C750.641 1337.11 745.818 1343.8 739.51 1351.6C733.202 1359.77 728.378 1366.46 728.007 1366.09Z" fill="#FAFAFA"/>
<path d="M784.779 1320.02C784.408 1320.39 779.955 1315.19 774.76 1308.5C769.565 1301.82 765.855 1296.24 766.226 1295.87C766.597 1295.5 771.05 1300.7 776.244 1307.39C781.439 1314.08 785.15 1319.65 784.779 1320.02Z" fill="#FAFAFA"/>
<path d="M843.778 1291.04C844.149 1291.41 838.583 1296.61 831.904 1302.93C825.225 1309.25 820.03 1314.82 819.659 1314.45C819.288 1314.07 823.741 1308.13 830.42 1301.44C837.47 1295.13 843.407 1290.67 843.778 1291.04Z" fill="#FAFAFA"/>
<path d="M827.08 1255.75C826.709 1256.12 822.627 1253.15 817.803 1248.69C812.98 1244.23 809.64 1240.52 810.011 1240.15C810.382 1239.77 814.464 1242.75 819.288 1247.2C824.111 1251.29 827.451 1255.38 827.08 1255.75Z" fill="#FAFAFA"/>
<path d="M879.028 1227.89C879.028 1228.26 873.462 1230.12 866.412 1231.6C859.362 1233.09 853.796 1233.83 853.425 1233.46C853.425 1233.09 858.991 1231.23 866.041 1229.74C873.462 1228.26 879.028 1227.52 879.028 1227.89Z" fill="#FAFAFA"/>
<path d="M889.418 1310.36C889.047 1310.36 888.305 1304.42 887.934 1297.36C887.563 1290.3 887.563 1284.35 888.305 1284.35C888.676 1284.35 889.418 1290.3 889.789 1297.36C890.16 1304.42 890.16 1309.99 889.418 1310.36Z" fill="#FAFAFA"/>
<path d="M870.494 1349.74C870.123 1349.74 867.154 1343.05 863.815 1334.88C860.846 1326.33 858.62 1319.28 858.991 1319.28C859.362 1319.28 862.331 1325.96 865.67 1334.14C869.01 1342.68 871.236 1349.74 870.494 1349.74Z" fill="#FAFAFA"/>
<path d="M819.288 1377.6C818.917 1377.97 815.577 1370.91 812.238 1362C808.898 1353.08 806.301 1345.65 807.043 1345.65C807.414 1345.28 810.754 1352.34 814.093 1361.26C817.433 1370.17 819.659 1377.6 819.288 1377.6Z" fill="#FAFAFA"/>
<path d="M770.679 1409.18C770.308 1409.18 768.452 1402.49 766.597 1393.58C764.742 1385.03 763.629 1377.6 764.371 1377.6C764.742 1377.6 766.597 1384.29 768.452 1393.2C770.308 1402.12 771.421 1409.18 770.679 1409.18Z" fill="#FAFAFA"/>
<path d="M713.165 1410.67C712.793 1411.04 709.083 1404.72 705.372 1396.92C701.662 1389.12 698.693 1382.43 699.435 1382.43C699.806 1382.06 703.517 1388.38 707.228 1396.18C710.938 1403.61 713.907 1410.29 713.165 1410.67Z" fill="#FAFAFA"/>
<path d="M712.052 1447.44C712.423 1447.82 705.373 1451.9 696.838 1455.99C688.304 1460.07 681.254 1463.42 680.883 1462.68C680.512 1462.3 687.562 1458.22 696.096 1454.13C704.631 1450.04 711.681 1447.07 712.052 1447.44Z" fill="#FAFAFA"/>
<path d="M712.794 1505.77C712.423 1506.14 709.454 1499.83 707.599 1492.4C705.372 1484.59 705.001 1478.28 705.372 1477.91C705.743 1477.91 707.228 1484.22 709.454 1491.65C711.309 1499.45 713.165 1505.77 712.794 1505.77Z" fill="#FAFAFA"/>
<path d="M700.92 1547.01C700.549 1547.38 694.983 1542.92 688.675 1537.35C682.367 1531.4 677.543 1526.57 677.914 1526.2C678.285 1525.83 683.851 1530.29 690.159 1535.86C696.467 1541.43 701.291 1546.63 700.92 1547.01Z" fill="#FAFAFA"/>
<path d="M776.616 1518.77C776.616 1519.14 768.082 1521.74 758.434 1526.2C748.415 1530.66 740.994 1535.12 740.623 1534.75C740.252 1534.37 747.673 1528.8 757.692 1524.34C767.711 1519.89 776.616 1518.4 776.616 1518.77Z" fill="#FAFAFA"/>
<path d="M754.353 1498.71C753.982 1498.71 751.384 1493.14 748.787 1486.08C746.19 1479.02 744.705 1473.08 745.076 1472.71C745.448 1472.71 748.045 1478.28 750.642 1485.34C753.24 1492.4 755.095 1498.34 754.353 1498.71Z" fill="#FAFAFA"/>
<path d="M799.621 1448.19C799.992 1448.56 795.54 1456.36 789.603 1466.02C783.666 1475.68 778.1 1483.11 777.729 1483.11C777.358 1482.74 781.81 1474.93 787.747 1465.28C793.684 1455.62 798.879 1448.19 799.621 1448.19Z" fill="#FAFAFA"/>
<path d="M847.86 1453.02C847.489 1453.39 841.552 1445.96 835.615 1436.3C829.678 1426.27 825.967 1417.72 826.709 1417.35C827.08 1416.98 831.533 1425.53 837.47 1435.18C843.036 1445.21 848.231 1452.64 847.86 1453.02Z" fill="#FAFAFA"/>
<path d="M876.802 1405.46C876.802 1405.84 870.494 1407.69 862.702 1408.07C854.91 1408.44 848.23 1407.32 848.23 1406.95C848.23 1406.58 854.538 1406.58 862.331 1406.21C870.123 1405.46 876.431 1404.72 876.802 1405.46Z" fill="#FAFAFA"/>
<path d="M945.448 1351.23C945.819 1351.6 937.656 1356.05 927.266 1360.88C916.877 1365.71 908.342 1369.43 908.342 1369.06C907.971 1368.69 916.134 1364.23 926.524 1359.4C936.543 1354.2 945.077 1350.48 945.448 1351.23Z" fill="#FAFAFA"/>
<path d="M949.901 1316.68C949.53 1316.3 952.498 1309.62 956.58 1301.44C960.662 1293.27 964.372 1286.58 964.743 1286.96C965.114 1287.33 962.146 1294.01 958.064 1302.19C953.983 1310.36 950.272 1316.68 949.901 1316.68Z" fill="#FAFAFA"/>
<path d="M993.687 1343.8C993.316 1343.8 991.089 1336.37 988.121 1327.08C985.152 1317.79 982.555 1310.36 983.297 1309.99C983.668 1309.62 987.008 1317.05 989.976 1326.33C992.574 1335.62 994.058 1343.42 993.687 1343.8Z" fill="#FAFAFA"/>
<path d="M1000.37 1379.46C1000.37 1379.83 993.315 1383.17 984.038 1385.4C974.762 1387.63 966.97 1388.38 966.97 1388C966.97 1387.63 974.391 1385.77 983.667 1383.55C992.944 1381.32 1000.37 1379.09 1000.37 1379.46Z" fill="#FAFAFA"/>
<path d="M925.782 1423.67C925.04 1423.67 926.896 1414.38 927.267 1403.24C927.638 1392.09 926.896 1382.8 927.638 1382.8C928.009 1382.8 929.864 1391.72 929.493 1403.24C928.38 1414.75 926.153 1423.67 925.782 1423.67Z" fill="#FAFAFA"/>
<path d="M910.569 1468.62C910.198 1468.99 903.518 1463.42 896.839 1455.25C890.16 1447.07 885.708 1439.64 886.45 1439.27C886.821 1438.9 891.645 1445.96 898.324 1453.76C905.374 1462.3 910.94 1468.25 910.569 1468.62Z" fill="#FAFAFA"/>
<path d="M985.523 1459.33C985.894 1459.7 978.844 1463.05 969.939 1466.76C961.033 1470.48 953.983 1473.08 953.612 1472.33C953.241 1471.96 960.291 1468.62 969.197 1464.9C978.102 1461.19 985.523 1458.59 985.523 1459.33Z" fill="#FAFAFA"/>
<path d="M958.807 1544.4C958.436 1544.4 958.064 1535.12 958.064 1523.97C958.064 1512.83 958.807 1503.54 959.178 1503.54C959.549 1503.54 959.92 1512.83 959.92 1523.97C959.92 1535.12 959.178 1544.4 958.807 1544.4Z" fill="#FAFAFA"/>
<path d="M901.292 1539.2C900.921 1539.2 901.663 1529.55 904.632 1518.03C907.6 1506.51 911.311 1497.6 911.682 1497.97C912.053 1498.34 909.456 1507.26 906.487 1518.4C903.519 1530.29 901.663 1539.58 901.292 1539.2Z" fill="#FAFAFA"/>
<path d="M903.889 1561.49C903.889 1562.24 894.613 1562.98 883.481 1564.84C872.349 1566.7 863.073 1568.92 863.073 1568.18C863.073 1567.81 871.978 1564.84 883.11 1562.98C894.613 1561.12 903.889 1561.12 903.889 1561.49Z" fill="#FAFAFA"/>
<path d="M840.068 1547.38C839.697 1547.01 844.521 1541.43 851.2 1534.75C857.508 1528.06 863.074 1522.86 863.445 1523.23C863.816 1523.6 858.992 1529.17 852.313 1535.86C846.005 1542.55 840.439 1547.75 840.068 1547.38Z" fill="#FAFAFA"/>
<path d="M798.88 1587.5C798.509 1587.5 796.653 1580.81 793.685 1573.01C790.716 1565.21 788.119 1558.89 788.49 1558.52C788.861 1558.15 792.572 1564.09 795.54 1572.27C798.509 1580.44 799.622 1587.5 798.88 1587.5Z" fill="#FAFAFA"/>
<path d="M865.671 1610.53C865.3 1610.9 857.137 1607.93 847.118 1603.47C837.099 1599.02 828.936 1594.93 829.307 1594.56C829.678 1594.19 837.841 1597.16 847.86 1601.62C857.879 1606.07 865.671 1610.16 865.671 1610.53Z" fill="#FAFAFA"/>
<path d="M749.529 1603.85C749.157 1603.85 750.642 1597.53 752.868 1590.1C755.466 1582.67 757.692 1577.1 758.063 1577.1C758.434 1577.1 756.95 1583.41 754.723 1590.84C752.497 1598.27 749.9 1603.85 749.529 1603.85Z" fill="#FAFAFA"/>
<path d="M825.967 1616.85C825.967 1617.59 815.207 1615.73 802.219 1614.99C789.232 1614.25 778.472 1614.99 778.472 1614.25C778.472 1613.88 789.232 1612.39 802.591 1613.13C815.578 1613.5 825.967 1616.1 825.967 1616.85Z" fill="#FAFAFA"/>
<path d="M841.923 1507.26C841.923 1507.26 841.923 1506.88 841.923 1505.77C841.923 1504.65 841.923 1503.54 842.665 1501.68C843.037 1499.82 844.15 1497.6 846.747 1496.11C848.973 1494.62 852.313 1493.88 855.653 1494.62L854.91 1495C858.992 1480.88 865.3 1460.07 871.979 1436.67C877.916 1414.75 881.998 1394.69 884.966 1380.2C886.45 1373.14 887.564 1367.2 888.306 1363.11C889.048 1359.03 889.79 1356.8 889.79 1356.8C889.79 1356.8 889.79 1359.03 889.048 1363.11C888.306 1367.2 887.564 1373.14 886.079 1380.57C883.482 1395.06 879.771 1415.49 873.463 1437.41C866.784 1460.82 860.105 1481.62 855.653 1495.74V1496.11H854.91C851.942 1495.37 848.602 1496.11 846.747 1497.22C844.521 1498.34 843.408 1500.57 843.036 1502.05C841.923 1505.03 841.923 1507.26 841.923 1507.26Z" fill="#263238"/>
<path d="M925.04 1558.89C924.669 1558.89 922.443 1554.06 917.619 1546.63C912.795 1539.2 905.374 1529.17 895.355 1520.26C885.337 1511.34 874.947 1504.65 867.155 1500.57C859.362 1496.48 854.167 1494.62 854.167 1494.62C854.167 1494.62 855.652 1495 857.878 1495.74C860.104 1496.48 863.815 1497.6 867.897 1499.45C876.06 1503.17 886.821 1509.48 896.839 1518.77C906.858 1528.06 914.279 1538.09 918.732 1545.89C920.958 1549.61 922.443 1552.95 923.556 1555.18C924.669 1557.41 925.04 1558.89 925.04 1558.89Z" fill="#263238"/>
<g opacity="0.2">
<path opacity="0.2" d="M856.394 1491.65C870.495 1492.77 882.369 1493.88 895.356 1498.71C908.714 1503.54 920.959 1513.2 925.783 1526.57C926.896 1529.92 927.638 1534 925.041 1536.23C923.185 1538.09 920.217 1538.09 917.99 1537.35C915.764 1536.6 913.538 1534.75 911.682 1533.26C903.519 1525.83 894.985 1519.14 886.45 1511.71C877.916 1504.28 865.671 1496.85 854.539 1495" fill="black"/>
</g>
<path d="M829.677 1467.88C829.677 1467.88 828.564 1468.99 825.967 1470.11C823.369 1471.22 819.659 1473.08 814.464 1474.56C804.445 1477.54 789.974 1479.02 774.389 1474.93C758.805 1470.85 746.931 1462.3 739.51 1454.87C735.799 1451.16 733.202 1447.81 731.718 1445.59C730.233 1443.36 729.491 1441.87 729.491 1441.87C729.862 1441.5 733.202 1447.07 740.623 1454.13C748.044 1461.19 759.918 1469.36 774.761 1473.08C789.603 1476.79 804.074 1475.68 814.093 1473.08C823.741 1470.85 829.306 1467.5 829.677 1467.88Z" fill="#263238"/>
<g opacity="0.2">
<path opacity="0.2" d="M731.346 1444.84C737.654 1458.59 745.075 1471.96 756.949 1481.25C763.628 1486.45 771.792 1490.91 780.326 1490.91C792.571 1491.28 803.332 1482.74 812.979 1474.56C782.181 1479.39 747.673 1465.65 731.346 1444.84Z" fill="black"/>
</g>
<path d="M868.639 1262.81C867.897 1262.81 868.639 1250.18 867.155 1234.57C865.671 1218.97 862.702 1206.71 863.073 1206.34C863.444 1206.34 864.558 1209.31 865.671 1214.14C866.784 1219.34 868.268 1226.03 869.01 1234.2C869.752 1242 869.752 1249.06 869.381 1254.26C869.381 1259.46 869.01 1262.81 868.639 1262.81Z" fill="#263238"/>
<path d="M513.516 1398.71L565.464 1569.23C566.207 1571.09 567.691 1572.58 569.917 1572.58L710.92 1583.35C713.517 1583.72 715.373 1585.58 715.373 1588.18V1597.1C715.373 1599.7 713.146 1601.93 710.178 1601.93L324.275 1594.5C322.42 1594.5 320.565 1593.38 319.823 1591.15L252.29 1413.57C251.176 1410.6 253.403 1406.89 256.742 1406.89L508.692 1395C510.919 1395 512.774 1396.49 513.516 1398.71Z" fill="#455A64"/>
<path d="M404.795 1471.9C402.198 1472.64 397.745 1476.36 397.003 1480.45C396.632 1484.53 398.487 1488.62 401.827 1491.22C405.908 1494.19 411.845 1494.56 415.927 1491.59C420.009 1488.62 421.864 1483.42 419.638 1477.47C418.524 1473.02 409.99 1469.67 404.795 1471.9Z" fill="#E0E0E0"/>
<path d="M400.703 1388.25C399.02 1387.19 397.349 1386.12 395.689 1385.02L397.589 1381.22C399.222 1382.3 400.871 1383.36 402.53 1384.41L400.703 1388.25Z" fill="#FC6767"/>
<path d="M487.393 1417.48C486.552 1417.47 485.715 1417.45 484.877 1417.41C481.95 1417.31 478.95 1417.09 475.966 1416.77L476.32 1412.41C479.228 1412.72 482.148 1412.93 484.995 1413.04C485.806 1413.07 486.617 1413.09 487.428 1413.1L487.393 1417.48ZM498.829 1417.06L498.543 1412.69C502.221 1412.37 505.932 1411.86 509.579 1411.16L510.199 1415.49C506.442 1416.2 502.616 1416.73 498.829 1417.06ZM464.637 1415.06C460.933 1414.34 457.172 1413.45 453.453 1412.42L454.344 1408.15C457.975 1409.16 461.652 1410.03 465.269 1410.73L464.637 1415.06ZM521.406 1412.72L520.439 1408.49C524.033 1407.4 527.596 1406.11 531.03 1404.66L532.347 1408.77C528.799 1410.28 525.118 1411.61 521.406 1412.72ZM442.459 1408.94C438.923 1407.69 435.295 1406.26 431.675 1404.71L433.007 1400.6C436.559 1402.13 440.118 1403.52 443.586 1404.75L442.459 1408.94ZM542.903 1403.58L541.228 1399.64C544.566 1397.76 547.817 1395.66 550.889 1393.42L552.93 1397.12C549.74 1399.45 546.363 1401.63 542.903 1403.58ZM421.111 1399.8C417.681 1398.08 414.209 1396.23 410.791 1394.29L412.47 1390.37C415.835 1392.27 419.253 1394.1 422.626 1395.78L421.111 1399.8ZM562.26 1389.37L559.85 1385.97C562.713 1383.28 565.442 1380.38 567.951 1377.34L570.711 1380.36C568.092 1383.53 565.248 1386.56 562.26 1389.37ZM578.058 1370.11L574.959 1367.56C577.08 1364.14 579.017 1360.5 580.715 1356.75L584.092 1358.78C582.306 1362.7 580.277 1366.51 578.058 1370.11ZM588.728 1346.62L585.15 1345.13C586.398 1341.15 587.415 1337.04 588.168 1332.93L591.895 1333.83C591.1 1338.15 590.038 1342.44 588.728 1346.62ZM593.471 1320.66L589.672 1320.38C589.775 1318.58 589.824 1316.77 589.824 1314.97C589.824 1312.54 589.729 1310.11 589.543 1307.74L593.334 1307.34C593.528 1309.84 593.631 1312.41 593.631 1314.97C593.631 1316.87 593.578 1318.76 593.471 1320.66ZM587.674 1295.3C586.745 1291.21 585.508 1287.22 583.989 1283.45L587.441 1281.61C589.052 1285.62 590.369 1289.85 591.355 1294.19L587.674 1295.3ZM578.56 1272.5C576.554 1269.11 574.247 1265.78 571.712 1262.61L574.51 1259.63C577.175 1262.97 579.592 1266.46 581.705 1270.02L578.56 1272.5ZM563.741 1253.79C561.088 1251.17 558.137 1248.52 554.982 1245.91L557.197 1242.35C560.444 1245.02 563.482 1247.75 566.223 1250.46L563.741 1253.79ZM545.697 1238.76C542.556 1236.47 539.344 1234.26 536.096 1232.08L538.015 1228.3C541.3 1230.51 544.551 1232.75 547.73 1235.05L545.697 1238.76ZM526.325 1225.62L527.265 1223.72L526.222 1225.55C522.979 1223.44 519.731 1221.31 516.507 1219.14L518.426 1215.36C521.635 1217.51 524.874 1219.63 528.102 1221.75L526.325 1225.62ZM506.777 1212.41C503.267 1209.88 500.157 1207.51 497.272 1205.16L499.468 1201.58C502.297 1203.88 505.346 1206.21 508.795 1208.7L506.777 1212.41ZM488.181 1197.16C485.144 1194.25 482.308 1191.24 479.75 1188.2L482.483 1185.15C484.946 1188.08 487.687 1190.98 490.618 1193.8L488.181 1197.16ZM472.285 1178.07C470.031 1174.53 467.964 1170.75 466.133 1166.82L469.49 1164.75C471.234 1168.49 473.206 1172.1 475.357 1175.48L472.285 1178.07ZM461.382 1154.72C460.046 1150.61 458.927 1146.34 458.051 1142.01L461.759 1141.02C462.6 1145.16 463.674 1149.25 464.949 1153.18L461.382 1154.72ZM456.129 1128.95C455.779 1125.15 455.6 1121.27 455.596 1117.42L455.607 1115.7L459.414 1115.77L459.403 1117.42C459.403 1121.12 459.574 1124.84 459.913 1128.48L456.129 1128.95ZM460.263 1103.09L456.494 1102.49C457.023 1098.09 457.796 1093.72 458.786 1089.49L462.463 1090.63C461.512 1094.69 460.773 1098.88 460.263 1103.09ZM466.007 1078.61L462.49 1076.93C463.971 1072.82 465.695 1068.8 467.618 1065.03L470.903 1067.24C469.068 1070.85 467.42 1074.67 466.007 1078.61ZM477.119 1056.78L474.142 1054.05C474.82 1053.06 475.513 1052.1 476.225 1051.16C477.976 1048.83 479.887 1046.5 481.897 1044.25L484.55 1047.39C482.616 1049.56 480.781 1051.79 479.099 1054.03C478.417 1054.93 477.762 1055.85 477.119 1056.78ZM492.875 1038.92L490.477 1035.51C493.168 1033.01 496.137 1030.42 499.56 1027.58L501.779 1031.15C498.414 1033.92 495.502 1036.46 492.875 1038.92ZM511.01 1023.78L508.875 1020.15L518.228 1012.88L520.371 1016.5L511.01 1023.78ZM529.659 1008.98L527.41 1005.44C530.699 1002.67 533.58 1000.09 536.214 997.541L538.658 1000.91C535.959 1003.51 533.017 1006.15 529.659 1008.98ZM547.033 991.826L544.258 988.827C546.805 985.698 549.176 982.406 551.301 979.031L554.384 981.608C552.161 985.128 549.69 988.569 547.033 991.826ZM560.494 970.312L557.121 968.274C558.88 964.417 560.307 960.511 561.369 956.672L564.997 958C563.87 962.085 562.355 966.227 560.494 970.312ZM567.308 944.802L563.512 944.442C563.604 943.145 563.653 941.847 563.653 940.541C563.653 937.67 563.417 934.834 562.949 932.108L566.683 931.262C567.197 934.264 567.46 937.385 567.46 940.541C567.46 941.97 567.411 943.386 567.308 944.802ZM559.352 920.527C557.73 917.021 555.61 913.641 553.055 910.481L555.842 907.491C558.617 910.928 560.928 914.619 562.709 918.463L559.352 920.527ZM544.863 902.183C542.134 899.873 539.089 897.616 535.56 895.301L537.444 891.492C541.102 893.899 544.266 896.24 547.121 898.659L544.863 902.183Z" fill="#FC6767"/>
<path d="M487.385 1071C476.813 1062.9 463.048 1062.9 452.477 1071L371.832 1132.78C368.817 1135.09 367.005 1138.98 367.005 1143.16V1286.78H572.857V1143.16C572.857 1138.98 571.045 1135.09 568.03 1132.78L487.385 1071Z" fill="#FC6767"/>
<path d="M572.856 1141.33L487.289 1219.53C476.637 1211.86 463.219 1211.86 452.567 1219.53L367 1141.32V1145.03L450.325 1221.19L367 1285.03V1286.78H369.28L453.173 1222.5C463.352 1214.71 476.504 1214.71 486.683 1222.5L570.572 1286.78H572.852V1285.03L489.527 1221.19L572.852 1145.03V1141.33H572.856Z" fill="white"/>
<path d="M452.571 1219.53C463.222 1211.86 476.64 1211.86 487.292 1219.53L551.644 1160.71V1074.92L524.582 1043.76H388.222V1160.71L452.571 1219.53Z" fill="white" stroke="white" stroke-width="0.588346" stroke-miterlimit="10"/>
<path d="M524.578 1074.92H551.64L524.578 1043.76V1074.92Z" fill="#D3D3D3" stroke="#D7DDEF" stroke-width="0.588346" stroke-miterlimit="10" stroke-linecap="round" stroke-linejoin="round"/>
<path d="M519.597 1096.05H419.777V1105.29H519.597V1096.05Z" fill="#D3D3D3" stroke="#D7DDEF" stroke-width="0.588346" stroke-miterlimit="10" stroke-linecap="round" stroke-linejoin="round"/>
<path d="M519.598 1112.97H419.778V1122.21H519.598V1112.97Z" fill="#D3D3D3" stroke="#D7DDEF" stroke-width="0.588346" stroke-miterlimit="10" stroke-linecap="round" stroke-linejoin="round"/>
<path d="M519.598 1129.9H419.778V1139.14H519.598V1129.9Z" fill="#D3D3D3" stroke="#D7DDEF" stroke-width="0.588346" stroke-miterlimit="10" stroke-linecap="round" stroke-linejoin="round"/>
<path d="M519.598 1146.83H419.778V1156.07H519.598V1146.83Z" fill="#D3D3D3" stroke="#D7DDEF" stroke-width="0.588346" stroke-miterlimit="10" stroke-linecap="round" stroke-linejoin="round"/>
<path d="M519.598 1163.75H419.778V1172.99H519.598V1163.75Z" fill="#D3D3D3" stroke="#D7DDEF" stroke-width="0.588346" stroke-miterlimit="10" stroke-linecap="round" stroke-linejoin="round"/>
<path d="M500.651 860.765L476.033 927.036L376.358 793L500.651 860.765ZM504.762 849.698L524.367 796.923L376.358 793L504.762 849.698Z" fill="#FC6767"/>
</g>
<g clip-path="url(#clip4)">
<path d="M1453.66 1057.54C1453.66 1057.54 1455.34 1057.54 1457.86 1058.94C1460.38 1060.06 1464.02 1062.58 1466.26 1067.34C1467.38 1069.58 1468.21 1072.37 1467.93 1075.45C1467.93 1078.53 1467.1 1081.61 1465.14 1084.69C1464.3 1086.09 1463.18 1087.49 1461.78 1088.61C1460.38 1089.73 1458.98 1090.85 1457.3 1091.41C1453.94 1093.09 1449.74 1093.37 1446.11 1092.53C1441.91 1091.69 1438.27 1089.73 1436.03 1086.93C1434.91 1085.53 1433.79 1083.85 1433.23 1082.45C1432.39 1080.77 1432.11 1079.09 1431.83 1077.41C1431.27 1074.05 1432.11 1070.69 1433.23 1067.9C1434.35 1065.1 1436.31 1062.86 1438.27 1061.18C1442.19 1057.82 1446.66 1056.98 1449.46 1056.98C1451.98 1056.98 1453.66 1057.54 1453.66 1057.54C1453.66 1057.54 1451.98 1057.26 1449.18 1057.26C1446.39 1057.26 1442.19 1058.38 1438.55 1061.46C1436.59 1063.14 1434.91 1065.1 1433.79 1067.9C1432.67 1070.69 1432.11 1073.77 1432.67 1076.85C1432.95 1078.53 1433.23 1080.21 1434.07 1081.61C1434.63 1083.29 1435.75 1084.69 1436.87 1086.09C1439.11 1088.89 1442.47 1090.85 1446.11 1091.69C1449.74 1092.53 1453.66 1091.97 1456.74 1090.57C1458.42 1090.01 1459.82 1088.89 1461.22 1087.77C1462.62 1086.65 1463.74 1085.53 1464.58 1084.13C1466.26 1081.33 1467.1 1078.25 1467.38 1075.45C1467.66 1072.65 1466.82 1069.86 1465.98 1067.62C1464.02 1063.14 1460.66 1060.34 1458.14 1059.22C1455.06 1057.82 1453.38 1057.54 1453.66 1057.54Z" fill="#999999"/>
<path d="M1467.66 1038.5C1467.66 1038.5 1467.66 1038.22 1467.66 1037.94C1467.66 1037.38 1467.66 1036.82 1467.66 1035.98C1467.66 1034.3 1467.66 1031.79 1467.66 1028.43V1028.71C1463.46 1027.87 1458.14 1026.75 1451.42 1025.07L1451.7 1024.79C1450.3 1027.59 1448.9 1030.67 1447.5 1033.75V1034.02H1447.23C1443.87 1034.3 1440.23 1034.86 1436.59 1035.98H1436.31L1436.03 1035.7C1433.79 1033.47 1431.55 1031.23 1429.03 1028.71H1429.59C1425.12 1031.51 1420.64 1034.58 1415.6 1037.66L1415.88 1037.1C1417 1039.9 1418.12 1043.26 1419.24 1046.62V1046.9L1418.96 1047.18C1416.72 1049.7 1414.48 1052.5 1412.8 1055.86V1056.14H1412.52C1409.44 1056.14 1406.08 1056.14 1402.45 1056.14L1403.01 1055.86C1401.89 1060.9 1400.77 1066.5 1399.37 1072.09L1399.09 1071.53C1401.89 1072.93 1404.97 1074.33 1408.04 1075.73H1408.32V1076.01C1408.32 1079.37 1409.16 1083.01 1410.28 1086.37V1086.65L1410 1086.93C1407.76 1089.17 1405.52 1091.69 1403.01 1093.93V1093.37C1405.8 1097.85 1408.88 1102.61 1411.96 1107.36L1411.4 1107.08C1414.48 1105.97 1417.56 1104.85 1420.92 1103.73H1421.2L1421.48 1104.01C1424 1106.25 1426.79 1108.48 1430.15 1110.16C1430.15 1110.44 1429.87 1109.6 1430.43 1110.72V1111V1111.28V1111.84V1112.96V1115.48C1430.43 1117.16 1430.43 1118.84 1430.43 1120.52L1430.15 1119.96C1435.47 1121.08 1441.07 1122.48 1446.39 1123.6L1445.83 1123.88C1447.23 1120.8 1448.62 1117.72 1450.02 1114.92V1114.64H1450.3C1453.94 1114.64 1457.3 1113.8 1460.66 1112.96H1460.94L1461.22 1113.24C1463.74 1115.76 1465.98 1118 1468.22 1120.24H1467.66C1472.41 1117.16 1477.17 1114.36 1481.65 1111.28L1481.37 1111.84C1480.25 1108.76 1479.13 1105.41 1478.01 1102.33V1102.05L1478.29 1101.77C1480.81 1098.97 1482.77 1096.17 1484.45 1093.09V1092.81H1484.73C1488.09 1092.81 1491.44 1092.81 1494.8 1092.81L1494.52 1093.09C1495.92 1087.49 1497.04 1082.17 1498.16 1076.85L1498.44 1077.41C1495.36 1076.01 1492.28 1074.61 1489.49 1073.21H1489.21V1072.93C1488.93 1069.02 1488.37 1065.66 1487.53 1062.3V1062.02L1487.81 1061.74C1490.32 1059.22 1492.56 1056.98 1494.8 1054.74V1055.02C1491.44 1049.7 1488.37 1044.94 1486.13 1041.02H1486.41C1482.77 1042.42 1479.41 1043.54 1476.89 1044.38C1474.37 1041.86 1471.85 1040.46 1470.45 1039.34C1469.61 1038.78 1469.05 1038.5 1468.77 1038.22C1467.94 1038.78 1467.66 1038.5 1467.66 1038.5C1467.66 1038.5 1467.94 1038.5 1468.22 1038.78C1468.49 1039.06 1469.33 1039.34 1469.89 1039.62C1471.57 1040.46 1473.81 1042.14 1476.33 1044.38H1476.05C1478.57 1043.54 1481.65 1042.42 1485.57 1041.02H1485.85V1041.3C1488.37 1045.22 1491.44 1049.7 1494.8 1055.3V1055.58H1495.08C1492.84 1057.82 1490.6 1060.06 1488.09 1062.58V1062.3C1489.21 1065.66 1489.76 1069.02 1490.04 1072.93L1489.76 1072.65C1492.56 1074.05 1495.64 1075.45 1498.72 1076.85H1499V1077.13C1497.88 1082.17 1496.76 1087.49 1495.36 1093.37V1093.65H1495.08C1491.72 1093.65 1488.65 1093.65 1485.01 1093.65L1485.29 1093.37C1483.61 1096.45 1481.65 1099.53 1479.13 1102.33V1101.77C1480.25 1104.85 1481.37 1107.92 1482.49 1111.28V1111.56V1112.12C1478.01 1114.92 1473.25 1118 1468.49 1121.08L1468.22 1121.36L1467.94 1121.08C1465.7 1118.84 1463.18 1116.32 1460.94 1114.08H1461.5C1458.14 1115.2 1454.5 1115.76 1450.86 1116.04L1451.42 1115.76C1450.02 1118.84 1448.62 1121.64 1447.23 1124.72L1446.95 1125H1446.67C1441.35 1123.88 1436.03 1122.48 1430.43 1121.36H1430.15V1121.08C1430.15 1119.4 1430.15 1117.72 1430.15 1116.04V1113.52V1112.4V1111.84V1111.56V1111.28C1430.71 1112.12 1430.43 1111.56 1430.43 1111.84C1427.07 1110.16 1424 1107.92 1421.48 1105.69H1422.04C1418.68 1106.8 1415.6 1107.92 1412.52 1109.04H1412.24L1411.96 1108.76C1408.88 1104.01 1405.8 1099.25 1403.01 1094.77L1402.73 1094.49L1403.01 1094.21C1405.52 1091.69 1407.76 1089.45 1410 1087.21V1087.77C1408.88 1084.13 1408.32 1080.49 1408.04 1077.13L1408.32 1077.41C1405.24 1076.01 1402.17 1074.33 1399.37 1073.21L1399.09 1072.93V1072.65C1400.49 1067.06 1401.61 1061.46 1402.73 1056.42V1056.14H1403.01C1406.36 1056.14 1410 1056.14 1413.08 1056.14L1412.8 1056.42C1414.48 1053.06 1416.72 1049.98 1418.96 1047.46V1048.02C1417.84 1044.66 1416.72 1041.58 1415.6 1038.5V1038.22L1415.88 1037.94C1420.92 1034.86 1425.4 1031.79 1429.87 1029.27L1430.15 1028.99L1430.43 1029.27C1432.95 1031.79 1435.19 1034.02 1437.43 1036.26H1437.15C1440.79 1035.14 1444.43 1034.58 1447.78 1034.3L1446.95 1033.75C1448.62 1030.39 1450.02 1027.59 1451.14 1024.79V1024.51H1451.42C1457.86 1025.91 1463.46 1027.31 1467.66 1028.15C1467.66 1031.23 1467.66 1033.75 1467.66 1035.42C1467.66 1036.26 1467.66 1036.82 1467.66 1037.38C1467.66 1038.22 1467.66 1038.5 1467.66 1038.5Z" fill="#999999"/>
<g opacity="0.8">
<g opacity="0.8">
<g opacity="0.8">
<path opacity="0.8" fill-rule="evenodd" clip-rule="evenodd" d="M1381.74 861.873C1388.17 865.232 1394.05 869.431 1399.09 874.189L1417.84 867.471L1435.47 895.183L1421.48 909.18C1423.72 915.898 1424.84 922.896 1425.12 930.174L1443.03 938.571L1435.75 970.483H1415.88C1412.52 976.921 1408.32 982.799 1403.57 987.838L1410.28 1006.59L1382.58 1024.23L1368.58 1010.23C1361.87 1012.47 1354.87 1013.59 1347.59 1013.87L1339.2 1031.79L1307.29 1024.51V1004.63C1300.85 1001.27 1294.98 997.075 1289.94 992.317L1271.19 999.315L1253.56 971.602L1267.55 957.606C1265.31 950.888 1264.19 943.89 1263.91 936.612L1246 928.214L1253.28 896.303H1273.15C1276.51 889.865 1280.7 883.986 1285.46 878.948L1278.46 860.193L1306.17 842.558L1320.16 856.554C1326.88 854.315 1333.88 853.195 1341.15 852.915L1349.55 835L1381.46 842.278L1381.74 861.873ZM1353.47 899.382C1334.44 895.183 1315.69 906.94 1311.49 925.975C1307.29 945.01 1319.05 963.764 1338.08 967.963C1357.11 972.162 1375.86 960.405 1380.06 941.371C1384.25 922.336 1372.5 903.581 1353.47 899.382Z" fill="#EBEBEB"/>
</g>
</g>
</g>
</g>
<path d="M792.906 481.73H320.73V673.909H792.906V481.73Z" fill="white"/>
<path d="M792.905 673.909C792.905 673.909 792.905 672.813 792.905 670.621C792.905 668.428 792.905 665.14 792.905 660.756C792.905 651.987 792.905 639.2 792.905 622.393C792.905 589.146 792.905 541.284 792.54 482.096L792.905 482.461C672.855 482.461 505.367 482.461 320.73 482.827L321.46 482.096C321.46 549.322 321.46 614.356 321.46 674.274L320.73 673.543C457.566 673.543 575.427 673.909 659.353 673.909C701.316 673.909 734.522 673.909 757.51 674.274C768.822 674.274 777.945 674.274 783.783 674.274C786.702 674.274 788.891 674.274 790.716 674.274C792.176 673.909 792.905 673.909 792.905 673.909C792.905 673.909 792.176 673.909 790.716 673.909C789.256 673.909 787.067 673.909 784.148 673.909C778.309 673.909 769.552 673.909 757.875 673.909C734.887 673.909 701.681 673.909 659.718 674.274C575.792 674.274 457.566 674.64 320.73 674.64H320V673.909C320 613.99 320 548.957 320 481.731V481H320.73C505.732 481 672.855 481 792.905 481.365H793.27V481.731C793.27 541.284 792.905 589.146 792.905 622.393C792.905 638.835 792.905 651.622 792.905 660.391C792.905 664.775 792.905 668.063 792.905 670.255C792.905 672.813 792.905 673.909 792.905 673.909Z" fill="#E8505B"/>
<path d="M321.094 507.671C321.094 507.306 426.549 506.941 556.817 506.941C687.085 506.941 792.54 507.306 792.54 507.671C792.54 508.037 687.085 508.402 556.817 508.402C426.914 508.402 321.094 508.037 321.094 507.671Z" fill="#E8505B"/>
<g opacity="0.3">
<path opacity="0.3" d="M341.164 495.98C341.164 497.806 339.704 499.268 337.88 499.268C336.056 499.268 334.596 497.806 334.596 495.98C334.596 494.153 336.056 492.691 337.88 492.691C339.34 492.691 341.164 494.153 341.164 495.98Z" fill="#E8505B"/>
</g>
<g opacity="0.3">
<path opacity="0.3" d="M352.841 495.98C352.841 497.806 351.381 499.633 349.192 499.633C347.368 499.633 345.908 498.172 345.908 496.345C345.908 494.518 347.368 492.691 349.192 492.691C351.381 492.691 352.841 494.153 352.841 495.98Z" fill="#E8505B"/>
</g>
<g opacity="0.3">
<path opacity="0.3" d="M364.152 495.98C364.152 497.806 362.693 499.268 360.868 499.268C359.044 499.268 357.584 497.806 357.584 495.98C357.584 494.153 359.044 492.691 360.868 492.691C362.693 492.691 364.152 494.153 364.152 495.98Z" fill="#E8505B"/>
</g>
<g opacity="0.3">
<path opacity="0.3" d="M475.081 538.727H360.869V653.084H475.081V538.727Z" fill="#E8505B"/>
</g>
<path d="M760.431 569.417C760.431 569.782 701.683 570.147 629.433 570.147C557.184 570.147 498.436 569.782 498.436 569.417C498.436 569.051 557.184 568.686 629.433 568.686C701.683 568.686 760.431 569.051 760.431 569.417Z" fill="#E8505B"/>
<path d="M760.431 592.799C760.431 593.164 701.683 593.53 629.433 593.53C557.184 593.53 498.436 593.164 498.436 592.799C498.436 592.434 557.184 592.068 629.433 592.068C701.683 592.068 760.431 592.434 760.431 592.799Z" fill="#E8505B"/>
<path d="M667.017 616.182C667.017 616.182 666.287 616.182 665.192 616.182C663.733 616.182 662.273 616.182 660.449 616.182C656.07 616.182 649.867 616.182 642.204 616.548C626.878 616.548 605.714 616.548 582.361 616.913C559.008 616.913 538.209 616.913 522.518 616.548C514.855 616.548 509.017 616.548 504.273 616.182C502.449 616.182 500.624 616.182 499.53 616.182C498.435 616.182 497.705 616.182 497.705 616.182C497.705 616.182 498.435 616.182 499.53 616.182C500.989 616.182 502.449 616.182 504.273 616.182C508.652 616.182 514.855 616.182 522.518 615.817C537.844 615.817 559.008 615.817 582.361 615.452C605.714 615.452 626.513 615.452 642.204 615.817C649.867 615.817 655.705 615.817 660.449 616.182C662.273 616.182 664.098 616.182 665.192 616.182C666.287 615.817 667.017 615.817 667.017 616.182Z" fill="#E8505B"/>
<path fill-rule="evenodd" clip-rule="evenodd" d="M723.924 841.326C726.478 842.788 729.032 844.614 731.222 846.441L739.249 843.518L746.547 855.21L740.709 861.055C741.439 863.978 742.169 866.901 742.169 869.824L749.831 873.478L746.912 886.996H738.52C737.06 889.553 735.236 892.111 733.411 894.303L736.33 902.341L724.654 909.648L718.815 903.802C715.896 904.533 712.977 905.264 710.058 905.264L706.409 912.936L692.908 910.013V901.61C690.353 900.149 687.799 898.322 685.61 896.495L677.582 899.418L670.284 887.727L676.122 881.881C675.393 878.958 674.663 876.035 674.663 873.112L667 869.459L669.919 855.94H678.312C679.771 853.383 681.596 850.825 683.42 848.633L680.501 840.595L692.178 833.288L698.016 839.134C700.935 838.403 703.855 837.673 706.774 837.673L710.423 830L723.924 832.923V841.326ZM711.882 857.402C703.855 855.575 695.827 860.69 694.002 868.728C692.178 876.766 697.286 884.804 705.314 886.63C713.342 888.457 721.37 883.342 723.194 875.304C725.018 866.901 719.91 859.229 711.882 857.402Z" fill="#E8505B"/>
<g opacity="0.4">
<g opacity="0.4">
<g opacity="0.4">
<path opacity="0.4" fill-rule="evenodd" clip-rule="evenodd" d="M723.924 841.326C726.478 842.788 729.032 844.614 731.222 846.441L739.249 843.518L746.547 855.21L740.709 861.055C741.439 863.978 742.169 866.901 742.169 869.824L749.831 873.478L746.912 886.996H738.52C737.06 889.553 735.236 892.111 733.411 894.303L736.33 902.341L724.654 909.648L718.815 903.802C715.896 904.533 712.977 905.264 710.058 905.264L706.409 912.936L692.908 910.013V901.61C690.353 900.149 687.799 898.322 685.61 896.495L677.582 899.418L670.284 887.727L676.122 881.881C675.393 878.958 674.663 876.035 674.663 873.112L667 869.459L669.919 855.94H678.312C679.771 853.383 681.596 850.825 683.42 848.633L680.501 840.595L692.178 833.288L698.016 839.134C700.935 838.403 703.855 837.673 706.774 837.673L710.423 830L723.924 832.923V841.326ZM711.882 857.402C703.855 855.575 695.827 860.69 694.002 868.728C692.178 876.766 697.286 884.804 705.314 886.63C713.342 888.457 721.37 883.342 723.194 875.304C725.018 866.901 719.91 859.229 711.882 857.402Z" fill="white"/>
</g>
</g>
</g>
<path fill-rule="evenodd" clip-rule="evenodd" d="M821.887 713.729C826.63 716.287 830.644 719.21 834.658 722.863L848.159 718.114L860.931 738.208L850.714 748.438C852.173 753.188 853.268 758.668 853.268 763.783L866.404 769.994L861.296 793.377H847.065C844.51 798.127 841.591 802.146 837.942 806.165L842.686 819.683L822.617 832.471L812.4 822.241C807.656 823.702 802.182 824.798 797.074 824.798L790.871 837.951L767.517 832.836V818.587C762.774 816.029 758.76 813.107 754.746 809.453L741.245 814.203L728.473 794.108L738.691 783.878C737.231 779.128 736.136 773.648 736.136 768.533L723 762.322L728.109 738.939H742.34C744.894 734.189 747.813 730.17 751.462 726.151L746.718 712.268L766.788 699.48L777.005 709.71C781.748 708.249 787.222 707.153 792.33 707.153L798.533 694L821.887 699.115V713.729ZM801.453 741.131C787.587 738.208 774.085 746.611 770.801 760.495C767.882 774.379 776.275 787.897 790.141 791.185C804.007 794.108 817.508 785.705 820.792 771.821C823.711 757.938 815.319 744.054 801.453 741.131Z" fill="#E8505B"/>
<g opacity="0.8">
<g opacity="0.8">
<g opacity="0.8">
<path opacity="0.8" fill-rule="evenodd" clip-rule="evenodd" d="M821.887 713.729C826.63 716.287 830.644 719.21 834.658 722.863L848.159 718.114L860.931 738.208L850.714 748.438C852.173 753.188 853.268 758.668 853.268 763.783L866.404 769.994L861.296 793.377H847.065C844.51 798.127 841.591 802.146 837.942 806.165L842.686 819.683L822.617 832.471L812.4 822.241C807.656 823.702 802.182 824.798 797.074 824.798L790.871 837.951L767.517 832.836V818.587C762.774 816.029 758.76 813.107 754.746 809.453L741.245 814.203L728.473 794.108L738.691 783.878C737.231 779.128 736.136 773.648 736.136 768.533L723 762.322L728.109 738.939H742.34C744.894 734.189 747.813 730.17 751.462 726.151L746.718 712.268L766.788 699.48L777.005 709.71C781.748 708.249 787.222 707.153 792.33 707.153L798.533 694L821.887 699.115V713.729ZM801.453 741.131C787.587 738.208 774.085 746.611 770.801 760.495C767.882 774.379 776.275 787.897 790.141 791.185C804.007 794.108 817.508 785.705 820.792 771.821C823.711 757.938 815.319 744.054 801.453 741.131Z" fill="white"/>
</g>
</g>
</g>
<path d="M565.293 894.904L540.675 952.51L441 836L565.293 894.904ZM569.404 885.284L589.009 839.41L441 836L569.404 885.284Z" fill="#FC6767"/>
<g clip-path="url(#clip5)">
<path d="M1043.32 401.318C1043.32 401.318 1043.32 399.954 1043.32 397.567C1043.32 395.18 1043.32 391.428 1043.32 386.654C1043.32 377.105 1043.32 363.465 1043.32 345.39C1043.32 309.924 1042.98 258.43 1042.98 195.682L1043.66 196.364C948.612 196.364 824.268 196.364 689.022 196.364L689.703 195.682C689.703 268.32 689.703 337.888 689.703 400.977L689.022 400.295C792.926 400.295 881.5 400.636 944.184 400.636C975.525 400.636 1000.39 400.636 1017.43 400.977C1025.94 400.977 1032.42 400.977 1036.85 400.977C1038.89 400.977 1040.59 400.977 1041.96 400.977C1042.98 401.318 1043.32 401.318 1043.32 401.318C1043.32 401.318 1042.64 401.318 1041.62 401.318C1040.59 401.318 1038.89 401.318 1036.51 401.318C1032.08 401.318 1025.6 401.318 1017.09 401.318C1000.05 401.318 975.185 401.318 943.843 401.659C881.16 401.659 792.245 402 688.341 402H687.659V401.318C688 337.888 688 268.32 688 195.682V195H688.681C824.268 195 948.272 195 1043.32 195H1044V195.682C1044 258.771 1043.66 310.265 1043.66 345.731C1043.66 363.465 1043.66 377.446 1043.66 386.654C1043.66 391.428 1043.66 394.839 1043.66 397.226C1043.66 399.954 1043.32 401.318 1043.32 401.318Z" fill="#E0E0E0"/>
<path d="M1043.66 220.577C1043.66 220.918 964.283 221.259 866.511 221.259C768.738 221.259 689.362 220.918 689.362 220.577C689.362 220.236 768.738 219.895 866.511 219.895C964.283 219.895 1043.66 220.236 1043.66 220.577Z" fill="#E0E0E0"/>
<path d="M829.037 254.337H719.341V364.146H829.037V254.337Z" fill="#F5F5F5"/>
<path d="M1017.77 272.412C1017.77 272.412 1017.09 272.412 1016.07 272.412C1014.7 272.412 1013.34 272.412 1011.3 272.412C1007.21 272.412 1001.42 272.412 994.262 272.753C979.613 272.753 959.855 272.753 938.052 273.094C916.249 273.094 896.49 273.094 881.841 272.753C874.687 272.753 868.896 272.412 864.808 272.412C862.764 272.412 861.401 272.412 860.038 272.412C859.016 272.412 858.335 272.412 858.335 272.412C858.335 272.412 859.016 272.412 860.038 272.412C861.401 272.412 862.764 272.412 864.808 272.412C868.896 272.412 874.687 272.412 881.841 272.071C896.49 272.071 916.249 272.071 938.052 271.73C959.855 271.73 979.613 271.73 994.262 272.071C1001.42 272.071 1007.21 272.412 1011.3 272.412C1013.34 272.412 1014.7 272.412 1016.07 272.412C1017.09 272.412 1017.77 272.412 1017.77 272.412Z" fill="#E0E0E0"/>
<path d="M1021.18 296.965C1021.18 296.965 1020.49 296.965 1019.47 296.965C1018.11 296.965 1016.75 296.965 1014.7 296.965C1010.27 296.965 1004.48 296.965 997.329 297.306C982.339 297.306 962.24 297.306 940.096 297.647C917.952 297.647 897.512 297.647 882.863 297.306C875.709 297.306 869.918 296.965 865.489 296.965C863.445 296.965 862.083 296.965 860.72 296.965C859.698 296.965 859.017 296.965 859.017 296.965C859.017 296.965 859.698 296.965 860.72 296.965C862.083 296.965 863.445 296.965 865.489 296.965C869.918 296.965 875.709 296.965 882.863 296.624C897.853 296.624 917.952 296.624 940.096 296.283C962.24 296.283 982.68 296.283 997.329 296.624C1004.48 296.624 1010.27 296.965 1014.7 296.965C1016.75 296.965 1018.11 296.965 1019.47 296.965C1020.83 296.965 1021.18 296.965 1021.18 296.965Z" fill="#E0E0E0"/>
<path d="M1021.18 321.519C1021.18 321.519 1020.49 321.519 1019.47 321.519C1018.11 321.519 1016.75 321.519 1014.7 321.519C1010.27 321.519 1004.48 321.519 997.329 321.86C982.339 321.86 962.24 321.86 940.096 322.201C917.952 322.201 897.512 322.201 882.863 321.86C875.709 321.86 869.918 321.519 865.489 321.519C863.445 321.519 862.083 321.519 860.72 321.519C859.698 321.519 859.017 321.519 859.017 321.519C859.017 321.519 859.698 321.519 860.72 321.519C862.083 321.519 863.445 321.519 865.489 321.519C869.918 321.519 875.709 321.519 882.863 321.178C897.853 321.178 917.952 321.178 940.096 320.837C962.24 320.837 982.68 320.837 997.329 321.178C1004.82 321.178 1010.61 321.178 1015.04 321.178C1017.09 321.178 1018.45 321.178 1019.81 321.178C1020.83 321.519 1021.18 321.519 1021.18 321.519Z" fill="#E0E0E0"/>
<path d="M1021.18 346.073C1021.18 346.073 1020.49 346.073 1019.47 346.073C1018.11 346.073 1016.75 346.073 1014.7 346.073C1010.27 346.073 1004.48 346.073 997.329 346.414C982.339 346.414 962.24 346.414 940.096 346.755C917.952 346.755 897.512 346.755 882.863 346.414C875.709 346.414 869.918 346.073 865.489 346.073C863.445 346.073 862.083 346.073 860.72 346.073C859.698 346.073 859.017 346.073 859.017 346.073C859.017 346.073 859.698 346.073 860.72 346.073C862.083 346.073 863.445 346.073 865.489 346.073C869.918 346.073 875.709 346.073 882.863 345.732C897.853 345.732 917.952 345.732 940.096 345.391C962.24 345.391 982.68 345.391 997.329 345.732C1004.48 345.732 1010.27 346.073 1014.7 346.073C1016.75 346.073 1018.11 346.073 1019.47 346.073C1020.83 346.073 1021.18 346.073 1021.18 346.073Z" fill="#E0E0E0"/>
</g>
<defs>
<clipPath id="clip0">
<rect width="657" height="1238" fill="white" transform="translate(932)"/>
</clipPath>
<clipPath id="clip1">
<rect width="125.809" height="125.834" fill="white" transform="translate(1343 703)"/>
</clipPath>
<clipPath id="clip2">
<rect width="123" height="106" fill="white" transform="translate(1095 1049)"/>
</clipPath>
<clipPath id="clip3">
<rect width="777" height="743" fill="white" transform="translate(246 924)"/>
</clipPath>
<clipPath id="clip4">
<rect width="253" height="290" fill="white" transform="translate(1246 835)"/>
</clipPath>
<clipPath id="clip5">
<rect width="356" height="207" fill="white" transform="translate(688 195)"/>
</clipPath>
</defs>
</svg>
