<svg width="3619" height="896" viewBox="0 0 3619 896" fill="none" xmlns="http://www.w3.org/2000/svg">
<path d="M121.271 496.406C121.271 496.406 124.773 499.925 125.923 503.164C126.836 505.719 130.027 509.16 131.525 511.115C133.027 513.071 138.574 522.183 139.332 524.691C139.647 525.728 139.017 532.752 139.879 534.776C140.742 536.8 142.998 540.693 141.194 541.361C139.391 542.028 136.396 539.085 136.396 539.085C136.396 539.085 137.067 540.977 135.675 542.037C132.954 544.125 131.009 543.207 131.009 543.207C131.009 543.207 130.411 545.574 129.059 546.154C126.074 547.447 124.206 546.51 124.206 546.51C124.206 546.51 123.129 547.982 120.942 548.402C118.153 548.937 116.363 546.78 116.363 546.78C116.363 546.78 113.021 548.233 111.574 546.798C110.136 545.373 109.858 543.577 109.054 542.174C108.246 540.762 105.114 527.218 107.187 516.535C109.269 505.861 101.115 497.603 101.115 497.603L121.271 496.406Z" fill="#EEA886"/>
<path d="M146.11 574.507L99.8447 573.283C95.147 573.168 91.4216 569.239 91.5495 564.537L92.3119 535.334C92.4352 530.632 96.3614 526.907 101.064 527.035L147.32 528.251C152.013 528.365 155.739 532.295 155.615 537.006L154.848 566.2C154.725 570.893 150.803 574.621 146.11 574.507ZM100.904 532.756C99.3562 532.711 98.0688 533.944 98.0277 535.498L97.2608 564.692C97.2242 566.237 98.4478 567.53 99.9954 567.566L146.256 568.791C147.804 568.827 149.091 567.594 149.137 566.049L149.899 536.855C149.936 535.302 148.708 534.008 147.165 533.972L100.904 532.756Z" fill="#0B4870"/>
<path d="M185.248 563.023L61.4675 559.776L58.2083 684.247L181.988 687.494L185.248 563.023Z" fill="#0B4870"/>
<path d="M185.249 563.024L61.4601 559.776L59.5708 631.93L183.36 635.177L185.249 563.024Z" fill="#0B4870"/>
<path d="M136.565 537.709C136.565 537.709 133.781 525.545 129.946 523.635C126.111 521.725 126.869 526.181 126.869 526.181C126.869 526.181 126.197 521.771 122.577 521.922C118.952 522.063 120.125 527.231 120.125 527.231C120.125 527.231 118.701 524.019 115.241 525.472C111.762 526.925 113.725 530.988 113.725 530.988C113.725 530.988 109.178 527.56 107.94 532.039C105.859 539.597 111.575 546.794 111.575 546.794C111.575 546.794 113.122 548.402 116.364 546.775C116.364 546.775 119.884 550.979 124.207 546.506C124.207 546.506 130.274 548.311 131.009 543.202C131.005 543.207 137.574 544.76 136.565 537.709Z" fill="#DB9C7C"/>
<path d="M92.1768 527.035L77.9648 612.776L71.062 603.542C71.062 603.537 91.2501 530.544 92.1768 527.035Z" fill="#122333"/>
<path d="M35.1258 852.169C31.2544 846.654 34.7377 825.991 44.115 817.355C53.4923 808.705 62.0934 816.925 62.0934 816.925C62.0934 816.925 67.5445 830.126 71.8405 833.768C76.1273 837.41 95.1695 862.204 101.744 863.451C108.318 864.699 121.42 865.558 121.955 868.35C122.484 871.141 122.808 884.699 104.127 885.138C85.4499 885.586 80.5329 885.234 75.9904 880.664C71.4387 876.095 53.611 862.958 48.7032 863.072L35.1258 852.169Z" fill="#DB9C7C"/>
<path opacity="0.9" d="M101.745 863.451C101.745 863.451 81.0183 866.28 72.2117 859.481C63.4097 852.672 52.3615 835.751 34.7848 835.408C34.7848 835.408 28.4846 843.478 38.7978 861.916C38.7978 861.916 44.509 883.05 44.3584 886.56L49.2616 886.445L48.7046 863.081C48.7046 863.081 66.3041 870.845 78.4754 884.348C78.4754 884.348 114.286 890.051 121.034 878.896C121.034 878.896 124.754 873.317 123.111 867.866C121.463 862.4 101.745 863.451 101.745 863.451Z" fill="#FC6767"/>
<path d="M22.749 475.414C22.749 475.414 0.839731 502.035 28.3004 549.535C28.3004 549.535 30.647 573.808 31.1173 582.924C31.5875 592.035 37.4586 626.109 34.2994 642.655C31.1493 659.201 20.8497 684.032 24.6983 707.761C28.5469 731.49 46.1237 800.009 42.7407 817.569L62.2303 817.103C62.2303 817.103 69.1742 671.987 71.3336 666.864C73.4931 661.742 82.085 650.638 81.0487 628.116C80.0078 605.579 103.09 513.272 102.994 487.687C102.894 462.089 22.749 475.414 22.749 475.414Z" fill="#DB9C7C"/>
<path d="M21.9321 851.969C18.2021 846.353 22.1695 825.786 31.743 817.369C41.3166 808.952 49.7214 817.369 49.7214 817.369C49.7214 817.369 54.8666 830.694 59.0667 834.431C63.2714 838.178 81.7246 863.421 88.2622 864.819C94.809 866.222 107.884 867.396 108.35 870.202C108.816 873.007 108.82 886.561 90.1341 886.561C71.448 886.561 66.5402 886.094 62.1027 881.42C57.6652 876.745 40.1478 863.187 35.2401 863.187L21.9321 851.969Z" fill="#EEA886"/>
<path opacity="0.9" d="M88.2638 864.819C88.2638 864.819 67.4777 867.158 58.84 860.144C50.2023 853.13 39.5513 835.958 21.9883 835.19C21.9883 835.19 15.5009 843.114 25.3713 861.803C25.3713 861.803 30.5849 883.051 30.343 886.56H35.2462V863.188C35.2462 863.188 52.6585 871.362 64.5102 885.162C64.5102 885.162 100.175 891.705 107.187 880.725C107.187 880.725 111.04 875.228 109.525 869.731C108 864.238 88.2638 864.819 88.2638 864.819Z" fill="#FC6767"/>
<path d="M18.473 475.013C18.473 475.013 -4.0571 501.109 22.2714 549.248C22.2714 549.248 24.0428 573.567 24.2939 582.687C24.545 591.808 29.6079 626.015 26.0698 642.483C22.527 658.951 11.6387 683.526 14.9348 707.337C18.2265 731.158 34.1733 801.696 30.3749 819.184L49.869 817.552C49.869 817.552 60.2461 672.632 62.5197 667.565C64.7978 662.507 73.6591 651.608 73.1524 629.054C72.6502 606.499 104.284 520.109 104.795 494.525C105.306 468.94 18.473 475.013 18.473 475.013Z" fill="#EEA886"/>
<path d="M104.79 501.368C104.79 501.368 79.7127 645.781 85.2779 666.554C85.2779 666.554 42.925 662.67 9.49741 649.67C9.49741 649.67 26.1838 593.141 20.5456 563.179C14.9119 533.217 2.18822 516.818 10.5748 486.545C18.9568 456.273 104.79 501.368 104.79 501.368Z" fill="#0E538C"/>
<path d="M3260.13 182.79C3260.13 182.79 3283.49 168.191 3295.42 187.136C3304.21 201.086 3306.87 255.238 3306.87 255.238L3309.52 307.617C3309.52 307.617 3305.82 316.222 3284.83 315.651C3263.84 315.079 3260.13 182.79 3260.13 182.79Z" fill="#0E538C"/>
<path opacity="0.9" d="M3280.6 821.932C3280.6 821.932 3267.32 841.663 3261.97 846.42C3261.97 846.42 3241.44 859.031 3240.67 867.411C3240.17 872.881 3248.88 873.384 3262.95 873.786C3277.01 874.179 3286.04 869.271 3288.61 860.74C3291.18 852.218 3296.05 848.407 3296.05 848.407V866.246H3299.21C3299.21 866.246 3300.01 848.997 3300.21 845.826C3300.4 842.659 3302.48 830.459 3295.79 825.058C3289.11 819.647 3280.6 821.932 3280.6 821.932Z" fill="#FC6767"/>
<path d="M3259.69 847.43C3259.69 847.43 3271.25 853.375 3281.75 845.52C3292.25 837.665 3295.79 825.053 3295.79 825.053L3280.59 821.928L3259.69 847.43Z" fill="#DBA585"/>
<path opacity="0.9" d="M3190.56 806.172C3190.56 806.172 3188.26 811.605 3183.92 817.285C3180.74 821.425 3170.86 838.491 3166.49 839.675C3162.13 840.872 3147.48 850.787 3146.29 858.318C3145.1 865.848 3145.7 863.673 3158.97 864.263C3172.23 864.861 3180.95 865.647 3187.29 856.339C3193.63 847.022 3203.74 840.282 3203.74 840.282V864.582H3208.89C3208.89 864.582 3211.26 839.282 3212.65 837.495C3214.04 835.709 3217.6 816.279 3205.32 806.172C3193.03 796.06 3190.56 806.172 3190.56 806.172Z" fill="#FC6767"/>
<path d="M3166.49 839.676C3166.49 839.676 3178.38 842.655 3182.94 839.676C3187.49 836.706 3202.99 810.5 3208.12 808.928C3208.12 808.928 3203.14 798.834 3190.57 806.168C3190.57 806.173 3169.86 835.312 3166.49 839.676Z" fill="#DBA585"/>
<path d="M3153.79 517.466C3153.79 517.466 3150.71 520.413 3149.66 523.15C3148.81 525.321 3146.01 528.199 3144.68 529.835C3143.35 531.485 3138.39 539.161 3137.68 541.295C3137.4 542.168 3137.78 548.213 3137 549.918C3136.21 551.64 3134.19 554.926 3135.72 555.538C3137.25 556.15 3139.88 553.692 3139.88 553.692C3139.88 553.692 3139.26 555.301 3140.43 556.246C3142.71 558.093 3144.41 557.352 3144.41 557.352C3144.41 557.352 3144.87 559.386 3146.01 559.916C3148.54 561.095 3150.16 560.336 3150.16 560.336C3150.16 560.336 3151.05 561.629 3152.92 562.031C3155.29 562.548 3156.87 560.738 3156.87 560.738C3156.87 560.738 3159.7 562.059 3160.97 560.862C3162.24 559.664 3162.51 558.147 3163.24 556.955C3163.95 555.776 3166.94 544.229 3165.41 535.035C3163.87 525.842 3171.04 518.951 3171.04 518.951L3153.79 517.466Z" fill="#DBA585"/>
<path d="M3121.13 580.838V555.811C3121.13 551.776 3124.4 548.5 3128.43 548.5H3168.09C3172.12 548.5 3175.4 551.776 3175.4 555.811V580.838C3175.4 584.873 3172.12 588.149 3168.09 588.149H3128.43C3124.4 588.149 3121.13 584.873 3121.13 580.838ZM3128.43 553.403C3127.11 553.403 3126.03 554.481 3126.03 555.811V580.838C3126.03 582.168 3127.11 583.246 3128.43 583.246H3168.09C3169.42 583.246 3170.5 582.168 3170.5 580.838V555.811C3170.5 554.481 3169.42 553.403 3168.09 553.403H3128.43Z" fill="#0B4870"/>
<path d="M3222.66 577.401H3073.87V684.107H3222.66V577.401Z" fill="#0E538C"/>
<path d="M3211.46 291.896C3211.46 291.896 3219.09 292.01 3222.34 314.816C3225.59 337.627 3219.42 347.158 3218.69 356.645C3217.96 366.14 3206.83 427.444 3206.53 430.158C3206.23 432.863 3204.74 465.489 3200.4 474.148C3196.06 482.807 3164.17 531.874 3163.75 534.319C3163.32 536.772 3148.26 525.778 3148.26 525.778C3148.26 525.778 3173.32 473.284 3174.77 467.303C3176.22 461.312 3186.31 430.729 3184.71 421.394C3183.11 412.068 3189.18 360.57 3188.59 354.844C3188 349.119 3196.86 295.382 3211.46 291.896Z" fill="#DBA585"/>
<path d="M3211.46 291.896C3211.46 291.896 3219.08 292.01 3222.33 314.816C3225.58 337.626 3222.64 345.838 3220.68 355.726C3218.83 365.061 3212.5 422.18 3212.2 424.885C3211.9 427.608 3204.33 462.03 3200.4 474.148C3197.41 483.36 3168.97 531.577 3168.54 534.03C3168.12 536.475 3146.44 522.758 3146.44 522.758C3146.44 522.758 3174.25 468.468 3175.69 462.482C3177.15 456.492 3181.86 435.769 3182.01 426.292C3182.19 415.17 3189.18 360.57 3188.59 354.84C3188 349.11 3190.19 299.696 3211.46 291.896Z" fill="#0E538C"/>
<path d="M3284.14 443.089C3284.14 443.089 3300.9 464.899 3305.44 490.775C3309.98 516.648 3302.75 603.476 3302.96 616.275C3303.15 629.065 3315.04 660.882 3312.66 684.968C3310.28 709.063 3302.89 826.978 3302.89 826.978L3275.22 823.852C3275.22 823.852 3276.7 701.628 3275.22 691.507C3273.73 681.404 3270.75 644.538 3270.16 640.379C3269.56 636.221 3232.43 526.883 3232.43 508.231C3232.43 489.578 3243.73 412.651 3284.14 443.089Z" fill="#0B4870"/>
<path d="M3199.95 451.62C3199.95 451.62 3172.41 556.79 3169.15 571.362C3165.88 585.934 3161.14 597.957 3161.14 604.144C3161.14 618.496 3166.47 641.549 3166.47 641.549L3185.19 808.092H3208.84C3208.84 808.092 3209.26 710.84 3210.75 691.224C3212.23 671.589 3200.05 641.252 3203.02 632.927C3205.99 624.601 3250.86 528.542 3250.86 528.542C3250.86 528.542 3284.83 421.078 3199.95 451.62Z" fill="#0B4870"/>
<path d="M3233.82 283.674C3233.82 283.674 3219.12 290.624 3214.02 291.652C3208.91 292.671 3189.09 318.425 3185.62 327.824C3182.15 337.233 3185.62 351.339 3192.77 367.898C3199.91 384.458 3193.18 389.978 3196.45 406.533C3199.71 423.088 3202.58 458.145 3201.96 467.348C3201.35 476.541 3284.57 478.282 3303.56 461.522C3303.56 461.522 3284.47 432.908 3282.02 428.814C3279.57 424.724 3281.61 402.448 3283.86 396.722C3286.1 391.001 3301.06 342.328 3301.06 342.328C3301.06 342.328 3313.29 304.95 3302.24 296.354C3292.64 288.893 3266.48 286.233 3261.78 284.602C3257.09 282.952 3243.43 282.244 3233.82 283.674Z" fill="#F7F7F7"/>
<path d="M3229.13 316.483L3220.19 306.015L3227.96 278.447C3227.96 278.443 3230.56 293.796 3229.13 316.483Z" fill="#CFC3BC"/>
<path d="M3226.8 266.699C3226.8 266.699 3229.75 293.695 3229.13 302.478C3229.13 302.478 3244.4 317.808 3261.78 284.593C3261.78 284.593 3254.47 270.903 3259.98 252.25C3265.49 233.598 3226.8 266.699 3226.8 266.699Z" fill="#DBA585"/>
<path d="M3229.13 302.478V316.483L3246.71 303.337L3229.13 302.478Z" fill="#DBA585"/>
<path d="M3229.13 316.481L3236.43 307.439L3261.02 282.906L3268.98 290.574L3229.13 316.481Z" fill="#CFC3BC"/>
<path d="M3264.44 285.256C3264.44 285.256 3243.8 316.607 3242.81 330.406C3241.83 344.197 3250.48 447.416 3257.41 480.59C3264.34 513.764 3314.43 476.852 3314.43 476.852C3314.43 476.852 3280.77 422.321 3293.7 378.664C3306.61 334.994 3311.31 317.557 3311.31 317.557C3311.31 317.557 3306.86 293.239 3291.11 289.821C3277.3 286.814 3264.44 285.256 3264.44 285.256Z" fill="#0E538C"/>
<path d="M3184.27 332.01C3184.27 332.01 3180.55 345.202 3195.05 374.351C3195.05 374.351 3194.82 411.637 3194.41 423.285C3194 434.941 3191.25 478.991 3191.25 478.991L3205.59 487.407C3208.48 489.094 3212.05 486.745 3211.65 483.418C3207.59 449.888 3194.38 322.702 3222.92 288.514L3211.46 291.895C3211.46 291.895 3191.11 308.564 3184.27 332.01Z" fill="#0E538C"/>
<path d="M3252.44 225.048C3253.71 221.826 3257.95 220.926 3260.4 222.763C3262.85 224.6 3264.29 230.116 3260.4 237.276C3256.53 244.432 3242.85 249.422 3252.44 225.048Z" fill="#DBA585"/>
<path d="M3220.19 306.014L3208.94 309.126L3227.96 278.442L3220.19 306.014Z" fill="#D3D3D3"/>
<path d="M3236.42 307.439L3246.71 320.933L3267.83 285.698L3261.02 282.906L3236.42 307.439Z" fill="#D3D3D3"/>
<path d="M3227.41 272.633L3227.92 278.053C3227.92 278.053 3240.06 280.328 3255.95 260.917C3255.95 260.912 3244.69 274.676 3227.41 272.633Z" fill="#997761"/>
<path d="M3139.77 552.514C3139.77 552.514 3142.42 542.15 3145.76 540.61C3149.08 539.065 3148.33 542.849 3148.33 542.849C3148.33 542.849 3149.01 539.093 3152.11 539.298C3155.2 539.513 3154.09 543.904 3154.09 543.904C3154.09 543.904 3155.38 541.181 3158.32 542.52C3161.26 543.831 3159.49 547.277 3159.49 547.277C3159.49 547.277 3163.47 544.439 3164.42 548.305C3166.04 554.83 3161.14 560.977 3161.14 560.977C3161.14 560.977 3159.62 562.37 3156.88 560.894C3156.88 560.894 3153.7 564.427 3150.1 560.511C3150.1 560.511 3144.81 561.913 3144.3 557.513C3144.3 557.513 3138.21 558.477 3139.77 552.514Z" fill="#EBB18F"/>
<path d="M3248.89 416.292L3272.26 378.558C3272.26 378.558 3252.33 402.108 3250.26 404.635C3248.18 407.162 3248.01 407.35 3248.01 407.35C3248.01 407.35 3248.6 415.017 3248.89 416.292Z" fill="#2F386C"/>
<path d="M3101.97 407.557C3100.41 406.182 3098.75 404.61 3096.67 404.541C3094.2 404.45 3092.27 406.479 3090.19 407.817C3087.26 409.691 3083.71 410.289 3080.65 411.921C3077.06 413.84 3074.25 417.294 3073.33 421.265C3072.4 425.236 3073.46 429.673 3076.27 432.634C3077.68 434.124 3079.49 435.257 3080.62 436.971C3081.62 438.497 3082 440.361 3082.91 441.951C3083.83 443.541 3085.69 444.88 3087.4 444.236C3088.44 443.852 3089.1 442.879 3089.82 442.034C3092.69 438.67 3097.17 437.08 3101.55 436.5C3105.94 435.92 3110.39 436.198 3114.79 435.833C3117.07 435.636 3119.66 435.038 3120.7 433.004C3121.84 430.774 3120.48 428.124 3119.14 425.99C3115.7 420.493 3120.21 418.341 3116.77 412.853C3115.59 412.862 3106.65 409.951 3105.47 409.65C3104.16 409.316 3102.99 408.425 3101.97 407.557Z" fill="#F2B793"/>
<path d="M522.378 387.923C523.391 386.101 524.424 384.063 526.357 383.3C528.653 382.383 531.157 383.642 533.567 384.203C536.948 384.984 540.499 384.351 543.923 384.86C547.952 385.459 551.756 387.767 553.958 391.197C556.165 394.625 556.657 399.16 555.008 402.893C554.179 404.771 552.853 406.448 552.371 408.439C551.937 410.215 552.211 412.097 551.881 413.903C551.555 415.708 550.25 417.595 548.421 417.565C547.312 417.553 546.362 416.859 545.403 416.304C541.573 414.102 536.821 414.111 532.494 415.04C528.172 415.968 524.073 417.728 519.805 418.865C517.594 419.446 514.955 419.753 513.287 418.19C511.463 416.474 511.859 413.519 512.406 411.057C513.798 404.724 508.827 404.214 510.226 397.888C511.338 397.5 518.775 391.753 519.792 391.069C520.914 390.314 521.715 389.082 522.378 387.923Z" fill="#F2B793"/>
<path d="M3073.4 420.955C3074.7 418.026 3076.48 416.116 3077.97 414.457C3079.5 412.734 3081.26 412.058 3083.31 410.993C3084.49 410.385 3085.79 409.887 3087.11 409.974C3088.69 410.079 3089.61 410.267 3090.93 411.153C3092.24 412.044 3094.2 412.94 3095.78 413.036C3097.37 413.141 3099.86 412.373 3099.95 410.788C3100.01 409.796 3098.12 408.85 3097.47 408.101C3094.78 404.966 3090.84 402.585 3087.01 402.585C3085.3 402.585 3082.97 403.604 3080.87 404.225C3079.41 404.655 3077.74 404.975 3076.29 405.414C3072.43 406.547 3068.47 408.11 3065.29 410.554C3063.17 412.177 3057.97 418.41 3061.5 420.827C3064.91 423.158 3071.84 424.469 3073.4 420.955Z" fill="#F4A086"/>
<path d="M3103.01 436.339C3099.52 441.658 3095.71 443.445 3089.53 444.953C3088.73 445.149 3087.77 445.273 3087.16 444.702C3086.87 444.432 3086.65 443.989 3086.45 443.651C3086.29 443.39 3086.19 443.107 3086.2 442.81C3086.21 442.517 3086.43 442.097 3086.66 441.91C3087 441.626 3087.52 441.64 3087.77 441.242C3087.99 440.923 3088.04 440.598 3088.16 440.214C3088.43 439.419 3088.82 438.706 3089.59 438.277C3090.53 437.77 3091.6 438.373 3092.38 437.208C3092.67 436.769 3093.1 436.129 3093.59 435.942C3095.1 435.343 3095.79 436.271 3096.7 435.631C3097.12 435.339 3097.37 434.553 3097.88 434.292C3098.44 434.014 3098.73 433.945 3099.34 433.881C3100.77 433.744 3103.49 434.438 3103.01 436.339Z" fill="#F4A086"/>
<path d="M3260.13 341.345C3265.42 329.574 3262.81 312.16 3278.55 303.236C3290.46 296.477 3292.92 287.562 3302.24 296.345C3311.57 305.136 3313.43 325.832 3311.15 337.452C3308.53 350.721 3296.15 393.313 3288.76 403.325C3281.27 413.492 3277.34 419.373 3264.48 424.468C3254.11 428.581 3238.66 428.955 3226.42 430.189C3219.85 430.856 3213.26 431.436 3206.66 431.957C3200.68 432.423 3156.31 434.681 3149.74 435.517C3148.49 435.677 3128.63 435.115 3127.45 434.722C3125.72 434.151 3121.69 434.32 3120.7 432.999C3117.97 429.348 3117.53 426.314 3117.53 426.314L3115.92 408.109C3116.6 407.931 3148.03 406.19 3149.08 406.172C3152.42 406.099 3168.45 405.724 3193.31 402.567C3196.78 402.119 3227.54 398.577 3230.63 397.426C3233.18 396.48 3240.21 394.392 3241 391.618C3241 391.618 3246.13 386.797 3249.1 378.563C3252.53 369.054 3255.96 350.644 3260.13 341.345Z" fill="#0E538C"/>
<path d="M270.531 839.022C270.531 839.022 265.135 849.116 261.601 853.106C258.082 857.113 234.926 877.882 234.853 889.776C234.775 902.662 260.716 892.202 276.215 884.992C284.328 881.217 285.825 877.63 289.592 870.337C293.354 863.035 297.147 864.269 297.855 858.388C298.563 852.507 294.212 839.022 294.212 839.022H270.531Z" fill="#0B4870"/>
<path d="M406.593 837.858C406.593 837.858 417.605 850.164 428.781 852.746C439.966 855.323 457.858 866.755 457.949 873.815C458.031 880.884 415.692 877.384 402.895 870.265C383.803 859.636 381.863 862.849 379.74 857.53C377.626 852.22 382.287 838.014 382.146 836.332C381.986 834.235 406.593 837.858 406.593 837.858Z" fill="#0B4870"/>
<path d="M405.351 831.969C405.351 831.969 406.812 837.736 406.593 837.859C406.374 837.973 381.392 840.957 382.15 836.333C382.766 832.577 383.633 828.496 383.633 828.496L405.351 831.969Z" fill="#807F7D"/>
<path d="M293.891 835.135C293.891 835.135 294.937 840.641 294.74 840.764C294.535 840.897 269.407 845.389 269.544 840.828C269.654 837.196 271.863 832.974 271.863 832.974L293.891 835.135Z" fill="#807F7D"/>
<path d="M382.636 486.802C382.636 486.802 391.721 575.101 396.451 605.338C401.966 640.687 403.843 669.89 405.381 688.177C407.317 711.184 407.691 824.379 409.056 831.105C410.407 837.836 378.957 832.969 378.957 832.969C378.957 832.969 363.489 685.07 357.714 660.564C352.345 637.744 332.395 539.51 327.496 545.738C322.593 551.976 316.516 660.386 312.878 678.376C309.248 696.375 298.205 837.26 298.205 837.26C298.205 837.26 273.177 842.25 266.516 836.606C266.516 836.606 263.489 715.196 265.8 681.451C266.685 668.592 250.748 527.278 271.182 470.393C281.979 440.335 382.636 486.802 382.636 486.802Z" fill="#0E538C"/>
<path d="M301.091 467.232C301.091 467.232 307.154 458.056 313.564 456.877C319.987 455.698 225.142 409.807 225.397 393.412C225.589 380.115 258.606 355.591 258.606 355.591C258.606 355.591 258.597 355.554 258.606 355.591C258.615 355.609 258.606 355.358 258.606 355.367C258.606 355.385 258.606 355.349 258.606 355.367C259.327 357.999 270.111 397.278 270.449 414.779C270.814 432.942 269.367 495.439 269.367 495.439L293.677 501.955L371.325 502.677L389.052 495.439C389.052 495.439 387.112 475.351 386.395 461.232C385.943 452.262 384.208 436.196 384.656 420.555C384.656 420.555 384.368 404.064 386.003 396.958C386.176 365.616 388.075 334.576 388.075 334.576C389.125 320.361 389.86 307.068 390.276 294.676C386.847 292.866 382.738 290.741 379.428 289.179C369.239 284.317 355.022 277.764 345.9 273.569C340.559 271.125 335.336 269.329 335.336 269.329C335.336 269.329 298.891 265.829 295.928 266.016C294.996 266.08 290.445 267.657 284.464 269.941C271.54 274.849 246.631 284.847 242.655 287.703C236.834 291.861 198.74 392.745 198.188 399.681C197.188 412.174 301.091 467.232 301.091 467.232Z" fill="#F7F7F7"/>
<path d="M386.71 488.812C386.71 488.812 333.369 493.354 286.66 488.812V504.152C286.66 504.152 356.227 510.801 389.052 501.223L386.71 488.812Z" fill="#0E538C"/>
<path d="M341.216 271.557C341.216 271.557 349.89 291.959 356.401 337.553C358.902 355.063 363.541 384.55 366.91 414.645C369.567 438.365 375.625 462.715 377.556 480.865C379.556 499.678 385.564 555.101 385.564 555.101L400.151 545.889C402.241 543.96 405.159 541.461 404.31 538.751C400.301 525.783 392.613 482.926 388.084 445.566C388.084 445.539 388.07 445.511 388.07 445.484C387.856 443.679 387.646 441.897 387.44 440.128C387.427 440.037 387.422 439.941 387.409 439.845C386.55 432.374 385.843 425.218 385.336 418.657C384.948 413.639 385.295 408.723 385.989 403.92C388.016 370.38 389.029 335.04 389.029 335.04C390.102 320.555 390.714 307.034 391.125 294.44C391.129 294.45 345.361 272.795 341.216 271.557Z" fill="#0B4870"/>
<path d="M236.289 388.783C229.952 402.66 294.338 427.417 292.886 430.835C289.398 439.047 275.191 455.789 275.191 455.789C275.191 455.789 190.434 413.814 191.389 404.31C192.073 397.382 231.783 292.66 237.599 288.483C240.959 286.075 265.85 277.238 278.067 272.408C280.304 271.526 287.923 268.67 289.923 267.902C292.516 270.795 310.376 290.517 316.685 365.058C317.744 377.624 314.389 404.218 312.147 425.932C309.759 449.099 307.107 467.181 305.167 486.56C301.345 524.724 298.67 555.102 298.67 555.102L260.714 538.181C254.578 535.11 243.95 527.077 246.264 520.607C255.039 496.009 268.206 449.396 268.215 427.815C268.215 427.815 262.015 368.252 258.655 356.641C258.65 356.646 243.361 373.256 236.289 388.783Z" fill="#0B4870"/>
<path d="M299.292 269.898C299.292 269.898 299.041 257.369 294.229 232.041C292.937 225.25 333.564 249.88 333.564 249.88C333.564 249.88 333.436 252.26 333.354 255.468C333.308 257.163 333.281 259.092 333.294 261.011C333.299 261.696 333.308 262.368 333.322 263.035C333.358 264.831 333.441 266.544 333.596 268.007C333.746 269.515 334.641 272.156 334.947 272.887C336.627 276.762 312.983 279.695 299.292 269.898Z" fill="#DBA686"/>
<path opacity="0.9" d="M324.657 283.018L331.391 292.074C331.391 292.074 327.446 297.356 320.438 293.458L324.657 283.018Z" fill="#FC6767"/>
<path opacity="0.9" d="M329.588 292.439C329.588 292.439 355.131 390.87 349.863 467.49L341.271 482.643L333.226 466.764C333.226 466.764 327.127 329.717 320.128 292.197L329.588 292.439Z" fill="#FC6767"/>
<path d="M331.868 274.573L324.659 283.018C324.659 283.018 313.086 280.769 309.689 274.729C306.288 268.674 331.868 274.573 331.868 274.573Z" fill="#DBA686"/>
<path d="M333.524 267.185C333.524 267.185 332.684 273.618 324.663 283.018L333.424 294.807L338.167 270.36L333.524 267.185Z" fill="#D3D3D3"/>
<path d="M298.525 260.02C298.525 260.02 312.952 278.389 324.662 283.017L319.22 296.483L294.357 266.398L298.525 260.02Z" fill="#D3D3D3"/>
<path d="M511.677 418.476C511.677 418.476 446.036 409.273 431.468 405.686C424.73 404.036 415.868 394.728 407.431 383.784C404.656 380.179 401.926 376.405 399.337 372.653C399.333 372.653 399.333 372.635 399.333 372.635C388.992 357.693 380.888 343.372 380.888 343.372C380.888 343.372 350.323 307.52 374.853 291.536C374.853 291.536 385.367 291.303 391.129 294.447C397.059 297.659 409.705 324.084 411.846 328.763C413.997 333.438 437.225 376.884 438.773 377.867C440.33 378.84 463.512 383.88 473.848 386.042C488.818 389.167 516.936 395.011 516.936 395.011L511.677 418.476Z" fill="#0B4870"/>
<path d="M305.706 468.355C305.706 468.355 302.602 468.232 301.273 467.515C301.273 467.515 298.954 466.025 297.242 465.07C296.694 464.768 296.21 464.517 295.886 464.385C294.516 463.85 291.348 463.055 288.422 460.825C285.504 458.604 275.981 449.684 275.981 449.684L282.135 440.216L284.97 430.835C284.97 430.835 307.172 433.037 310.139 434.806C310.422 434.984 310.705 435.162 310.952 435.35C313.321 437.081 314.348 439.375 315.481 440.417C315.901 440.81 319.758 444.95 319.553 446.627C319.252 448.967 318.106 450.457 316.654 451.169C316.654 451.169 315.873 455.702 313.527 457.74C313.527 457.74 312.933 461.944 309.299 463.649C309.304 463.653 308.231 467.857 305.706 468.355Z" fill="#DCA787"/>
<path d="M275.192 455.788C275.192 455.788 287.541 445.639 294.23 430.834L256.342 410.066L242.28 438.721L275.192 455.788Z" fill="#0B4870"/>
<path d="M354.964 187.53C354.964 187.53 363.885 204.103 359.457 206.671C355.804 208.796 363.739 225.054 364.78 227.709C365.821 230.368 358.16 232.296 356.53 234.01C354.905 235.714 350.084 256.752 343.77 257.373C337.465 258.018 309.037 248.12 301.294 240.06C293.56 232.009 287.21 195.622 292.373 180.283C297.541 164.934 339.205 158.596 354.964 187.53Z" fill="#DBA585"/>
<path d="M356.74 191.126C356.74 191.126 359.246 181.923 359.246 163.992C359.246 155.914 302.243 169.983 298.801 170.874C295.359 171.765 275.851 173.104 285.698 207.402C294.163 236.843 295.345 238.077 295.345 238.077C295.345 238.077 301.659 221.033 305.238 218.424C310.831 214.362 323.075 215.335 323.075 215.335C323.075 215.335 317.236 199.822 326.367 197.628C335.479 195.439 347.509 187.69 356.74 191.126Z" fill="#0B4870"/>
<path d="M315.129 211.086C314.321 208.952 311.714 199.804 303.88 205.177C296.037 210.551 308.76 227.792 310.126 228.015C311.5 228.23 321.904 228.989 315.129 211.086Z" fill="#DBA585"/>
<path d="M333.3 261.008C333.304 261.693 333.314 262.365 333.327 263.032C310.085 255.223 305.583 243.479 305.583 243.479C312.833 248.61 333.359 255.465 333.359 255.465C333.314 257.165 333.286 259.089 333.3 261.008Z" fill="#997761"/>
<path d="M60.8401 270.781C60.8401 270.781 75.988 279.847 79.6449 294.076C83.3109 308.292 79.266 326.186 78.8368 332.469C78.3985 338.752 82.1833 401.106 83.2972 403.071C84.3929 405.036 99.5591 434.888 106.01 454.966C112.447 475.049 128.704 503.402 128.704 503.402L104.503 513.834C104.503 513.834 57.0829 439.037 54.0241 418.214C50.7507 395.984 37.009 330.038 37.009 330.038C37.009 330.038 25.1207 273.582 60.8401 270.781Z" fill="#D3D3D3"/>
<path d="M81.8993 165.767C93.6094 165.525 119.385 172.146 122.513 203.286C122.513 203.286 121.339 211.621 119.13 218.137C116.92 224.653 122.257 244.196 120.696 245.106C119.13 246.015 112.752 247.061 112.752 247.061C112.752 247.061 105.333 268.035 97.9145 267.642C90.4958 267.258 62.5512 260.655 50.0604 233.943C37.5513 207.23 34.6112 166.722 81.8993 165.767Z" fill="#EEA886"/>
<path d="M3238.32 180.131C3227.4 179.898 3203.36 186.085 3200.45 215.123C3200.45 215.123 3201.54 222.896 3203.6 228.973C3205.67 235.041 3200.69 253.264 3202.15 254.123C3203.6 254.973 3209.56 255.942 3209.56 255.942C3209.56 255.942 3216.48 275.503 3223.39 275.138C3230.31 274.772 3256.38 268.612 3268.03 243.705C3279.69 218.802 3282.43 181.022 3238.32 180.131Z" fill="#DEA787"/>
<path d="M122.514 203.286C122.514 203.286 103.161 215.711 84.242 217.79C65.3277 219.878 52.741 239.006 52.741 239.006C52.741 239.006 25.0657 202.158 49.0156 173.676C72.961 145.177 127.631 167.238 122.514 203.286Z" fill="#0E538C"/>
<path d="M61.6067 184.587C53.5077 195.993 39.9714 200.279 31.3839 194.156C22.7828 188.042 22.3948 173.835 30.4937 162.439C38.6064 151.042 52.1381 146.747 60.7302 152.861C69.3131 158.979 69.7102 173.191 61.6067 184.587Z" fill="#0E538C"/>
<path d="M56.1364 267.641C57.9534 257.995 56.1364 244.054 56.1364 244.054C56.1364 244.054 91.3673 260.348 85.2634 264.767C83.6793 265.919 82.5744 268.13 81.8257 270.78C79.6708 278.297 80.2781 289.319 80.2781 289.319L91.9654 303.251C102.279 317.421 55.2553 272.334 56.1364 267.641Z" fill="#EEA886"/>
<path d="M76.4402 216.707C76.4402 213.047 72.5323 207.463 66.4147 212.27C60.2926 217.1 67.8391 234.678 72.7879 233.115C77.7322 231.557 76.4402 220.481 76.4402 216.707Z" fill="#EEA886"/>
<path d="M85.2626 264.767C83.6784 265.919 82.5735 268.13 81.8248 270.78C68.1606 262.588 61.4404 250.292 61.235 249.908C68.6902 259.106 85.2626 264.767 85.2626 264.767Z" fill="#A77860"/>
<path opacity="0.9" d="M3180.54 167.144H3086.69C3072.49 167.144 3060.87 155.514 3060.87 141.299V98.2278C3060.87 84.0123 3072.49 72.374 3086.69 72.374H3180.54C3194.74 72.374 3206.37 84.0123 3206.37 98.2278V141.299C3206.37 155.514 3194.74 167.144 3180.54 167.144Z" fill="#FC6767"/>
<path d="M3178.91 107.321H3088.52C3086.59 107.321 3085.03 105.759 3085.03 103.821C3085.03 101.902 3086.59 100.33 3088.52 100.33H3178.91C3180.83 100.33 3182.4 101.902 3182.4 103.821C3182.39 105.759 3180.83 107.321 3178.91 107.321Z" fill="white"/>
<path d="M3178.91 124.447H3088.52C3086.59 124.447 3085.03 122.884 3085.03 120.947C3085.03 119.018 3086.59 117.455 3088.52 117.455H3178.91C3180.83 117.455 3182.4 119.018 3182.4 120.947C3182.39 122.884 3180.83 124.447 3178.91 124.447Z" fill="white"/>
<path d="M3178.91 141.573H3088.52C3086.59 141.573 3085.03 140.01 3085.03 138.082C3085.03 136.145 3086.59 134.591 3088.52 134.591H3178.91C3180.83 134.591 3182.4 136.145 3182.4 138.082C3182.39 140.01 3180.83 141.573 3178.91 141.573Z" fill="white"/>
<path opacity="0.9" d="M3136.98 208.718L3096.8 164.6H3131.27L3136.98 208.718Z" fill="#FC6767"/>
<path opacity="0.9" d="M335.214 94.7695H429.059C443.262 94.7695 454.886 83.1404 454.886 68.9159V25.8446C454.886 11.6383 443.262 0 429.059 0H335.214C321.015 0 309.387 11.6383 309.387 25.8446V68.9159C309.383 83.1404 321.011 94.7695 335.214 94.7695Z" fill="#FC6767"/>
<path d="M336.842 34.9482H427.227C429.158 34.9482 430.715 33.3853 430.715 31.4477C430.715 29.5284 429.158 27.9473 427.227 27.9473H336.842C334.915 27.9473 333.354 29.5284 333.354 31.4477C333.354 33.3853 334.915 34.9482 336.842 34.9482Z" fill="white"/>
<path d="M336.842 52.0732H427.227C429.158 52.0732 430.715 50.5013 430.715 48.573C430.715 46.6447 429.158 45.082 427.227 45.082H336.842C334.915 45.082 333.354 46.6447 333.354 48.573C333.354 50.5013 334.915 52.0732 336.842 52.0732Z" fill="white"/>
<path d="M336.842 69.2002H427.227C429.158 69.2002 430.715 67.6283 430.715 65.7091C430.715 63.7717 429.158 62.209 427.227 62.209H336.842C334.915 62.209 333.354 63.7717 333.354 65.7091C333.354 67.6283 334.915 69.2002 336.842 69.2002Z" fill="white"/>
<path opacity="0.9" d="M378.776 136.339L418.946 92.2168H384.478L378.776 136.339Z" fill="#FC6767"/>
<path d="M133.009 405.141C133.009 405.141 135.593 393.315 135.059 390.583C134.534 387.86 138.314 385.922 138.789 392.635C139.268 399.356 139.496 403.628 139.496 403.628L133.009 405.141Z" fill="#EEA886"/>
<path opacity="0.9" d="M164.48 431.968H139.836L135.987 377.341H167.954L164.48 431.968Z" fill="#FC6767"/>
<path d="M132.023 407.927C132.023 407.927 131.822 403.742 139.962 400.251C150.773 395.627 165.14 391.057 167.505 392.487C170.901 394.539 169.002 397.121 162.204 399.058C155.416 400.996 153.169 401.613 153.169 401.613C153.169 401.613 166.34 400.9 169.217 402.595C172.093 404.281 172.107 407.914 169.938 408.421C167.76 408.928 162.674 409.088 162.674 409.088C162.674 409.088 168.231 409.518 168.692 411.784C169.034 413.443 169.144 415.828 163.839 416.596C163.839 416.596 167.254 420.699 161.793 423.029C156.333 425.35 146.55 427.27 141.642 427.877C131.456 429.125 112.241 425.798 112.241 425.798L118.669 411.437C118.669 411.437 124.129 413.059 127.818 411.606C132.598 409.737 132.023 407.927 132.023 407.927Z" fill="#EEA886"/>
<path d="M58.2084 267.651C58.2084 267.651 79.0356 287.455 86.847 296.306C94.6538 305.166 120.17 337.216 122.512 346.853C124.858 356.49 115.568 370.413 109.236 377.08C103.419 383.203 108.19 397.401 107.419 405.479C106.638 413.558 103.73 494.611 100.863 502.694C98.0002 510.773 25.2511 518.948 0 491.582C0 491.582 27.2279 432.841 35.0392 423.716C42.8506 414.591 29.054 356.225 24.3653 342.412C19.6767 328.612 28.5336 267.13 58.2084 267.651Z" fill="#F7F7F7"/>
<path d="M60.1225 279.285C54.8723 277.581 39.4734 279.623 36.8574 295.438C34.2597 311.244 33.2142 328.79 30.79 337.294C28.3612 345.807 16.82 393.823 22.0245 396.948C27.229 400.074 37.8846 403.437 50.1289 409.87C61.8528 416.039 118.856 439.992 118.856 439.992L123.294 410.085C123.294 410.085 112.364 407.481 102.466 402.614C92.5732 397.752 72.2664 384.72 54.0505 373.429C54.0505 373.429 61.8573 341.987 64.2861 335.393C66.7103 328.79 83.7255 286.925 60.1225 279.285Z" fill="#D3D3D3"/>
<path d="M169.016 374.082H134.935V380.598H169.016V374.082Z" fill="#0B4870"/>
<path d="M3398.71 835.952C3398.71 835.952 3391.24 841.28 3387.11 845.018C3382.97 848.747 3377.34 852.818 3373.9 862.35C3370.41 871.996 3363.52 886.349 3372.84 886.929C3382.18 887.491 3408.88 873.015 3410.27 864.466C3411.65 855.994 3422.61 856.995 3424.04 850.972C3425.47 844.94 3423.56 837.533 3423.56 837.533L3398.71 835.952Z" fill="#F57081"/>
<path d="M3399.95 828.947L3398.71 835.952C3398.71 835.952 3402.56 843.075 3423.56 837.533L3422.48 830.633L3399.95 828.947Z" fill="#81807E"/>
<path d="M3423.56 837.532C3423.56 837.532 3418.83 838.158 3415.46 838.693C3412.09 839.209 3405.41 834.9 3398.71 835.951L3400.77 844.464C3400.77 844.464 3423.09 840.278 3423.56 837.532Z" fill="#0B4870"/>
<path d="M3532.91 834.555C3532.91 834.555 3540.38 839.892 3544.51 843.62C3548.65 847.349 3554.28 851.43 3557.73 860.952C3561.21 870.598 3560.59 886.367 3551.26 886.943C3541.93 887.514 3522.75 871.626 3521.35 863.077C3519.97 854.605 3509.01 855.597 3507.58 849.584C3506.15 843.552 3508.05 836.136 3508.05 836.136L3532.91 834.555Z" fill="#F57081"/>
<path d="M3531.67 827.552L3532.91 834.547C3532.91 834.547 3529.06 841.671 3508.05 836.128L3509.14 829.229L3531.67 827.552Z" fill="#81807E"/>
<path d="M3541.73 668.202C3541.73 683.605 3539.53 828.818 3539.53 828.818C3537.99 833.949 3509.25 835.635 3504.13 833.067C3499 830.504 3499.9 686.498 3498.95 670.976C3498 655.458 3485.54 541.263 3481.05 541.784C3476.56 542.291 3451.14 649.86 3447.55 661.658C3443.96 673.457 3429.84 832.245 3429.84 832.245C3412.3 838.349 3394.38 832.985 3394.38 832.985C3394.38 832.985 3401.08 672.173 3401.09 653.073C3401.09 645.976 3403.18 640.621 3405.18 602.941C3406.71 574.222 3414.7 515.363 3420.04 474.874C3420.23 473.439 3420.41 472.054 3420.6 470.725C3421.64 462.842 3422.42 457.053 3422.8 454.284C3422.96 453.077 3423.06 452.438 3423.06 452.438C3424.49 451.771 3426 451.163 3427.57 450.592C3465.11 437.098 3537.53 451.387 3537.53 451.387C3537.53 451.387 3537.57 451.743 3537.64 452.415C3537.74 453.228 3537.9 454.503 3538.09 456.153C3538.5 459.721 3539.13 465.04 3539.84 471.218C3539.85 471.264 3539.85 471.309 3539.86 471.351C3539.88 471.529 3539.9 471.725 3539.92 471.913C3542.45 493.869 3543.7 505.932 3545.69 529.369C3546.13 534.509 3541.73 652.817 3541.73 668.202Z" fill="#D3D3D3"/>
<path d="M3508.05 836.129C3508.05 836.129 3512.79 836.755 3516.16 837.29C3519.53 837.815 3526.21 833.506 3532.91 834.548L3530.85 843.07C3530.85 843.075 3508.53 838.889 3508.05 836.129Z" fill="#0B4870"/>
<path d="M3200.28 210.855C3200.28 210.855 3198.66 174.56 3234.71 173.281C3270.75 172.024 3280.46 201.735 3277.5 223.376C3274.56 245.035 3259.63 256.449 3259.63 256.449C3259.63 256.449 3260.92 238.93 3253.92 234.379C3246.93 229.828 3218.89 220.762 3206.67 199.66C3206.68 199.665 3201.01 206.322 3200.28 210.855Z" fill="#0E538C"/>
<path d="M3508.91 449.879C3508.91 449.879 3502.86 440.703 3496.44 439.524C3490.02 438.346 3584.87 392.454 3584.61 376.068C3584.42 362.762 3551.4 338.247 3551.4 338.247C3551.4 338.247 3551.41 338.21 3551.4 338.247C3551.39 338.256 3551.4 338.005 3551.4 338.014C3551.4 338.041 3551.4 337.995 3551.4 338.014C3550.68 340.646 3539.9 379.925 3539.56 397.426C3539.2 415.599 3540.64 478.095 3540.64 478.095L3516.33 484.611L3438.68 485.324L3420.96 478.095C3420.96 478.095 3422.9 457.999 3423.61 443.879C3424.06 434.909 3425.8 418.843 3425.35 403.202C3425.35 403.202 3425.64 386.71 3424.01 379.614C3423.83 348.272 3421.93 317.223 3421.93 317.223C3420.88 303.016 3420.14 289.723 3419.73 277.331C3423.16 275.522 3427.27 273.397 3430.58 271.825C3440.77 266.963 3454.99 260.41 3464.1 256.216C3469.45 253.771 3474.67 251.975 3474.67 251.975C3474.67 251.975 3511.11 248.484 3514.08 248.671C3515.01 248.735 3519.56 250.312 3525.54 252.587C3538.47 257.495 3563.38 267.493 3567.36 270.349C3573.17 274.516 3611.27 375.401 3611.82 382.337C3612.82 394.83 3508.91 449.879 3508.91 449.879Z" fill="#CCE9FF"/>
<path d="M3418.88 275.195C3419.29 287.797 3419.9 301.318 3420.97 315.794C3420.97 315.794 3421.99 351.143 3424.02 384.683C3424.7 389.486 3425.05 394.393 3424.67 399.41C3424.16 405.972 3423.45 413.128 3422.6 420.608C3422.58 420.699 3422.57 420.795 3422.56 420.887C3422.36 422.664 3422.14 424.437 3421.93 426.242C3421.93 426.27 3421.92 426.297 3421.92 426.324C3417.39 463.684 3409.7 506.55 3405.69 519.509C3404.84 522.223 3407.76 524.723 3409.85 526.656L3424.44 535.858C3424.44 535.858 3430.45 480.436 3432.44 461.623C3434.38 443.469 3440.44 419.132 3443.1 395.412V395.403C3446.46 365.309 3442.62 338.454 3445.13 320.944C3451.64 275.341 3468.79 252.32 3468.79 252.32C3464.65 253.545 3418.88 275.195 3418.88 275.195Z" fill="#0B4870"/>
<path d="M3573.72 369.539C3580.05 383.417 3515.67 408.165 3517.12 411.583C3520.61 419.803 3534.81 436.536 3534.81 436.536C3534.81 436.536 3619.57 394.571 3618.62 385.057C3617.93 378.13 3578.22 273.407 3572.4 269.231C3569.04 266.823 3544.15 257.985 3531.94 253.156C3529.7 252.283 3522.08 249.418 3520.08 248.659C3517.49 251.542 3499.63 271.273 3493.32 345.815C3492.26 358.372 3495.62 384.975 3497.86 406.689C3500.24 429.847 3502.9 447.928 3504.84 467.307C3508.66 505.471 3511.34 535.849 3511.34 535.849L3549.29 518.937C3555.43 515.857 3566.05 507.833 3563.74 501.363C3554.97 476.766 3541.8 430.153 3541.79 408.562C3541.79 408.562 3547.99 349 3551.35 337.389C3551.35 337.393 3566.65 354.012 3573.72 369.539Z" fill="#0B4870"/>
<path d="M3510.71 250.642C3510.71 250.642 3510.96 238.112 3515.78 212.783C3517.07 206.002 3476.44 230.623 3476.44 230.623C3476.44 230.623 3476.56 233.003 3476.65 236.22C3476.7 237.906 3476.72 239.835 3476.71 241.754C3476.7 242.439 3476.7 243.12 3476.68 243.778C3476.64 245.574 3476.56 247.297 3476.4 248.75C3476.25 250.258 3475.36 252.908 3475.05 253.639C3473.38 257.505 3497.03 260.443 3510.71 250.642Z" fill="#FCD2B1"/>
<path opacity="0.9" d="M3485.35 263.766C3485.35 263.766 3454.87 371.622 3460.14 448.238L3468.73 463.399L3476.78 447.511C3476.78 447.511 3482.88 310.465 3489.88 272.955L3485.35 263.766Z" fill="#FC6767"/>
<path d="M3478.14 255.33L3485.35 263.766C3485.35 263.766 3496.92 261.527 3500.32 255.476C3503.72 249.422 3478.14 255.33 3478.14 255.33Z" fill="#FCD2B1"/>
<path d="M3476.48 247.941C3476.48 247.941 3477.32 254.375 3485.34 263.765L3476.59 275.555L3471.84 251.108L3476.48 247.941Z" fill="#0B4870"/>
<path d="M3511.48 240.772C3511.48 240.772 3497.05 259.133 3485.34 263.761L3490.79 277.228L3515.65 247.151L3511.48 240.772Z" fill="#0B4870"/>
<path d="M3534.81 436.536C3534.81 436.536 3522.47 426.397 3515.78 411.582L3553.67 390.823L3567.73 419.474L3534.81 436.536Z" fill="#0B4870"/>
<path d="M3455.05 168.286C3455.05 168.286 3446.13 184.85 3450.55 187.423C3454.2 189.557 3446.27 205.815 3445.23 208.465C3444.18 211.115 3451.85 213.053 3453.48 214.757C3455.1 216.471 3459.93 237.5 3466.24 238.13C3472.55 238.765 3500.97 228.868 3508.71 220.816C3516.45 212.756 3522.8 176.378 3517.63 161.029C3512.47 145.681 3470.8 139.352 3455.05 168.286Z" fill="#FCD2B1"/>
<path d="M3453.26 171.873C3453.26 171.873 3435.13 153.504 3450.76 144.749C3495.38 119.758 3507.76 150.74 3511.21 151.621C3514.64 152.512 3534.15 153.851 3524.31 188.15C3515.85 217.6 3514.66 218.834 3514.66 218.834C3514.66 218.834 3508.34 201.781 3504.77 199.171C3499.18 195.109 3486.93 196.092 3486.93 196.092C3486.93 196.092 3492.77 180.578 3483.64 178.376C3474.53 176.182 3462.5 168.446 3453.26 171.873Z" fill="#0B4870"/>
<path d="M3494.87 191.828C3495.69 189.695 3498.29 180.556 3506.12 185.929C3513.97 191.303 3501.25 208.534 3499.88 208.758C3498.51 208.982 3488.1 209.741 3494.87 191.828Z" fill="#FCD2B1"/>
<path d="M3476.71 241.754C3476.71 242.439 3476.7 243.12 3476.68 243.778C3499.92 235.969 3504.43 224.235 3504.43 224.235C3497.18 229.367 3476.65 236.221 3476.65 236.221C3476.7 237.907 3476.72 239.835 3476.71 241.754Z" fill="#997761"/>
<path opacity="0.9" d="M3551.26 439.297L3436.11 516.933L3386.32 442.953L3499.53 362.435L3551.26 439.297Z" fill="#FC6767"/>
<path d="M3541.93 439.338L3439.66 508.291L3395.44 442.587L3495.99 371.075L3541.93 439.338Z" fill="#F7F7F7"/>
<path d="M3525.71 420.713L3532.88 415.878L3515 389.325L3507.13 393.118L3525.71 420.713Z" fill="#0B4870"/>
<path d="M3478.82 496.858C3478.82 496.858 3476.25 495.295 3475.47 494.066C3475.47 494.066 3474.21 491.699 3473.21 490.095C3472.89 489.579 3472.6 489.149 3472.39 488.87C3471.49 487.774 3469.18 485.612 3467.75 482.345C3466.33 479.087 3462.47 467.065 3462.47 467.065L3472.13 461.952L3479.69 457.83C3479.69 457.83 3496.67 467.691 3498.34 470.583C3498.5 470.867 3498.65 471.155 3498.77 471.433C3499.96 474.001 3499.76 476.423 3500.22 477.849C3500.39 478.374 3501.7 483.702 3500.73 485.014C3499.39 486.841 3497.71 487.577 3496.15 487.477C3496.15 487.477 3493.36 490.949 3490.42 491.571C3490.42 491.571 3487.93 494.847 3484.07 494.568C3484.07 494.573 3481.19 497.625 3478.82 496.858Z" fill="#EEA886"/>
<path d="M3463.86 474.357C3463.86 474.357 3396.88 428.393 3388.01 413.68C3383.9 406.871 3387.45 388.826 3389.48 373.126C3390.15 367.958 3391 362.694 3391.94 357.553C3391.94 357.544 3391.95 357.535 3391.95 357.535C3395.68 337.054 3400.72 318.882 3400.72 318.882C3400.72 318.882 3405.02 265.067 3437.83 272.026C3437.83 272.026 3446.51 280.37 3448.64 287.59C3450.83 295.006 3439.68 326.654 3437.61 332.179C3435.57 337.703 3419.18 391.714 3419.65 393.761C3420.11 395.813 3438.07 414.895 3446.64 423.426C3462.59 439.305 3484.54 461.312 3484.54 461.312L3463.86 474.357Z" fill="#0B4870"/>
</svg>
