<svg width="2198" height="1597" viewBox="0 0 2198 1597" fill="none" xmlns="http://www.w3.org/2000/svg">
<path opacity="0.31" d="M2197.41 1581.45C2192.84 1581.52 2164.69 1538.18 2159.29 1532.18C2115.2 1483.05 2088.75 1429.07 2068.87 1370.35C2053.72 1325.58 2042.42 1278.03 2030.08 1227.85C2021.75 1194.01 2008.33 1156.18 1979.24 1145.51C1950.93 1135.14 1920.45 1156.64 1903.05 1184.34C1885.63 1212.05 1876.87 1245.65 1861.99 1275.24C1834.99 1328.86 1787.21 1351.34 1747.69 1304.2C1691.27 1236.85 1665.85 1145.02 1630.06 1062.88C1604.09 1003.25 1582.33 933.432 1549.6 878.442C1499.7 794.632 1431.24 723.138 1340.24 723.138C1282.55 733.186 1231.73 792.05 1197.31 865.567C1162.91 939.085 1142.82 1026.56 1125.73 1113.79C1111.4 1186.96 1098.82 1260.93 1087.19 1335.28C1065.55 1245.68 1043.04 1156.74 1018.67 1069.34C992.279 974.675 963.128 880.361 922.644 804.611C882.16 728.86 828.554 672.998 774.737 673.381C691.799 691.874 638.284 786.153 603.194 890.62C580.194 959.113 569.043 1042.09 552.74 1114.45C530.316 1214.14 518.558 1322.58 475.468 1409.85C445.317 1470.91 398.954 1455.35 367.712 1400.46C350.47 1370.18 338.319 1334.17 319.016 1306.53C299.713 1278.9 269.259 1260.89 244.774 1278.31C219.593 1296.21 212.048 1341.53 208.654 1381.27C203.623 1440.28 199.23 1496.03 190.957 1549.49C189.169 1561.14 187.169 1572.66 184.957 1584.07H1050.88C1050.28 1588.32 1049.67 1592.61 1049.1 1596.87L2197.41 1581.45Z" fill="#DCE6EF"/>
<path opacity="0.77" d="M1850.94 1445.93C1848.69 1497.32 1800.12 1587.17 1755.48 1584.59C1710.85 1582.01 1687.03 1487.94 1689.3 1436.54C1691.54 1385.15 1739.09 1127.92 1783.73 1130.54C1828.33 1133.12 1853.18 1394.53 1850.94 1445.93Z" fill="#FC6767"/>
<path d="M1759.06 1581.83C1759.03 1581.83 1759 1581.83 1759 1581.83C1758.36 1581.8 1757.84 1581.14 1757.91 1580.4L1780.42 1163.86C1780.45 1163.13 1780.97 1162.5 1781.66 1162.6C1782.3 1162.64 1782.81 1163.3 1782.75 1164.04L1760.24 1580.58C1760.18 1581.28 1759.66 1581.83 1759.06 1581.83Z" fill="#0B4870"/>
<path opacity="0.77" d="M1748.75 1435.22C1738.6 1460.93 1730.85 1487.9 1726.18 1516.03C1723.82 1530.26 1722.3 1545.72 1727.91 1558.73C1734.03 1572.94 1747.6 1581.2 1761.18 1583.79C1794.36 1590.07 1827.54 1566.65 1847 1535.08C1866.45 1503.5 1874.87 1464.87 1882.6 1427.23C1888.69 1397.57 1894.66 1367.46 1906.15 1339.82C1911.06 1327.96 1939.87 1282.21 1926.24 1270.35C1907.6 1253.5 1853.66 1271.82 1819.12 1315.29C1790.63 1351.02 1766.15 1391.25 1748.75 1435.22Z" fill="#FC6767"/>
<path d="M1761.18 1585.11C1761.09 1585.11 1761 1585.11 1760.87 1585.08C1760.24 1584.9 1759.87 1584.13 1760.03 1583.44C1760.42 1581.62 1801.3 1402.31 1897.15 1300.22C1897.63 1299.73 1898.36 1299.73 1898.81 1300.29C1899.27 1300.85 1899.24 1301.68 1898.75 1302.21C1803.39 1403.74 1762.72 1582.32 1762.33 1584.1C1762.21 1584.73 1761.72 1585.11 1761.18 1585.11Z" fill="#0B4870"/>
<path opacity="0.77" d="M1983.39 1392.89C1979.97 1399.97 1973.54 1404.79 1967.69 1408.56C1960.51 1413.23 1952.84 1417.32 1945.42 1421.29C1935.91 1426.39 1926.09 1431.66 1917 1438.22C1910.39 1443 1904.51 1448.4 1899.57 1454.2C1907.36 1433.82 1916.48 1416.03 1927.21 1400.11C1941.33 1379.18 1955.81 1368.57 1970.33 1368.57C1970.66 1368.57 1971 1368.57 1971.33 1368.61C1975.81 1368.75 1979.3 1370.04 1981.69 1372.41C1986.63 1377.26 1986.42 1386.61 1983.39 1392.89Z" fill="#FC6767"/>
<path d="M1852.78 1586.16C1852.18 1586.09 1851.6 1585.57 1851.6 1584.8C1851.6 1583.68 1853.39 1473.14 1969.09 1380.5C1969.63 1380.09 1970.36 1380.23 1970.72 1380.85C1971.08 1381.48 1970.96 1382.32 1970.42 1382.74C1855.72 1474.57 1853.93 1583.72 1853.93 1584.8C1853.97 1585.53 1853.45 1586.16 1852.78 1586.16Z" fill="#0B4870"/>
<path d="M483.22 1424.12C466.403 1401.76 445.1 1382.5 438.373 1354.27C433.464 1333.65 437.342 1311.84 439.251 1290.59C441.16 1269.34 440.494 1245.83 428.555 1229.5C418.706 1216.03 403.161 1210.17 388.222 1206.47C373.283 1202.77 357.677 1200.43 344.404 1191.67C322.859 1177.44 327.162 1153.26 315.586 1132.04C302.617 1108.25 272.405 1077.85 246.527 1093.66C219.133 1110.41 223.466 1161.25 241.678 1183.68C253.769 1198.58 269.254 1212.85 271.042 1233.16C273.708 1263.69 243.345 1291.18 251.678 1320.35C257.86 1341.88 281.405 1349.28 293.072 1367.56C304.587 1385.67 302.253 1411 295.496 1432.04C288.708 1453.08 278.042 1472.52 273.829 1494.4C265.193 1539.2 295.738 1570.15 330.526 1580.16C362.495 1589.34 431.433 1585.01 431.433 1585.01C456.039 1575.1 483.311 1550.22 496.857 1523.01C507.069 1502.46 508.493 1476.43 500.584 1454.55C496.493 1443.31 490.251 1433.44 483.22 1424.12Z" fill="#FC6767"/>
<path d="M407.833 1585.01C407.227 1585.01 406.682 1584.45 406.651 1583.72C394.015 1354.23 277.502 1144.6 276.32 1142.51C275.956 1141.88 276.108 1141.04 276.683 1140.62C277.229 1140.2 277.956 1140.38 278.32 1141.04C279.502 1143.13 396.348 1353.39 409.045 1583.54C409.076 1584.28 408.591 1584.94 407.954 1584.97C407.894 1585.01 407.863 1585.01 407.833 1585.01Z" fill="#0B4870"/>
<path d="M1439.12 1528.59H608.285C589.982 1528.59 575.104 1511.46 575.104 1490.38V202.862C575.104 181.787 589.982 164.655 608.285 164.655H856.615V175.123H608.285C595.012 175.123 584.194 187.579 584.194 202.862V1490.38C584.194 1505.66 595.012 1518.12 608.285 1518.12H1439.12C1452.39 1518.12 1463.21 1505.66 1463.21 1490.38V202.862C1463.21 187.579 1452.39 175.123 1439.12 175.123H1190.85V164.655H1439.12C1457.42 164.655 1472.3 181.787 1472.3 202.862V1490.38C1472.3 1511.42 1457.42 1528.59 1439.12 1528.59Z" fill="#FC6767"/>
<path d="M1404.46 1460.9H642.953C636.498 1460.9 631.256 1454.86 631.256 1447.43V245.814C631.256 238.382 636.498 232.346 642.953 232.346H1404.46C1410.91 232.346 1416.15 238.382 1416.15 245.814V1447.43C1416.15 1454.86 1410.91 1460.9 1404.46 1460.9Z" fill="#F2F2F2"/>
<path d="M1194.79 268.005H852.615V139.079H951.675C952.341 93.9985 984.401 57.5361 1023.7 57.5361C1063.01 57.5361 1095.07 93.9985 1095.73 139.079H1194.79V268.005ZM861.706 257.538H1185.7V149.547H1086.25L1086.55 142.638C1086.58 141.94 1086.64 141.207 1086.64 140.475C1086.64 100.523 1058.4 68.0038 1023.7 68.0038C989.007 68.0038 960.765 100.523 960.765 140.475C960.765 141.207 960.826 141.94 960.856 142.638L961.159 149.547H861.706V257.538Z" fill="#FC6767"/>
<path d="M1023.7 189.359C1000.31 189.359 981.25 167.446 981.25 140.475C981.25 113.503 1000.28 91.5908 1023.7 91.5908C1047.13 91.5908 1066.16 113.503 1066.16 140.475C1066.16 167.446 1047.1 189.359 1023.7 189.359ZM1023.7 102.093C1005.31 102.093 990.341 119.33 990.341 140.51C990.341 161.689 1005.31 178.926 1023.7 178.926C1042.1 178.926 1057.07 161.689 1057.07 140.51C1057.07 119.33 1042.1 102.093 1023.7 102.093Z" fill="#FC6767"/>
<path d="M861.313 573.416H730.193V422.438H861.313V573.416ZM733.224 569.927H858.282V425.927H733.224V569.927Z" fill="#0B4870"/>
<path d="M800.073 540.129L756.74 500.945L764.225 489.989L799.255 521.636L875.102 437.511L883.496 447.56L800.073 540.129Z" fill="#0B4870"/>
<path d="M861.313 810.857H730.193V659.879H861.313V810.857ZM733.224 807.367H858.282V663.368H733.224V807.367Z" fill="#0B4870"/>
<path d="M800.073 777.569L756.74 738.386L764.225 727.429L799.255 759.077L875.102 674.952L883.496 685.001L800.073 777.569Z" fill="#0B4870"/>
<path d="M861.313 1048.3H730.193V897.319H861.313V1048.3ZM733.224 1044.81H858.282V900.809H733.224V1044.81Z" fill="#0B4870"/>
<path d="M800.073 1015.01L756.74 975.827L764.225 964.871L799.255 996.518L875.102 912.394L883.496 922.442L800.073 1015.01Z" fill="#0B4870"/>
<path d="M861.313 1285.74H730.193V1134.76H861.313V1285.74ZM733.224 1282.25H858.282V1138.25H733.224V1282.25Z" fill="#0B4870"/>
<path d="M800.073 1252.45L756.74 1213.27L764.225 1202.31L799.255 1233.96L875.102 1149.83L883.496 1159.88L800.073 1252.45Z" fill="#0B4870"/>
<path d="M1359.76 1009.95C1366.55 1004.4 1372.79 997.983 1375.67 996.099C1376.88 995.331 1380.64 994.354 1381.7 993.971C1384.85 992.889 1389.88 991.772 1392.06 988.946L1401.39 977.153C1405.82 971.36 1411.61 969.441 1416.61 974.536C1422.03 980.049 1420.42 987.899 1415.03 993.482L1408.64 1001.86C1404.33 1006.32 1402.18 1012.6 1399.79 1018.67C1394.94 1031.06 1383.94 1040.38 1374.55 1046.9C1368.64 1050.98 1359.7 1048.09 1347.97 1043.48C1342.21 1041.21 1333.88 1035.74 1341.06 1032.63C1347.09 1030.05 1365.21 1035.67 1373.21 1016.44C1373.61 1015.5 1374.46 1012.99 1373.64 1012.11C1371.21 1009.5 1365.85 1015.43 1362.27 1017.31C1357.24 1019.97 1353.21 1019.06 1351.97 1016.93C1350.64 1014.7 1354.91 1013.93 1359.76 1009.95Z" fill="#FAB9AF"/>
<path d="M1615.29 587.742C1615.29 587.742 1600.32 794.652 1546.59 864.471C1514.23 906.551 1435.05 978.708 1416.71 995.247C1414.38 997.34 1411.11 997.445 1408.68 995.491C1407.14 994.235 1405.38 992.7 1403.87 991.165C1402.32 989.594 1400.53 987.327 1398.93 985.163C1396.26 981.569 1396.38 976.231 1399.17 972.777C1419.71 947.061 1500.32 845.141 1510.14 818.344C1521.38 787.604 1540.74 606.13 1558.53 579.856C1576.32 553.513 1610.41 547.825 1615.29 587.742Z" fill="#FC6767"/>
<path d="M1546.94 929.944L1592.76 559.389L1716.3 539.85L1780.57 927.292L1546.94 929.944Z" fill="#FAB9AF"/>
<path d="M1684.6 933.538L1547.67 920.313C1547.67 920.313 1533.88 1035.07 1568.48 1242.79C1584.73 1340.21 1618.54 1526.36 1618.54 1526.36C1626.94 1530.58 1635.45 1531.62 1644.12 1529.15C1644.12 1529.15 1646.7 1447.05 1648.27 1358.59C1649.79 1273.81 1650.18 1183.19 1654.88 1153.53C1664.45 1092.96 1684.6 933.538 1684.6 933.538Z" fill="#0B4870"/>
<path d="M1656.33 935.526C1642.18 1022.9 1610.6 1153.53 1671.45 1276.25C1732.27 1398.96 1796.18 1526.56 1796.18 1526.56C1804.42 1526.95 1811.88 1523.53 1818.81 1517.46C1818.81 1517.46 1808.15 1461.84 1792.72 1396.87C1775.09 1322.55 1752.75 1235.15 1759.12 1189.58C1771.06 1104.16 1784.75 990.412 1780.6 935.143C1776.42 879.874 1663.76 889.608 1656.33 935.526Z" fill="#0B4870"/>
<path d="M1542.21 920.523L1592.76 559.389L1716.33 539.85L1782.72 921.186C1783.97 928.339 1779.94 935.317 1773.69 936.678C1750.69 941.702 1695.21 952.17 1633.09 952.17C1586.73 952.17 1560.67 941.807 1548.82 935.212C1544.03 932.561 1541.36 926.594 1542.21 920.523Z" fill="#F2F2F2"/>
<path d="M1786.78 1060.3C1788.66 1050.98 1789.69 1041.39 1790.75 1037.79C1791.21 1036.29 1793.48 1032.7 1794.06 1031.58C1795.81 1028.37 1798.93 1023.7 1798.93 1019.93L1799.18 1003.98C1799.18 996.273 1802.42 990.446 1809.09 990.446C1816.33 990.446 1819.63 997.564 1818.78 1005.87V1017.03C1818.12 1023.66 1820.12 1030.01 1821.81 1036.4C1825.27 1049.38 1822.39 1064.73 1819.09 1076.8C1817.03 1084.38 1808.63 1089.02 1797.21 1094.46C1791.6 1097.15 1782.18 1099.38 1785.78 1091.6C1788.81 1085.07 1805.63 1075.51 1800.6 1054.96C1800.36 1053.95 1799.57 1051.4 1798.45 1051.37C1795.12 1051.26 1794.51 1059.78 1792.9 1063.93C1790.66 1069.76 1787.12 1072.13 1784.93 1071.5C1782.66 1070.8 1785.42 1066.96 1786.78 1060.3Z" fill="#FAB9AF"/>
<path d="M1679 560.95C1679 586.979 1683.12 612.73 1690.82 637.189C1705.91 685.026 1728.57 775.466 1715.09 855.16C1695.73 969.92 1670.79 1016.29 1703.09 1043.05C1735.39 1069.78 1797.33 1025.19 1799.12 1010.29C1800.91 995.426 1787.06 812.696 1771.39 733.526C1755.7 654.356 1711.76 540.538 1711.76 540.538L1693.15 542.841C1685.09 543.818 1679 551.634 1679 560.95Z" fill="#FC6767"/>
<path d="M1736.22 549.342C1736.22 549.342 1843.86 715.952 1843.64 809.218C1843.52 865.429 1825.58 979.841 1821.34 1006.22C1820.8 1009.57 1818.43 1012.15 1815.46 1012.5C1813.58 1012.74 1811.37 1012.92 1809.37 1012.92C1807.34 1012.92 1804.67 1012.57 1802.22 1012.19C1798.16 1011.52 1795.19 1007.44 1795.28 1002.7C1795.92 967.768 1797.86 829.944 1789.8 802.344C1780.55 770.697 1690.86 619.894 1689.1 586.606C1687.31 553.354 1709.65 523.103 1736.22 549.342Z" fill="#FC6767"/>
<path d="M1627.7 553.193C1627.7 553.193 1606.27 606.508 1613.73 683.131C1621.21 759.754 1638.51 993.078 1577.97 1028.32C1558.79 1039.48 1515 990.077 1515 971.724C1515 953.37 1529.61 892.03 1543.45 836.237C1557.3 780.445 1590.67 559.02 1590.67 559.02L1627.7 553.193Z" fill="#FC6767"/>
<path d="M1643.51 388.802C1671.09 388.802 1681.39 411.412 1681.91 453.213C1682.12 468.879 1676 484.371 1671.06 494.281C1667.39 501.643 1666.39 510.366 1668.48 518.496L1674.54 542.083C1678.67 563.96 1669.64 575.998 1656.3 580.36C1649.7 582.523 1641.79 580.848 1636.03 576.556C1629.18 571.462 1628.61 560.471 1629.88 551.19L1631.45 544.456C1633.58 535.384 1629 525.614 1621.03 523.625C1599.79 518.286 1596.76 492.78 1591.06 453.213C1585.12 411.97 1615.94 388.802 1643.51 388.802Z" fill="#FAB9AF"/>
<path d="M1579.3 370.448L1595.12 375.996C1600.94 378.02 1607.12 378.09 1612.97 376.136L1644.54 365.598C1663.66 365.598 1695.27 378.02 1691.27 409.807L1687.75 432.277C1686.36 441.244 1679.85 447.979 1671.94 448.746C1671.21 451.852 1668.76 454.015 1665.97 454.015C1662.54 454.015 1659.79 450.84 1659.79 446.897C1659.79 436.743 1653.6 428.125 1645.03 425.892C1634.48 423.17 1623.24 422.507 1611.45 426.171C1589.51 432.975 1566.36 417.308 1564.18 391.244C1564.03 389.604 1563.97 387.929 1563.97 386.219C1563.94 375.682 1571.48 367.971 1579.3 370.448Z" fill="#0B4870"/>
<path d="M1666.73 453.98C1666.73 463.68 1669.85 471.531 1677.97 471.531C1686.09 471.531 1691.27 458.202 1691.27 448.502C1691.27 438.802 1686.06 436.429 1677.97 436.429C1669.85 436.429 1666.73 444.315 1666.73 453.98Z" fill="#FAB9AF"/>
<path d="M1670.06 496.549C1670.06 496.549 1649.45 529.138 1623.85 524.742C1623.85 524.742 1629.18 527.673 1630.45 532.418C1630.45 532.418 1654.78 530.359 1670.06 496.549Z" fill="#E8948B"/>
<path d="M1724.7 42.1138C1724.7 64.7588 1711.73 83.147 1695.7 83.147H1351.85C1335.85 83.147 1322.85 64.7937 1322.85 42.1138C1322.85 19.4688 1335.82 1.08057 1351.85 1.08057H1695.7C1711.73 1.11546 1724.7 19.4688 1724.7 42.1138Z" fill="#F2F2F2"/>
<path d="M493.893 261.794C493.893 284.439 477.954 302.828 458.258 302.828H35.7784C16.112 302.828 0.142578 284.474 0.142578 261.794C0.142578 239.149 16.0817 220.761 35.7784 220.761H458.288C477.954 220.761 493.893 239.114 493.893 261.794Z" fill="#F2F2F2"/>
<path d="M666.619 41.9739C666.619 64.619 653.407 83.0073 637.135 83.0073H287.533C271.261 83.0073 258.049 64.6539 258.049 41.9739C258.049 19.3288 271.261 0.940674 287.533 0.940674H637.135C653.407 0.940674 666.619 19.294 666.619 41.9739Z" fill="#F2F2F2"/>
<path d="M2101.11 219.784C2101.11 242.429 2085.17 260.817 2065.48 260.817H1643C1623.33 260.817 1607.36 242.464 1607.36 219.784C1607.36 197.139 1623.3 178.751 1643 178.751H2065.51C2085.17 178.786 2101.11 197.139 2101.11 219.784Z" fill="#F2F2F2"/>
<path d="M943.45 469.107L939.55 468.507V466.007H946.1C947.133 466.007 948.617 465.94 950.55 465.807C952.483 465.673 953.933 465.607 954.9 465.607C961.1 465.607 965.7 467.173 968.7 470.307C971.733 473.407 973.25 477.773 973.25 483.407C973.25 487.34 972.467 490.84 970.9 493.907C969.367 496.94 967.2 499.307 964.4 501.007C961.6 502.707 958.383 503.557 954.75 503.557C953.95 503.557 952.583 503.49 950.65 503.357C948.65 503.223 947.15 503.157 946.15 503.157H939.3V500.707L943.45 500.207V469.107ZM948.75 500.357C949.917 500.623 951.417 500.757 953.25 500.757H954.75C957.25 500.723 959.45 500.09 961.35 498.857C963.283 497.623 964.783 495.79 965.85 493.357C966.917 490.89 967.45 487.907 967.45 484.407C967.45 479.14 966.3 475.14 964 472.407C961.733 469.673 958.3 468.307 953.7 468.307C952.733 468.307 951.583 468.373 950.25 468.507C949.683 468.607 949.183 468.657 948.75 468.657V500.357ZM989.441 503.707C985.407 503.707 982.324 502.39 980.191 499.757C978.091 497.123 977.041 493.607 977.041 489.207C977.041 486.307 977.591 483.757 978.691 481.557C979.791 479.357 981.324 477.657 983.291 476.457C985.291 475.257 987.557 474.657 990.091 474.657C993.191 474.657 995.591 475.523 997.291 477.257C999.024 478.957 999.941 481.407 1000.04 484.607C1000.04 486.64 999.924 488.19 999.691 489.257H982.491C982.557 492.557 983.324 495.223 984.791 497.257C986.257 499.257 988.341 500.257 991.041 500.257C992.374 500.257 993.757 500.023 995.191 499.557C996.657 499.057 997.791 498.473 998.591 497.807L999.541 500.007C998.574 501.007 997.141 501.873 995.241 502.607C993.341 503.34 991.407 503.707 989.441 503.707ZM994.541 486.607C994.641 485.907 994.691 485.19 994.691 484.457C994.657 482.29 994.191 480.59 993.291 479.357C992.424 478.09 991.041 477.457 989.141 477.457C987.207 477.457 985.657 478.157 984.491 479.557C983.357 480.957 982.707 483.307 982.541 486.607H994.541ZM1008.99 499.157C1009.32 499.657 1010.02 500.107 1011.09 500.507C1012.19 500.907 1013.34 501.107 1014.54 501.107C1016.44 501.107 1017.84 500.74 1018.74 500.007C1019.64 499.273 1020.09 498.257 1020.09 496.957C1020.09 496.057 1019.8 495.273 1019.24 494.607C1018.67 493.94 1017.87 493.357 1016.84 492.857C1015.84 492.323 1014.39 491.69 1012.49 490.957C1009.92 489.99 1008.04 488.84 1006.84 487.507C1005.67 486.14 1005.09 484.357 1005.09 482.157C1005.09 480.69 1005.52 479.407 1006.39 478.307C1007.29 477.207 1008.5 476.357 1010.04 475.757C1011.6 475.123 1013.34 474.807 1015.24 474.807C1016.77 474.807 1018.1 474.923 1019.24 475.157C1020.4 475.39 1021.34 475.623 1022.04 475.857C1022.74 476.09 1023.2 476.24 1023.44 476.307V482.507H1020.39L1019.39 478.807C1019.19 478.407 1018.65 478.073 1017.79 477.807C1016.92 477.507 1015.95 477.357 1014.89 477.357C1013.39 477.357 1012.17 477.69 1011.24 478.357C1010.34 479.023 1009.89 479.923 1009.89 481.057C1009.89 482.057 1010.12 482.89 1010.59 483.557C1011.09 484.19 1011.7 484.707 1012.44 485.107C1013.17 485.507 1014.17 485.973 1015.44 486.507L1016.44 486.907C1018.3 487.64 1019.82 488.34 1020.99 489.007C1022.15 489.673 1023.12 490.557 1023.89 491.657C1024.69 492.723 1025.09 494.04 1025.09 495.607C1025.09 498.073 1024.12 500.04 1022.19 501.507C1020.29 502.973 1017.67 503.707 1014.34 503.707C1012.7 503.707 1010.99 503.49 1009.19 503.057C1007.42 502.59 1005.97 502.123 1004.84 501.657V495.257H1008.09L1008.99 499.157ZM1035.48 470.407C1034.42 470.407 1033.62 470.107 1033.08 469.507C1032.55 468.907 1032.28 468.14 1032.28 467.207C1032.28 466.14 1032.6 465.257 1033.23 464.557C1033.9 463.857 1034.8 463.507 1035.93 463.507C1037.07 463.507 1037.9 463.807 1038.43 464.407C1038.97 465.007 1039.23 465.773 1039.23 466.707C1039.23 467.84 1038.9 468.74 1038.23 469.407C1037.6 470.073 1036.7 470.407 1035.53 470.407H1035.48ZM1033.48 479.257L1029.68 478.357V475.707L1037.43 474.757H1037.53L1038.68 475.657V500.307L1042.68 500.707V503.157H1029.43V500.707L1033.48 500.257V479.257ZM1058.18 516.657C1053.92 516.657 1050.82 515.973 1048.88 514.607C1046.98 513.273 1046.03 511.423 1046.03 509.057C1046.03 507.59 1046.48 506.24 1047.38 505.007C1048.32 503.773 1049.42 502.84 1050.68 502.207C1049.15 501.34 1048.38 499.94 1048.38 498.007C1048.38 496.807 1048.73 495.673 1049.43 494.607C1050.13 493.54 1051.05 492.723 1052.18 492.157C1050.52 491.423 1049.23 490.373 1048.33 489.007C1047.47 487.64 1047.03 486.023 1047.03 484.157C1047.03 482.223 1047.57 480.54 1048.63 479.107C1049.73 477.673 1051.17 476.573 1052.93 475.807C1054.73 475.04 1056.63 474.657 1058.63 474.657C1062 474.657 1064.63 475.357 1066.53 476.757C1067.03 476.257 1067.8 475.773 1068.83 475.307C1069.87 474.84 1070.97 474.607 1072.13 474.607H1073.83V479.007H1068.33C1069.13 480.24 1069.53 481.673 1069.53 483.307C1069.53 485.273 1069.03 487.023 1068.03 488.557C1067.07 490.057 1065.7 491.223 1063.93 492.057C1062.2 492.89 1060.23 493.307 1058.03 493.307C1056.6 493.307 1055.32 493.157 1054.18 492.857C1053.72 493.323 1053.33 493.84 1053.03 494.407C1052.73 494.973 1052.58 495.523 1052.58 496.057C1052.58 497.257 1052.98 498.09 1053.78 498.557C1054.58 498.99 1056.02 499.207 1058.08 499.207H1063.73C1066.97 499.207 1069.37 499.823 1070.93 501.057C1072.5 502.29 1073.28 504.04 1073.28 506.307C1073.28 508.207 1072.6 509.94 1071.23 511.507C1069.87 513.107 1068.02 514.357 1065.68 515.257C1063.38 516.19 1060.88 516.657 1058.18 516.657ZM1058.53 490.557C1062.33 490.557 1064.23 488.307 1064.23 483.807C1064.23 481.573 1063.73 479.94 1062.73 478.907C1061.77 477.84 1060.3 477.307 1058.33 477.307C1056.5 477.307 1055.05 477.823 1053.98 478.857C1052.92 479.857 1052.38 481.473 1052.38 483.707C1052.38 485.807 1052.88 487.473 1053.88 488.707C1054.92 489.94 1056.47 490.557 1058.53 490.557ZM1058.63 513.757C1060.27 513.757 1061.8 513.507 1063.23 513.007C1064.7 512.54 1065.88 511.823 1066.78 510.857C1067.68 509.923 1068.13 508.823 1068.13 507.557C1068.13 506.057 1067.73 504.957 1066.93 504.257C1066.13 503.59 1064.58 503.257 1062.28 503.257H1056.38C1055.05 503.257 1054 503.173 1053.23 503.007C1051.87 504.507 1051.18 506.19 1051.18 508.057C1051.18 509.923 1051.75 511.34 1052.88 512.307C1054.02 513.273 1055.93 513.757 1058.63 513.757ZM1079.6 479.257L1076 478.357V475.657L1083.15 474.757H1083.3L1084.35 475.657V477.757L1084.3 478.957C1085.5 477.89 1087.09 476.923 1089.05 476.057C1091.02 475.19 1092.9 474.757 1094.7 474.757C1096.8 474.757 1098.42 475.157 1099.55 475.957C1100.72 476.757 1101.54 477.99 1102 479.657C1102.47 481.29 1102.7 483.507 1102.7 486.307V500.307L1106.2 500.657V503.157H1094.35V500.707L1097.45 500.307V486.257C1097.45 484.29 1097.32 482.757 1097.05 481.657C1096.79 480.523 1096.29 479.69 1095.55 479.157C1094.82 478.59 1093.75 478.307 1092.35 478.307C1091.15 478.307 1089.87 478.607 1088.5 479.207C1087.14 479.807 1085.92 480.507 1084.85 481.307V500.257L1088.25 500.707V503.157H1076.45V500.707L1079.6 500.257V479.257ZM1133.92 468.657L1125.32 468.957L1123.57 479.407H1120.27L1121.12 466.007H1152.27L1152.87 479.407H1149.72L1148.07 468.957L1139.42 468.657V500.207L1146.52 500.707V503.157H1127.42V500.707L1133.92 500.207V468.657ZM1158.99 465.857L1154.79 465.307V463.157L1162.94 462.207H1163.04L1164.14 462.957V474.557L1163.94 478.807C1165.01 477.84 1166.47 476.923 1168.34 476.057C1170.21 475.19 1172.09 474.757 1173.99 474.757C1176.09 474.757 1177.72 475.157 1178.89 475.957C1180.06 476.757 1180.87 477.99 1181.34 479.657C1181.81 481.29 1182.04 483.507 1182.04 486.307V500.257L1185.54 500.707V503.157H1173.59V500.707L1176.84 500.257V486.257C1176.84 484.29 1176.71 482.757 1176.44 481.657C1176.17 480.523 1175.67 479.69 1174.94 479.157C1174.21 478.59 1173.11 478.307 1171.64 478.307C1170.44 478.307 1169.16 478.607 1167.79 479.207C1166.42 479.807 1165.22 480.507 1164.19 481.307V500.257L1167.64 500.707V503.157H1155.99V500.707L1158.99 500.307V465.857ZM1195.15 470.407C1194.08 470.407 1193.28 470.107 1192.75 469.507C1192.22 468.907 1191.95 468.14 1191.95 467.207C1191.95 466.14 1192.27 465.257 1192.9 464.557C1193.57 463.857 1194.47 463.507 1195.6 463.507C1196.73 463.507 1197.57 463.807 1198.1 464.407C1198.63 465.007 1198.9 465.773 1198.9 466.707C1198.9 467.84 1198.57 468.74 1197.9 469.407C1197.27 470.073 1196.37 470.407 1195.2 470.407H1195.15ZM1193.15 479.257L1189.35 478.357V475.707L1197.1 474.757H1197.2L1198.35 475.657V500.307L1202.35 500.707V503.157H1189.1V500.707L1193.15 500.257V479.257ZM1208.9 479.257L1205.3 478.357V475.657L1212.45 474.757H1212.6L1213.65 475.657V477.757L1213.6 478.957C1214.8 477.89 1216.38 476.923 1218.35 476.057C1220.32 475.19 1222.2 474.757 1224 474.757C1226.1 474.757 1227.72 475.157 1228.85 475.957C1230.02 476.757 1230.83 477.99 1231.3 479.657C1231.77 481.29 1232 483.507 1232 486.307V500.307L1235.5 500.657V503.157H1223.65V500.707L1226.75 500.307V486.257C1226.75 484.29 1226.62 482.757 1226.35 481.657C1226.08 480.523 1225.58 479.69 1224.85 479.157C1224.12 478.59 1223.05 478.307 1221.65 478.307C1220.45 478.307 1219.17 478.607 1217.8 479.207C1216.43 479.807 1215.22 480.507 1214.15 481.307V500.257L1217.55 500.707V503.157H1205.75V500.707L1208.9 500.257V479.257ZM1241.75 465.857L1237.85 465.307V463.157L1245.8 462.207H1245.85L1246.95 462.957V487.407L1246.85 490.357L1258.4 478.407L1254.65 477.707V475.407H1266.75V477.707L1262.8 478.407L1255.45 485.557L1264.95 500.307L1268.05 500.707V503.157H1255.9V500.707L1259.05 500.257L1252 488.657L1246.85 493.757L1246.95 496.307V500.257L1250.5 500.707V503.157H1238.6V500.707L1241.75 500.257V465.857ZM1274.98 470.407C1273.92 470.407 1273.12 470.107 1272.58 469.507C1272.05 468.907 1271.78 468.14 1271.78 467.207C1271.78 466.14 1272.1 465.257 1272.73 464.557C1273.4 463.857 1274.3 463.507 1275.43 463.507C1276.57 463.507 1277.4 463.807 1277.93 464.407C1278.47 465.007 1278.73 465.773 1278.73 466.707C1278.73 467.84 1278.4 468.74 1277.73 469.407C1277.1 470.073 1276.2 470.407 1275.03 470.407H1274.98ZM1272.98 479.257L1269.18 478.357V475.707L1276.93 474.757H1277.03L1278.18 475.657V500.307L1282.18 500.707V503.157H1268.93V500.707L1272.98 500.257V479.257ZM1288.73 479.257L1285.13 478.357V475.657L1292.28 474.757H1292.43L1293.48 475.657V477.757L1293.43 478.957C1294.63 477.89 1296.22 476.923 1298.18 476.057C1300.15 475.19 1302.03 474.757 1303.83 474.757C1305.93 474.757 1307.55 475.157 1308.68 475.957C1309.85 476.757 1310.67 477.99 1311.13 479.657C1311.6 481.29 1311.83 483.507 1311.83 486.307V500.307L1315.33 500.657V503.157H1303.48V500.707L1306.58 500.307V486.257C1306.58 484.29 1306.45 482.757 1306.18 481.657C1305.92 480.523 1305.42 479.69 1304.68 479.157C1303.95 478.59 1302.88 478.307 1301.48 478.307C1300.28 478.307 1299 478.607 1297.63 479.207C1296.27 479.807 1295.05 480.507 1293.98 481.307V500.257L1297.38 500.707V503.157H1285.58V500.707L1288.73 500.257V479.257ZM1330.89 516.657C1326.62 516.657 1323.52 515.973 1321.59 514.607C1319.69 513.273 1318.74 511.423 1318.74 509.057C1318.74 507.59 1319.19 506.24 1320.09 505.007C1321.02 503.773 1322.12 502.84 1323.39 502.207C1321.85 501.34 1321.09 499.94 1321.09 498.007C1321.09 496.807 1321.44 495.673 1322.14 494.607C1322.84 493.54 1323.75 492.723 1324.89 492.157C1323.22 491.423 1321.94 490.373 1321.04 489.007C1320.17 487.64 1319.74 486.023 1319.74 484.157C1319.74 482.223 1320.27 480.54 1321.34 479.107C1322.44 477.673 1323.87 476.573 1325.64 475.807C1327.44 475.04 1329.34 474.657 1331.34 474.657C1334.7 474.657 1337.34 475.357 1339.24 476.757C1339.74 476.257 1340.5 475.773 1341.54 475.307C1342.57 474.84 1343.67 474.607 1344.84 474.607H1346.54V479.007H1341.04C1341.84 480.24 1342.24 481.673 1342.24 483.307C1342.24 485.273 1341.74 487.023 1340.74 488.557C1339.77 490.057 1338.4 491.223 1336.64 492.057C1334.9 492.89 1332.94 493.307 1330.74 493.307C1329.3 493.307 1328.02 493.157 1326.89 492.857C1326.42 493.323 1326.04 493.84 1325.74 494.407C1325.44 494.973 1325.29 495.523 1325.29 496.057C1325.29 497.257 1325.69 498.09 1326.49 498.557C1327.29 498.99 1328.72 499.207 1330.79 499.207H1336.44C1339.67 499.207 1342.07 499.823 1343.64 501.057C1345.2 502.29 1345.99 504.04 1345.99 506.307C1345.99 508.207 1345.3 509.94 1343.94 511.507C1342.57 513.107 1340.72 514.357 1338.39 515.257C1336.09 516.19 1333.59 516.657 1330.89 516.657ZM1331.24 490.557C1335.04 490.557 1336.94 488.307 1336.94 483.807C1336.94 481.573 1336.44 479.94 1335.44 478.907C1334.47 477.84 1333 477.307 1331.04 477.307C1329.2 477.307 1327.75 477.823 1326.69 478.857C1325.62 479.857 1325.09 481.473 1325.09 483.707C1325.09 485.807 1325.59 487.473 1326.59 488.707C1327.62 489.94 1329.17 490.557 1331.24 490.557ZM1331.34 513.757C1332.97 513.757 1334.5 513.507 1335.94 513.007C1337.4 512.54 1338.59 511.823 1339.49 510.857C1340.39 509.923 1340.84 508.823 1340.84 507.557C1340.84 506.057 1340.44 504.957 1339.64 504.257C1338.84 503.59 1337.29 503.257 1334.99 503.257H1329.09C1327.75 503.257 1326.7 503.173 1325.94 503.007C1324.57 504.507 1323.89 506.19 1323.89 508.057C1323.89 509.923 1324.45 511.34 1325.59 512.307C1326.72 513.273 1328.64 513.757 1331.34 513.757Z" fill="black"/>
<path d="M946.55 721.05L942.65 720.45V717.95H949.3C950.5 717.95 951.683 717.9 952.85 717.8C954.65 717.667 956.35 717.6 957.95 717.6C962.783 717.634 966.2 718.534 968.2 720.3C970.2 722.067 971.2 724.734 971.2 728.3C971.2 730.967 970.583 733.284 969.35 735.25C968.117 737.217 966.4 738.717 964.2 739.75C962.033 740.784 959.533 741.3 956.7 741.3C955.733 741.3 954.75 741.284 953.75 741.25C952.75 741.184 952.133 741.134 951.9 741.1V752.1L958.75 752.65V755.1H942.4V752.65L946.55 752.15V721.05ZM951.9 738.35C952.833 738.517 954.433 738.6 956.7 738.6C959.333 738.6 961.467 737.8 963.1 736.2C964.767 734.6 965.6 731.984 965.6 728.35C965.6 725.484 964.883 723.434 963.45 722.2C962.017 720.934 959.783 720.3 956.75 720.3C955.683 720.3 954.55 720.367 953.35 720.5C952.617 720.567 952.133 720.6 951.9 720.6V738.35ZM978.371 717.8L974.321 717.25V715.1L982.371 714.15H982.471L983.571 714.9V752.25L987.821 752.65V755.1H974.321V752.65L978.371 752.2V717.8ZM991.371 747.6C991.371 744.467 992.938 742.167 996.071 740.7C999.204 739.2 1003.17 738.4 1007.97 738.3V736.9C1007.97 735.334 1007.8 734.1 1007.47 733.2C1007.14 732.3 1006.55 731.65 1005.72 731.25C1004.92 730.817 1003.77 730.6 1002.27 730.6C1000.57 730.6 999.038 730.85 997.671 731.35C996.338 731.817 995.004 732.4 993.671 733.1L992.421 730.5C992.854 730.134 993.654 729.65 994.821 729.05C995.988 728.45 997.338 727.917 998.871 727.45C1000.4 726.984 1001.94 726.75 1003.47 726.75C1005.84 726.75 1007.7 727.084 1009.07 727.75C1010.47 728.384 1011.47 729.417 1012.07 730.85C1012.67 732.284 1012.97 734.2 1012.97 736.6V752.65H1015.92V754.85C1015.25 755.017 1014.4 755.184 1013.37 755.35C1012.37 755.517 1011.49 755.6 1010.72 755.6C1009.79 755.6 1009.15 755.45 1008.82 755.15C1008.49 754.884 1008.32 754.267 1008.32 753.3V751.65C1007.32 752.65 1006.09 753.567 1004.62 754.4C1003.19 755.234 1001.55 755.65 999.721 755.65C997.321 755.65 995.321 754.967 993.721 753.6C992.154 752.2 991.371 750.2 991.371 747.6ZM1001.87 752.25C1002.74 752.25 1003.74 751.984 1004.87 751.45C1006 750.917 1007.04 750.284 1007.97 749.55V740.95C1004.34 740.95 1001.59 741.517 999.721 742.65C997.888 743.75 996.971 745.2 996.971 747C996.971 748.8 997.404 750.134 998.271 751C999.171 751.834 1000.37 752.25 1001.87 752.25ZM1022.4 731.2L1018.8 730.3V727.6L1025.95 726.7H1026.1L1027.15 727.6V729.7L1027.1 730.9C1028.3 729.834 1029.88 728.867 1031.85 728C1033.82 727.134 1035.7 726.7 1037.5 726.7C1039.6 726.7 1041.22 727.1 1042.35 727.9C1043.52 728.7 1044.33 729.934 1044.8 731.6C1045.27 733.234 1045.5 735.45 1045.5 738.25V752.25L1049 752.6V755.1H1037.15V752.65L1040.25 752.25V738.2C1040.25 736.234 1040.12 734.7 1039.85 733.6C1039.58 732.467 1039.08 731.634 1038.35 731.1C1037.62 730.534 1036.55 730.25 1035.15 730.25C1033.95 730.25 1032.67 730.55 1031.3 731.15C1029.93 731.75 1028.72 732.45 1027.65 733.25V752.2L1031.05 752.65V755.1H1019.25V752.65L1022.4 752.2V731.2ZM1056.6 730.65H1051.9V728.35L1056.6 727.4V725.05C1056.6 722.984 1057.13 721.084 1058.2 719.35C1059.3 717.617 1060.72 716.25 1062.45 715.25C1064.22 714.217 1066.08 713.7 1068.05 713.7C1069.18 713.7 1070.17 713.85 1071 714.15V719.15C1070.7 718.884 1070.1 718.634 1069.2 718.4C1068.33 718.134 1067.37 718 1066.3 718C1064.73 718 1063.58 718.417 1062.85 719.25C1062.15 720.05 1061.8 721.45 1061.8 723.45V727.4H1068.7V730.65H1061.8V752.25L1067.35 752.65V755.1H1052.35V752.65L1056.6 752.2V730.65ZM1095.37 755.55C1094.44 755.55 1093.74 755.367 1093.27 755C1092.84 754.634 1092.62 754.034 1092.62 753.2V751.5C1091.52 752.6 1090.14 753.567 1088.47 754.4C1086.84 755.234 1085.19 755.65 1083.52 755.65C1080.42 755.65 1078.22 754.817 1076.92 753.15C1075.62 751.484 1074.97 748.734 1074.97 744.9V730.4L1072.17 729.6V727.4L1079.17 726.75H1079.22L1080.17 727.35V744.5C1080.17 746.434 1080.3 747.95 1080.57 749.05C1080.87 750.117 1081.37 750.917 1082.07 751.45C1082.8 751.95 1083.85 752.2 1085.22 752.2C1086.55 752.2 1087.8 751.917 1088.97 751.35C1090.14 750.784 1091.15 750.117 1092.02 749.35V730.4L1088.42 729.6V727.4L1096.02 726.75H1096.07L1097.22 727.35V752.55H1100.22L1100.17 754.8C1099.24 755.034 1098.42 755.217 1097.72 755.35C1097.05 755.484 1096.27 755.55 1095.37 755.55ZM1107.86 717.8L1103.81 717.25V715.1L1111.86 714.15H1111.96L1113.06 714.9V752.25L1117.31 752.65V755.1H1103.81V752.65L1107.86 752.2V717.8ZM1137.83 721.05L1133.18 720.45V717.95H1147.88V720.45L1143.23 721.05V752.15L1147.88 752.7V755.1H1133.23V752.65L1137.83 752.15V721.05ZM1163.69 755.65C1161.69 755.65 1159.86 755.15 1158.19 754.15C1156.53 753.15 1155.19 751.617 1154.19 749.55C1153.23 747.484 1152.74 744.934 1152.74 741.9C1152.74 739.067 1153.33 736.484 1154.49 734.15C1155.66 731.817 1157.33 729.984 1159.49 728.65C1161.69 727.284 1164.28 726.6 1167.24 726.6C1168.94 726.6 1170.49 726.784 1171.89 727.15V717.8L1166.79 717.2V715.05L1175.79 714.15H1175.94L1177.04 714.95V752.55H1179.94V754.85C1178.88 755.084 1177.94 755.267 1177.14 755.4C1176.38 755.534 1175.56 755.6 1174.69 755.6C1173.83 755.6 1173.21 755.45 1172.84 755.15C1172.48 754.85 1172.29 754.217 1172.29 753.25V751.65C1171.36 752.784 1170.13 753.734 1168.59 754.5C1167.09 755.267 1165.46 755.65 1163.69 755.65ZM1165.69 752.1C1166.99 752.1 1168.21 751.817 1169.34 751.25C1170.48 750.65 1171.33 749.967 1171.89 749.2V730.9C1171.63 730.5 1170.99 730.15 1169.99 729.85C1169.03 729.517 1167.99 729.35 1166.89 729.35C1164.29 729.35 1162.21 730.35 1160.64 732.35C1159.11 734.317 1158.34 737.367 1158.34 741.5C1158.34 745.1 1159.03 747.767 1160.39 749.5C1161.76 751.234 1163.53 752.1 1165.69 752.1ZM1196.25 755.65C1192.22 755.65 1189.13 754.334 1187 751.7C1184.9 749.067 1183.85 745.55 1183.85 741.15C1183.85 738.25 1184.4 735.7 1185.5 733.5C1186.6 731.3 1188.13 729.6 1190.1 728.4C1192.1 727.2 1194.37 726.6 1196.9 726.6C1200 726.6 1202.4 727.467 1204.1 729.2C1205.83 730.9 1206.75 733.35 1206.85 736.55C1206.85 738.584 1206.73 740.134 1206.5 741.2H1189.3C1189.37 744.5 1190.13 747.167 1191.6 749.2C1193.07 751.2 1195.15 752.2 1197.85 752.2C1199.18 752.2 1200.57 751.967 1202 751.5C1203.47 751 1204.6 750.417 1205.4 749.75L1206.35 751.95C1205.38 752.95 1203.95 753.817 1202.05 754.55C1200.15 755.284 1198.22 755.65 1196.25 755.65ZM1201.35 738.55C1201.45 737.85 1201.5 737.134 1201.5 736.4C1201.47 734.234 1201 732.534 1200.1 731.3C1199.23 730.034 1197.85 729.4 1195.95 729.4C1194.02 729.4 1192.47 730.1 1191.3 731.5C1190.17 732.9 1189.52 735.25 1189.35 738.55H1201.35ZM1211.15 747.6C1211.15 744.467 1212.71 742.167 1215.85 740.7C1218.98 739.2 1222.95 738.4 1227.75 738.3V736.9C1227.75 735.334 1227.58 734.1 1227.25 733.2C1226.91 732.3 1226.33 731.65 1225.5 731.25C1224.7 730.817 1223.55 730.6 1222.05 730.6C1220.35 730.6 1218.81 730.85 1217.45 731.35C1216.11 731.817 1214.78 732.4 1213.45 733.1L1212.2 730.5C1212.63 730.134 1213.43 729.65 1214.6 729.05C1215.76 728.45 1217.11 727.917 1218.65 727.45C1220.18 726.984 1221.71 726.75 1223.25 726.75C1225.61 726.75 1227.48 727.084 1228.85 727.75C1230.25 728.384 1231.25 729.417 1231.85 730.85C1232.45 732.284 1232.75 734.2 1232.75 736.6V752.65H1235.7V754.85C1235.03 755.017 1234.18 755.184 1233.15 755.35C1232.15 755.517 1231.26 755.6 1230.5 755.6C1229.56 755.6 1228.93 755.45 1228.6 755.15C1228.26 754.884 1228.1 754.267 1228.1 753.3V751.65C1227.1 752.65 1225.86 753.567 1224.4 754.4C1222.96 755.234 1221.33 755.65 1219.5 755.65C1217.1 755.65 1215.1 754.967 1213.5 753.6C1211.93 752.2 1211.15 750.2 1211.15 747.6ZM1221.65 752.25C1222.51 752.25 1223.51 751.984 1224.65 751.45C1225.78 750.917 1226.81 750.284 1227.75 749.55V740.95C1224.11 740.95 1221.36 741.517 1219.5 742.65C1217.66 743.75 1216.75 745.2 1216.75 747C1216.75 748.8 1217.18 750.134 1218.05 751C1218.95 751.834 1220.15 752.25 1221.65 752.25ZM1247.72 755.6C1245.82 755.6 1244.41 755.167 1243.47 754.3C1242.54 753.434 1242.07 751.95 1242.07 749.85V730.65H1238.47V728.4C1238.64 728.367 1239.11 728.25 1239.87 728.05C1240.64 727.85 1241.16 727.667 1241.42 727.5C1241.96 727.2 1242.37 726.6 1242.67 725.7C1242.94 725.067 1243.26 724.05 1243.62 722.65C1243.99 721.25 1244.21 720.417 1244.27 720.15H1247.22L1247.32 727.35H1255.67V730.65H1247.32V746C1247.32 747.9 1247.37 749.234 1247.47 750C1247.61 750.767 1247.86 751.267 1248.22 751.5C1248.62 751.734 1249.29 751.85 1250.22 751.85C1251.12 751.85 1252.11 751.734 1253.17 751.5C1254.27 751.267 1255.12 751.017 1255.72 750.75L1256.47 753C1255.67 753.6 1254.37 754.184 1252.57 754.75C1250.81 755.317 1249.19 755.6 1247.72 755.6ZM1265.44 722.35C1264.37 722.35 1263.57 722.05 1263.04 721.45C1262.5 720.85 1262.24 720.084 1262.24 719.15C1262.24 718.084 1262.55 717.2 1263.19 716.5C1263.85 715.8 1264.75 715.45 1265.89 715.45C1267.02 715.45 1267.85 715.75 1268.39 716.35C1268.92 716.95 1269.19 717.717 1269.19 718.65C1269.19 719.784 1268.85 720.684 1268.19 721.35C1267.55 722.017 1266.65 722.35 1265.49 722.35H1265.44ZM1263.44 731.2L1259.64 730.3V727.65L1267.39 726.7H1267.49L1268.64 727.6V752.25L1272.64 752.65V755.1H1259.39V752.65L1263.44 752.2V731.2ZM1276.19 741.15C1276.19 738.15 1276.8 735.55 1278.04 733.35C1279.27 731.15 1280.89 729.484 1282.89 728.35C1284.92 727.184 1287.09 726.6 1289.39 726.6C1293.59 726.6 1296.74 727.934 1298.84 730.6C1300.97 733.267 1302.04 736.767 1302.04 741.1C1302.04 744.134 1301.42 746.75 1300.19 748.95C1298.95 751.15 1297.32 752.817 1295.29 753.95C1293.29 755.084 1291.14 755.65 1288.84 755.65C1284.64 755.65 1281.47 754.317 1279.34 751.65C1277.24 748.984 1276.19 745.484 1276.19 741.15ZM1289.14 752.8C1291.44 752.8 1293.2 751.85 1294.44 749.95C1295.67 748.05 1296.29 745.234 1296.29 741.5C1296.29 737.8 1295.72 734.867 1294.59 732.7C1293.45 730.534 1291.64 729.45 1289.14 729.45C1286.84 729.45 1285.05 730.4 1283.79 732.3C1282.55 734.2 1281.94 737.017 1281.94 740.75C1281.94 744.45 1282.52 747.384 1283.69 749.55C1284.85 751.717 1286.67 752.8 1289.14 752.8ZM1309.61 731.2L1306.01 730.3V727.6L1313.16 726.7H1313.31L1314.36 727.6V729.7L1314.31 730.9C1315.51 729.834 1317.09 728.867 1319.06 728C1321.02 727.134 1322.91 726.7 1324.71 726.7C1326.81 726.7 1328.42 727.1 1329.56 727.9C1330.72 728.7 1331.54 729.934 1332.01 731.6C1332.47 733.234 1332.71 735.45 1332.71 738.25V752.25L1336.21 752.6V755.1H1324.36V752.65L1327.46 752.25V738.2C1327.46 736.234 1327.32 734.7 1327.06 733.6C1326.79 732.467 1326.29 731.634 1325.56 731.1C1324.82 730.534 1323.76 730.25 1322.36 730.25C1321.16 730.25 1319.87 730.55 1318.51 731.15C1317.14 731.75 1315.92 732.45 1314.86 733.25V752.2L1318.26 752.65V755.1H1306.46V752.65L1309.61 752.2V731.2Z" fill="black"/>
<path d="M946.55 945.384L942.5 944.784V942.284H956.85V944.784L951.9 945.384V976.484L964.8 976.034L967.75 967.634L970.8 968.084L969.05 979.434H942.4V976.984L946.55 976.484V945.384ZM986.239 979.984C982.206 979.984 979.123 978.667 976.989 976.034C974.889 973.401 973.839 969.884 973.839 965.484C973.839 962.584 974.389 960.034 975.489 957.834C976.589 955.634 978.123 953.934 980.089 952.734C982.089 951.534 984.356 950.934 986.889 950.934C989.989 950.934 992.389 951.801 994.089 953.534C995.823 955.234 996.739 957.684 996.839 960.884C996.839 962.917 996.723 964.467 996.489 965.534H979.289C979.356 968.834 980.123 971.501 981.589 973.534C983.056 975.534 985.139 976.534 987.839 976.534C989.173 976.534 990.556 976.301 991.989 975.834C993.456 975.334 994.589 974.751 995.389 974.084L996.339 976.284C995.373 977.284 993.939 978.151 992.039 978.884C990.139 979.617 988.206 979.984 986.239 979.984ZM991.339 962.884C991.439 962.184 991.489 961.467 991.489 960.734C991.456 958.567 990.989 956.867 990.089 955.634C989.223 954.367 987.839 953.734 985.939 953.734C984.006 953.734 982.456 954.434 981.289 955.834C980.156 957.234 979.506 959.584 979.339 962.884H991.339ZM1013.09 992.934C1008.82 992.934 1005.72 992.251 1003.79 990.884C1001.89 989.551 1000.94 987.701 1000.94 985.334C1000.94 983.867 1001.39 982.517 1002.29 981.284C1003.22 980.051 1004.32 979.117 1005.59 978.484C1004.05 977.617 1003.29 976.217 1003.29 974.284C1003.29 973.084 1003.64 971.951 1004.34 970.884C1005.04 969.817 1005.95 969.001 1007.09 968.434C1005.42 967.701 1004.14 966.651 1003.24 965.284C1002.37 963.917 1001.94 962.301 1001.94 960.434C1001.94 958.501 1002.47 956.817 1003.54 955.384C1004.64 953.951 1006.07 952.851 1007.84 952.084C1009.64 951.317 1011.54 950.934 1013.54 950.934C1016.9 950.934 1019.54 951.634 1021.44 953.034C1021.94 952.534 1022.7 952.051 1023.74 951.584C1024.77 951.117 1025.87 950.884 1027.04 950.884H1028.74V955.284H1023.24C1024.04 956.517 1024.44 957.951 1024.44 959.584C1024.44 961.551 1023.94 963.301 1022.94 964.834C1021.97 966.334 1020.6 967.501 1018.84 968.334C1017.1 969.167 1015.14 969.584 1012.94 969.584C1011.5 969.584 1010.22 969.434 1009.09 969.134C1008.62 969.601 1008.24 970.117 1007.94 970.684C1007.64 971.251 1007.49 971.801 1007.49 972.334C1007.49 973.534 1007.89 974.367 1008.69 974.834C1009.49 975.267 1010.92 975.484 1012.99 975.484H1018.64C1021.87 975.484 1024.27 976.101 1025.84 977.334C1027.4 978.567 1028.19 980.317 1028.19 982.584C1028.19 984.484 1027.5 986.217 1026.14 987.784C1024.77 989.384 1022.92 990.634 1020.59 991.534C1018.29 992.467 1015.79 992.934 1013.09 992.934ZM1013.44 966.834C1017.24 966.834 1019.14 964.584 1019.14 960.084C1019.14 957.851 1018.64 956.217 1017.64 955.184C1016.67 954.117 1015.2 953.584 1013.24 953.584C1011.4 953.584 1009.95 954.101 1008.89 955.134C1007.82 956.134 1007.29 957.751 1007.29 959.984C1007.29 962.084 1007.79 963.751 1008.79 964.984C1009.82 966.217 1011.37 966.834 1013.44 966.834ZM1013.54 990.034C1015.17 990.034 1016.7 989.784 1018.14 989.284C1019.6 988.817 1020.79 988.101 1021.69 987.134C1022.59 986.201 1023.04 985.101 1023.04 983.834C1023.04 982.334 1022.64 981.234 1021.84 980.534C1021.04 979.867 1019.49 979.534 1017.19 979.534H1011.29C1009.95 979.534 1008.9 979.451 1008.14 979.284C1006.77 980.784 1006.09 982.467 1006.09 984.334C1006.09 986.201 1006.65 987.617 1007.79 988.584C1008.92 989.551 1010.84 990.034 1013.54 990.034ZM1031.51 971.934C1031.51 968.801 1033.07 966.501 1036.21 965.034C1039.34 963.534 1043.31 962.734 1048.11 962.634V961.234C1048.11 959.667 1047.94 958.434 1047.61 957.534C1047.27 956.634 1046.69 955.984 1045.86 955.584C1045.06 955.151 1043.91 954.934 1042.41 954.934C1040.71 954.934 1039.17 955.184 1037.81 955.684C1036.47 956.151 1035.14 956.734 1033.81 957.434L1032.56 954.834C1032.99 954.467 1033.79 953.984 1034.96 953.384C1036.12 952.784 1037.47 952.251 1039.01 951.784C1040.54 951.317 1042.07 951.084 1043.61 951.084C1045.97 951.084 1047.84 951.417 1049.21 952.084C1050.61 952.717 1051.61 953.751 1052.21 955.184C1052.81 956.617 1053.11 958.534 1053.11 960.934V976.984H1056.06V979.184C1055.39 979.351 1054.54 979.517 1053.51 979.684C1052.51 979.851 1051.62 979.934 1050.86 979.934C1049.92 979.934 1049.29 979.784 1048.96 979.484C1048.62 979.217 1048.46 978.601 1048.46 977.634V975.984C1047.46 976.984 1046.22 977.901 1044.76 978.734C1043.32 979.567 1041.69 979.984 1039.86 979.984C1037.46 979.984 1035.46 979.301 1033.86 977.934C1032.29 976.534 1031.51 974.534 1031.51 971.934ZM1042.01 976.584C1042.87 976.584 1043.87 976.317 1045.01 975.784C1046.14 975.251 1047.17 974.617 1048.11 973.884V965.284C1044.47 965.284 1041.72 965.851 1039.86 966.984C1038.02 968.084 1037.11 969.534 1037.11 971.334C1037.11 973.134 1037.54 974.467 1038.41 975.334C1039.31 976.167 1040.51 976.584 1042.01 976.584ZM1063.19 942.134L1059.14 941.584V939.434L1067.19 938.484H1067.29L1068.39 939.234V976.584L1072.64 976.984V979.434H1059.14V976.984L1063.19 976.534V942.134ZM1100.3 941.984H1105.8L1117.95 976.484L1121.05 976.984V979.434H1107.85V976.984L1112 976.484L1109.65 969.084H1095.05L1092.7 976.484L1097 976.984V979.434H1085.15V976.984L1088.25 976.484L1100.3 941.984ZM1103.45 949.984L1102.2 945.584L1101 950.084L1095.95 966.134H1108.7L1103.45 949.984ZM1133.47 979.984C1131.47 979.984 1129.64 979.484 1127.97 978.484C1126.3 977.484 1124.97 975.951 1123.97 973.884C1123 971.817 1122.52 969.267 1122.52 966.234C1122.52 963.401 1123.1 960.817 1124.27 958.484C1125.44 956.151 1127.1 954.317 1129.27 952.984C1131.47 951.617 1134.05 950.934 1137.02 950.934C1138.72 950.934 1140.27 951.117 1141.67 951.484V942.134L1136.57 941.534V939.384L1145.57 938.484H1145.72L1146.82 939.284V976.884H1149.72V979.184C1148.65 979.417 1147.72 979.601 1146.92 979.734C1146.15 979.867 1145.34 979.934 1144.47 979.934C1143.6 979.934 1142.99 979.784 1142.62 979.484C1142.25 979.184 1142.07 978.551 1142.07 977.584V975.984C1141.14 977.117 1139.9 978.067 1138.37 978.834C1136.87 979.601 1135.24 979.984 1133.47 979.984ZM1135.47 976.434C1136.77 976.434 1137.99 976.151 1139.12 975.584C1140.25 974.984 1141.1 974.301 1141.67 973.534V955.234C1141.4 954.834 1140.77 954.484 1139.77 954.184C1138.8 953.851 1137.77 953.684 1136.67 953.684C1134.07 953.684 1131.99 954.684 1130.42 956.684C1128.89 958.651 1128.12 961.701 1128.12 965.834C1128.12 969.434 1128.8 972.101 1130.17 973.834C1131.54 975.567 1133.3 976.434 1135.47 976.434ZM1151.42 951.684H1163.02V954.034L1159.47 954.684L1164.52 969.084L1166.62 975.434L1168.42 969.284L1173.47 954.684L1170.07 954.034V951.684H1180.22V954.034L1177.62 954.684L1167.97 979.834H1163.72L1153.67 954.684L1151.42 954.034V951.684ZM1188.04 946.684C1186.98 946.684 1186.18 946.384 1185.64 945.784C1185.11 945.184 1184.84 944.417 1184.84 943.484C1184.84 942.417 1185.16 941.534 1185.79 940.834C1186.46 940.134 1187.36 939.784 1188.49 939.784C1189.63 939.784 1190.46 940.084 1190.99 940.684C1191.53 941.284 1191.79 942.051 1191.79 942.984C1191.79 944.117 1191.46 945.017 1190.79 945.684C1190.16 946.351 1189.26 946.684 1188.09 946.684H1188.04ZM1186.04 955.534L1182.24 954.634V951.984L1189.99 951.034H1190.09L1191.24 951.934V976.584L1195.24 976.984V979.434H1181.99V976.984L1186.04 976.534V955.534ZM1198.19 965.734C1198.19 962.967 1198.73 960.467 1199.79 958.234C1200.89 956.001 1202.49 954.234 1204.59 952.934C1206.73 951.601 1209.28 950.934 1212.24 950.934C1213.68 950.934 1214.91 951.067 1215.94 951.334C1216.98 951.601 1218.21 951.967 1219.64 952.434L1219.44 960.134H1216.19L1215.09 955.034C1214.89 954.101 1213.63 953.634 1211.29 953.634C1208.96 953.634 1207.11 954.584 1205.74 956.484C1204.41 958.351 1203.74 961.017 1203.74 964.484C1203.74 968.417 1204.49 971.417 1205.99 973.484C1207.53 975.517 1209.51 976.534 1211.94 976.534C1213.34 976.534 1214.66 976.317 1215.89 975.884C1217.16 975.451 1218.24 974.934 1219.14 974.334L1220.09 976.334C1219.19 977.267 1217.86 978.117 1216.09 978.884C1214.36 979.617 1212.59 979.984 1210.79 979.984C1208.06 979.984 1205.74 979.367 1203.84 978.134C1201.98 976.901 1200.56 975.217 1199.59 973.084C1198.66 970.917 1198.19 968.467 1198.19 965.734ZM1236.73 979.984C1232.69 979.984 1229.61 978.667 1227.48 976.034C1225.38 973.401 1224.33 969.884 1224.33 965.484C1224.33 962.584 1224.88 960.034 1225.98 957.834C1227.08 955.634 1228.61 953.934 1230.58 952.734C1232.58 951.534 1234.84 950.934 1237.38 950.934C1240.48 950.934 1242.88 951.801 1244.58 953.534C1246.31 955.234 1247.23 957.684 1247.33 960.884C1247.33 962.917 1247.21 964.467 1246.98 965.534H1229.78C1229.84 968.834 1230.61 971.501 1232.08 973.534C1233.54 975.534 1235.63 976.534 1238.33 976.534C1239.66 976.534 1241.04 976.301 1242.48 975.834C1243.94 975.334 1245.08 974.751 1245.88 974.084L1246.83 976.284C1245.86 977.284 1244.43 978.151 1242.53 978.884C1240.63 979.617 1238.69 979.984 1236.73 979.984ZM1241.83 962.884C1241.93 962.184 1241.98 961.467 1241.98 960.734C1241.94 958.567 1241.48 956.867 1240.58 955.634C1239.71 954.367 1238.33 953.734 1236.43 953.734C1234.49 953.734 1232.94 954.434 1231.78 955.834C1230.64 957.234 1229.99 959.584 1229.83 962.884H1241.83Z" fill="black"/>
<path d="M953.45 1185.82L949.15 1185.22V1182.72H975.9L976.4 1191.22H973.15L971.65 1185.67L958.8 1185.32V1199.82L967.85 1199.67L968.7 1195.52H971.35V1207.22H968.75L967.85 1202.87L958.8 1202.67V1216.92L966.6 1217.42V1219.87H949.45V1217.42L953.45 1216.92V1185.82ZM1002.96 1220.32C1002.02 1220.32 1001.32 1220.14 1000.86 1219.77C1000.42 1219.41 1000.21 1218.81 1000.21 1217.97V1216.27C999.107 1217.37 997.724 1218.34 996.057 1219.17C994.424 1220.01 992.774 1220.42 991.107 1220.42C988.007 1220.42 985.807 1219.59 984.507 1217.92C983.207 1216.26 982.557 1213.51 982.557 1209.67V1195.17L979.757 1194.37V1192.17L986.757 1191.52H986.807L987.757 1192.12V1209.27C987.757 1211.21 987.89 1212.72 988.157 1213.82C988.457 1214.89 988.957 1215.69 989.657 1216.22C990.39 1216.72 991.44 1216.97 992.807 1216.97C994.14 1216.97 995.39 1216.69 996.557 1216.12C997.724 1215.56 998.74 1214.89 999.607 1214.12V1195.17L996.007 1194.37V1192.17L1003.61 1191.52H1003.66L1004.81 1192.12V1217.32H1007.81L1007.76 1219.57C1006.82 1219.81 1006.01 1219.99 1005.31 1220.12C1004.64 1220.26 1003.86 1220.32 1002.96 1220.32ZM1014.8 1195.97L1011.2 1195.07V1192.37L1018.35 1191.47H1018.5L1019.55 1192.37V1194.47L1019.5 1195.67C1020.7 1194.61 1022.28 1193.64 1024.25 1192.77C1026.22 1191.91 1028.1 1191.47 1029.9 1191.47C1032 1191.47 1033.62 1191.87 1034.75 1192.67C1035.92 1193.47 1036.73 1194.71 1037.2 1196.37C1037.67 1198.01 1037.9 1200.22 1037.9 1203.02V1217.02L1041.4 1217.37V1219.87H1029.55V1217.42L1032.65 1217.02V1202.97C1032.65 1201.01 1032.52 1199.47 1032.25 1198.37C1031.98 1197.24 1031.48 1196.41 1030.75 1195.87C1030.02 1195.31 1028.95 1195.02 1027.55 1195.02C1026.35 1195.02 1025.07 1195.32 1023.7 1195.92C1022.33 1196.52 1021.12 1197.22 1020.05 1198.02V1216.97L1023.45 1217.42V1219.87H1011.65V1217.42L1014.8 1216.97V1195.97ZM1055.8 1220.42C1053.8 1220.42 1051.97 1219.92 1050.3 1218.92C1048.64 1217.92 1047.3 1216.39 1046.3 1214.32C1045.34 1212.26 1044.85 1209.71 1044.85 1206.67C1044.85 1203.84 1045.44 1201.26 1046.6 1198.92C1047.77 1196.59 1049.44 1194.76 1051.6 1193.42C1053.8 1192.06 1056.39 1191.37 1059.35 1191.37C1061.05 1191.37 1062.6 1191.56 1064 1191.92V1182.57L1058.9 1181.97V1179.82L1067.9 1178.92H1068.05L1069.15 1179.72V1217.32H1072.05V1219.62C1070.99 1219.86 1070.05 1220.04 1069.25 1220.17C1068.49 1220.31 1067.67 1220.37 1066.8 1220.37C1065.94 1220.37 1065.32 1220.22 1064.95 1219.92C1064.59 1219.62 1064.4 1218.99 1064.4 1218.02V1216.42C1063.47 1217.56 1062.24 1218.51 1060.7 1219.27C1059.2 1220.04 1057.57 1220.42 1055.8 1220.42ZM1057.8 1216.87C1059.1 1216.87 1060.32 1216.59 1061.45 1216.02C1062.59 1215.42 1063.44 1214.74 1064 1213.97V1195.67C1063.74 1195.27 1063.1 1194.92 1062.1 1194.62C1061.14 1194.29 1060.1 1194.12 1059 1194.12C1056.4 1194.12 1054.32 1195.12 1052.75 1197.12C1051.22 1199.09 1050.45 1202.14 1050.45 1206.27C1050.45 1209.87 1051.14 1212.54 1052.5 1214.27C1053.87 1216.01 1055.64 1216.87 1057.8 1216.87ZM1081.96 1187.12C1080.89 1187.12 1080.09 1186.82 1079.56 1186.22C1079.02 1185.62 1078.76 1184.86 1078.76 1183.92C1078.76 1182.86 1079.07 1181.97 1079.71 1181.27C1080.37 1180.57 1081.27 1180.22 1082.41 1180.22C1083.54 1180.22 1084.37 1180.52 1084.91 1181.12C1085.44 1181.72 1085.71 1182.49 1085.71 1183.42C1085.71 1184.56 1085.37 1185.46 1084.71 1186.12C1084.07 1186.79 1083.17 1187.12 1082.01 1187.12H1081.96ZM1079.96 1195.97L1076.16 1195.07V1192.42L1083.91 1191.47H1084.01L1085.16 1192.37V1217.02L1089.16 1217.42V1219.87H1075.91V1217.42L1079.96 1216.97V1195.97ZM1095.71 1195.97L1092.11 1195.07V1192.37L1099.26 1191.47H1099.41L1100.46 1192.37V1194.47L1100.41 1195.67C1101.61 1194.61 1103.19 1193.64 1105.16 1192.77C1107.12 1191.91 1109.01 1191.47 1110.81 1191.47C1112.91 1191.47 1114.52 1191.87 1115.66 1192.67C1116.82 1193.47 1117.64 1194.71 1118.11 1196.37C1118.57 1198.01 1118.81 1200.22 1118.81 1203.02V1217.02L1122.31 1217.37V1219.87H1110.46V1217.42L1113.56 1217.02V1202.97C1113.56 1201.01 1113.42 1199.47 1113.16 1198.37C1112.89 1197.24 1112.39 1196.41 1111.66 1195.87C1110.92 1195.31 1109.86 1195.02 1108.46 1195.02C1107.26 1195.02 1105.97 1195.32 1104.61 1195.92C1103.24 1196.52 1102.02 1197.22 1100.96 1198.02V1216.97L1104.36 1217.42V1219.87H1092.56V1217.42L1095.71 1216.97V1195.97ZM1137.86 1233.37C1133.59 1233.37 1130.49 1232.69 1128.56 1231.32C1126.66 1229.99 1125.71 1228.14 1125.71 1225.77C1125.71 1224.31 1126.16 1222.96 1127.06 1221.72C1127.99 1220.49 1129.09 1219.56 1130.36 1218.92C1128.83 1218.06 1128.06 1216.66 1128.06 1214.72C1128.06 1213.52 1128.41 1212.39 1129.11 1211.32C1129.81 1210.26 1130.73 1209.44 1131.86 1208.87C1130.19 1208.14 1128.91 1207.09 1128.01 1205.72C1127.14 1204.36 1126.71 1202.74 1126.71 1200.87C1126.71 1198.94 1127.24 1197.26 1128.31 1195.82C1129.41 1194.39 1130.84 1193.29 1132.61 1192.52C1134.41 1191.76 1136.31 1191.37 1138.31 1191.37C1141.68 1191.37 1144.31 1192.07 1146.21 1193.47C1146.71 1192.97 1147.48 1192.49 1148.51 1192.02C1149.54 1191.56 1150.64 1191.32 1151.81 1191.32H1153.51V1195.72H1148.01C1148.81 1196.96 1149.21 1198.39 1149.21 1200.02C1149.21 1201.99 1148.71 1203.74 1147.71 1205.27C1146.74 1206.77 1145.38 1207.94 1143.61 1208.77C1141.88 1209.61 1139.91 1210.02 1137.71 1210.02C1136.28 1210.02 1134.99 1209.87 1133.86 1209.57C1133.39 1210.04 1133.01 1210.56 1132.71 1211.12C1132.41 1211.69 1132.26 1212.24 1132.26 1212.77C1132.26 1213.97 1132.66 1214.81 1133.46 1215.27C1134.26 1215.71 1135.69 1215.92 1137.76 1215.92H1143.41C1146.64 1215.92 1149.04 1216.54 1150.61 1217.77C1152.18 1219.01 1152.96 1220.76 1152.96 1223.02C1152.96 1224.92 1152.28 1226.66 1150.91 1228.22C1149.54 1229.82 1147.69 1231.07 1145.36 1231.97C1143.06 1232.91 1140.56 1233.37 1137.86 1233.37ZM1138.21 1207.27C1142.01 1207.27 1143.91 1205.02 1143.91 1200.52C1143.91 1198.29 1143.41 1196.66 1142.41 1195.62C1141.44 1194.56 1139.98 1194.02 1138.01 1194.02C1136.18 1194.02 1134.73 1194.54 1133.66 1195.57C1132.59 1196.57 1132.06 1198.19 1132.06 1200.42C1132.06 1202.52 1132.56 1204.19 1133.56 1205.42C1134.59 1206.66 1136.14 1207.27 1138.21 1207.27ZM1138.31 1230.47C1139.94 1230.47 1141.48 1230.22 1142.91 1229.72C1144.38 1229.26 1145.56 1228.54 1146.46 1227.57C1147.36 1226.64 1147.81 1225.54 1147.81 1224.27C1147.81 1222.77 1147.41 1221.67 1146.61 1220.97C1145.81 1220.31 1144.26 1219.97 1141.96 1219.97H1136.06C1134.73 1219.97 1133.68 1219.89 1132.91 1219.72C1131.54 1221.22 1130.86 1222.91 1130.86 1224.77C1130.86 1226.64 1131.43 1228.06 1132.56 1229.02C1133.69 1229.99 1135.61 1230.47 1138.31 1230.47Z" fill="black"/>
</svg>
